<?xml version="1.0" encoding="UTF-8"?>
<svg xmlns="http://www.w3.org/2000/svg" 
     viewBox="-5307.1279580672 -2191.6 10695.665007206399 5023.2"
     width="10695.665007206399" 
     height="5023.2"
     style="background-color: #555555;">
  
  <!-- Metadata -->
  <title>Autodromo Nazionale di Monza - By Ximb - NewgenV3 - Haxball Map</title>
  <desc>Generated from Haxball map file</desc>
  
  <!-- Coordinate metadata for frontend -->
  <metadata>
    <coordinates>{"viewBox":"-5307.1279580672 -2191.6 10695.665007206399 5023.2","bounds":{"minX":-4415.8225408,"maxX":4497.231631871999,"minY":-1773,"maxY":2413},"padding":0.1,"generated":"2026-08-13T21:59:31.658Z"}</coordinates>
  </metadata>
  
  <!-- Definitions -->
  <defs>
    
    <!-- Arrow marker for direction -->
    <marker id="arrowhead" markerWidth="10" markerHeight="7" 
            refX="9" refY="3.5" orient="auto">
      <polygon points="0 0, 10 3.5, 0 7" fill="rgba(255,255,255,0.5)" />
    </marker>
  </defs>
  
  <!-- Background grid -->
  
  
  <!-- Map segments -->
  <path id="segment-6-4"
        d="M 774.233088 1254 L 3889.0288 1248"
        stroke="#ffffff" 
        stroke-width="2"
        opacity="1"
        fill="none"
        stroke-linecap="round" />
  <path id="segment-6-7"
        d="M 774.233088 1254 A 68.93660508301686 68.93660508301686 0 0 1 716 1199"
        stroke="#0A36AF" 
        stroke-width="2"
        opacity="1"
        fill="none"
        stroke-linecap="round" />
  <path id="segment-9-10"
        d="M -199.23308799999995 1044.40288 L -2246 -360"
        stroke="#ffffff" 
        stroke-width="2"
        opacity="1"
        fill="none"
        stroke-linecap="round" />
  <path id="segment-8-11"
        d="M -271.8956800000001 1176.40288 L -2314 -216"
        stroke="#ffffff" 
        stroke-width="2"
        opacity="1"
        fill="none"
        stroke-linecap="round" />
  <path id="segment-13-15"
        d="M -3031 -1507 A 190.97228669364785 190.97228669364785 0 0 0 -3251 -1621"
        stroke="#0A36AF" 
        stroke-width="2"
        opacity="1"
        fill="none"
        stroke-linecap="round" />
  <path id="segment-12-14"
        d="M -2860 -1542 A 365.27382835071836 365.27382835071836 0 0 0 -3283 -1773"
        stroke="#ffffff" 
        stroke-width="2"
        opacity="1"
        fill="none"
        stroke-linecap="round" />
  <path id="segment-17-15"
        d="M -4055 -1405 L -3251 -1621"
        stroke="#ffffff" 
        stroke-width="2"
        opacity="1"
        fill="none"
        stroke-linecap="round" />
  <path id="segment-16-14"
        d="M -4074 -1572 L -3283 -1773"
        stroke="#0A36AF" 
        stroke-width="2"
        opacity="1"
        fill="none"
        stroke-linecap="round" />
  <path id="segment-20-19"
        d="M -3682 -24 L -4191 -1121"
        stroke="#ffffff" 
        stroke-width="2"
        opacity="1"
        fill="none"
        stroke-linecap="round" />
  <path id="segment-17-19"
        d="M -4055 -1405 A 228.8304041804305 228.8304041804305 0 0 0 -4191 -1121"
        stroke="#0A36AF" 
        stroke-width="2"
        opacity="1"
        fill="none"
        stroke-linecap="round" />
  <path id="segment-21-18"
        d="M -3817 28 L -4326 -1066"
        stroke="#ffffff" 
        stroke-width="2"
        opacity="1"
        fill="none"
        stroke-linecap="round" />
  <path id="segment-16-18"
        d="M -4074 -1572 A 378.51596222474984 378.51596222474984 0 0 0 -4326 -1066"
        stroke="#ffffff" 
        stroke-width="2"
        opacity="1"
        fill="none"
        stroke-linecap="round" />
  <path id="segment-26-24"
        d="M -2883 1672 L -3250 54"
        stroke="#ffffff" 
        stroke-width="2"
        opacity="1"
        fill="none"
        stroke-linecap="round" />
  <path id="segment-27-25"
        d="M -2730 1657 L -3100 9"
        stroke="#ffffff" 
        stroke-width="2"
        opacity="1"
        fill="none"
        stroke-linecap="round" />
  <path id="segment-23-25"
        d="M -3376 -122 A 189.31540274621648 189.31540274621648 0 0 1 -3100 9"
        stroke="#ffffff" 
        stroke-width="2"
        opacity="1"
        fill="none"
        stroke-linecap="round" />
  <path id="segment-22-21"
        d="M -3541 126 A 211.91744857055517 211.91744857055517 0 0 1 -3817 28"
        stroke="#ffffff" 
        stroke-width="2"
        opacity="1"
        fill="none"
        stroke-linecap="round" />
  <path id="segment-27-28"
        d="M -2730 1657 A 703.0643166534517 703.0643166534517 0 0 0 -2048 2169"
        stroke="#0A36AF" 
        stroke-width="2"
        opacity="1"
        fill="none"
        stroke-linecap="round" />
  <path id="segment-26-29"
        d="M -2883 1672 A 830.0996997670135 830.0996997670135 0 0 0 -2113 2327"
        stroke="#ffffff" 
        stroke-width="2"
        opacity="1"
        fill="none"
        stroke-linecap="round" />
  <path id="segment-33-31"
        d="M -687 1947 L -799 2164"
        stroke="#ffffff" 
        stroke-width="2"
        opacity="1"
        fill="none"
        stroke-linecap="round" />
  <path id="segment-32-30"
        d="M -545 1968 L -619 2131"
        stroke="#ffffff" 
        stroke-width="2"
        opacity="1"
        fill="none"
        stroke-linecap="round" />
  <path id="segment-33-35"
        d="M -687 1947 A 23.87448542345563 23.87448542345563 0 0 0 -724 1922"
        stroke="#0A36AF" 
        stroke-width="2"
        opacity="1"
        fill="none"
        stroke-linecap="round" />
  <path id="segment-34-32"
        d="M -771 1771 A 157.10032011440975 157.10032011440975 0 0 1 -545 1968"
        stroke="#ffffff" 
        stroke-width="2"
        opacity="1"
        fill="none"
        stroke-linecap="round" />
  <path id="segment-38-34"
        d="M -1148 2053 L -771 1771"
        stroke="#0A36AF" 
        stroke-width="2"
        opacity="1"
        fill="none"
        stroke-linecap="round" />
  <path id="segment-38-40"
        d="M -1148 2053 A 584.3508379209701 584.3508379209701 0 0 1 -1459 2169"
        stroke="#0A36AF" 
        stroke-width="2"
        opacity="1"
        fill="none"
        stroke-linecap="round" />
  <path id="segment-29-39"
        d="M -2113 2327 L -1480 2334"
        stroke="#ffffff" 
        stroke-width="2"
        opacity="1"
        fill="none"
        stroke-linecap="round" />
  <path id="segment-28-40"
        d="M -2048 2169 L -1459 2169"
        stroke="#ffffff" 
        stroke-width="2"
        opacity="1"
        fill="none"
        stroke-linecap="round" />
  <path id="segment-36-30"
        d="M -594 2169 A 25.222063112084033 25.222063112084033 0 0 1 -619 2131"
        stroke="#0A36AF" 
        stroke-width="2"
        opacity="1"
        fill="none"
        stroke-linecap="round" />
  <path id="segment-42-43"
        d="M -432.0522850971811 2094.49097728 A 216.83444632061153 216.83444632061153 0 0 0 -489.90492579661736 1672.265158109718"
        stroke="#009245" 
        stroke-width="2"
        opacity="1"
        fill="none"
        stroke-linecap="round" />
  <path id="segment-46-44"
        d="M -2712 1651 A 709.3625359150981 709.3625359150981 0 0 0 -2039 2144"
        stroke="#009245" 
        stroke-width="2"
        opacity="1"
        fill="none"
        stroke-linecap="round" />
  <path id="segment-45-47"
        d="M -3034.2607257600002 1927.20772864 L -3256.54992128 287.61309184000015"
        stroke="#009245" 
        stroke-width="2"
        opacity="1"
        fill="none"
        stroke-linecap="round" />
  <path id="segment-46-48"
        d="M -2712 1651 L -3130 -318"
        stroke="#015227" 
        stroke-width="2"
        opacity="1"
        fill="none"
        stroke-linecap="round" />
  <path id="segment-51-49"
        d="M -4415.8225408 -1158.4077900799998 L -3762.8880128 334.53769728000043"
        stroke="#015227" 
        stroke-width="2"
        opacity="1"
        fill="none"
        stroke-linecap="round" />
  <path id="segment-52-50"
        d="M -4168 -1128 L -3756.2025299968 -279.3281419263999"
        stroke="#009245" 
        stroke-width="2"
        opacity="1"
        fill="none"
        stroke-linecap="round" />
  <path id="segment-53-54"
        d="M -4048 -1385 L -3246 -1597"
        stroke="#009245" 
        stroke-width="2"
        opacity="1"
        fill="none"
        stroke-linecap="round" />
  <path id="segment-57-59"
        d="M -2232.86758656 -374.88596224 L -287.7845420775873 712.3993977119571"
        stroke="#009245" 
        stroke-width="2"
        opacity="1"
        fill="none"
        stroke-linecap="round" />
  <path id="segment-59-60"
        d="M -287.7845420775873 712.3993977119571 A 509.0627060657313 509.0627060657313 0 0 0 108.68406815503624 732.9561856230575"
        stroke="#009245" 
        stroke-width="2"
        opacity="1"
        fill="none"
        stroke-linecap="round" />
  <path id="segment-62-63"
        d="M 1326 2169 L 1326 2334"
        stroke="#ffffff" 
        stroke-width="2"
        opacity="1"
        fill="none"
        stroke-linecap="round" />
  <path id="segment-5-64"
        d="M 707 1402 L 3890.4460799999997 1396"
        stroke="#ffffff" 
        stroke-width="2"
        opacity="1"
        fill="none"
        stroke-linecap="round" />
  <path id="segment-0-37"
        d="M 3330 2334 L -690 2334"
        stroke="#ffffff" 
        stroke-width="2"
        opacity="1"
        fill="none"
        stroke-linecap="round" />
  <path id="segment-66-67"
        d="M 4318.288512 1444.8302079999999 A 304.6332124257802 304.6332124257802 0 0 1 4348.963328 1775.415104"
        stroke="#ffffff" 
        stroke-width="2"
        opacity="1"
        fill="none"
        stroke-linecap="round" />
  <path id="segment-67-2"
        d="M 4348.963328 1775.415104 A 1228.914060265874 1228.914060265874 0 0 1 4054.8899839999995 2126.233088"
        stroke="#ffffff" 
        stroke-width="2"
        opacity="1"
        fill="none"
        stroke-linecap="round" />
  <path id="segment-65-61"
        d="M 4497.231631871999 2205.5077590318133 A 2754.946180406986 2754.946180406986 0 0 1 3565.5152621567995 2413"
        stroke="#009245" 
        stroke-width="2"
        opacity="1"
        fill="none"
        stroke-linecap="round" />
  <path id="segment-35-92"
        d="M -724 1922 L -1024 2152"
        stroke="#ffffff" 
        stroke-width="2"
        opacity="1"
        fill="none"
        stroke-linecap="round" />
  <path id="segment-22-93"
        d="M -3541 126 L -3310 13"
        stroke="#ffffff" 
        stroke-width="2"
        opacity="1"
        fill="none"
        stroke-linecap="round" />
  <path id="segment-24-93"
        d="M -3250 54 A 55.10167713499995 55.10167713499995 0 0 0 -3310 13"
        stroke="#0A36AF" 
        stroke-width="2"
        opacity="1"
        fill="none"
        stroke-linecap="round" />
  <path id="segment-23-94"
        d="M -3376 -122 L -3605 11"
        stroke="#ffffff" 
        stroke-width="2"
        opacity="1"
        fill="none"
        stroke-linecap="round" />
  <path id="segment-20-94"
        d="M -3682 -24 A 63.920970986189786 63.920970986189786 0 0 0 -3605 11"
        stroke="#0A36AF" 
        stroke-width="2"
        opacity="1"
        fill="none"
        stroke-linecap="round" />
  <path id="segment-3-95"
        d="M 3890.53952 2027.4172800000001 A 1524.274582990271 1524.274582990271 0 0 0 4190.160768000001 1715.6302719999999"
        stroke="#0A36AF" 
        stroke-width="2"
        opacity="1"
        fill="none"
        stroke-linecap="round" />
  <path id="segment-64-96"
        d="M 3890.4460799999997 1396 A 389.5256973288906 389.5256973288906 0 0 1 4173.8766080000005 1517.348288"
        stroke="#0A36AF" 
        stroke-width="2"
        opacity="1"
        fill="none"
        stroke-linecap="round" />
  <path id="segment-95-96"
        d="M 4190.160768000001 1715.6302719999999 A 158.01909705550767 158.01909705550767 0 0 0 4173.8766080000005 1517.348288"
        stroke="#0A36AF" 
        stroke-width="2"
        opacity="1"
        fill="none"
        stroke-linecap="round" />
  <path id="segment-1-98"
        d="M 3310 2169 L 3451.92 2169"
        stroke="#ffffff" 
        stroke-width="2"
        opacity="1"
        fill="none"
        stroke-linecap="round" />
  <path id="segment-97-3"
        d="M 3741.92 2105.12 A 620.9985924465705 620.9985924465705 0 0 0 3890.53952 2027.4172800000001"
        stroke="#ffffff" 
        stroke-width="2"
        opacity="1"
        fill="none"
        stroke-linecap="round" />
  <path id="segment-100-101"
        d="M 3313.6 2132 A 463.89827904282333 463.89827904282333 0 0 1 3456.16 2151.8"
        stroke="#ffffff" 
        stroke-width="2"
        opacity="1"
        fill="none"
        stroke-linecap="round" />
  <path id="segment-98-101"
        d="M 3451.92 2169 A 9.645758612559547 9.645758612559547 0 0 0 3456.16 2151.8"
        stroke="#ffffff" 
        stroke-width="2"
        opacity="1"
        fill="none"
        stroke-linecap="round" />
  <path id="segment-99-102"
        d="M 2391 2073 L 1198.64 2073.16"
        stroke="#ffffff" 
        stroke-width="2"
        opacity="1"
        fill="none"
        stroke-linecap="round" />
  <path id="segment-100-103"
        d="M 3313.6 2132 L 1189.88 2135.96"
        stroke="#ffffff" 
        stroke-width="2"
        opacity="1"
        fill="none"
        stroke-linecap="round" />
  <path id="segment-102-105"
        d="M 1198.64 2073.16 A 721.2439848482405 721.2439848482405 0 0 0 946.76 2118.12"
        stroke="#ffffff" 
        stroke-width="2"
        opacity="1"
        fill="none"
        stroke-linecap="round" />
  <path id="segment-36-104"
        d="M -594 2169 L 723.52 2169"
        stroke="#ffffff" 
        stroke-width="2"
        opacity="1"
        fill="none"
        stroke-linecap="round" />
  <path id="segment-99-106"
        d="M 2391 2073 L 2391 1998"
        stroke="#333333" 
        stroke-width="2"
        opacity="1"
        fill="none"
        stroke-linecap="round" />
  <path id="segment-108-107"
        d="M 1361 2073 L 1361 1998"
        stroke="#333333" 
        stroke-width="2"
        opacity="1"
        fill="none"
        stroke-linecap="round" />
  <path id="segment-109-110"
        d="M 2288 1998 L 2288 2073"
        stroke="#333333" 
        stroke-width="2"
        opacity="1"
        fill="none"
        stroke-linecap="round" />
  <path id="segment-111-112"
        d="M 2185 1998 L 2185 2073"
        stroke="#333333" 
        stroke-width="2"
        opacity="1"
        fill="none"
        stroke-linecap="round" />
  <path id="segment-113-114"
        d="M 2082 1998 L 2082 2073"
        stroke="#333333" 
        stroke-width="2"
        opacity="1"
        fill="none"
        stroke-linecap="round" />
  <path id="segment-115-116"
        d="M 1670 1998 L 1670 2073"
        stroke="#333333" 
        stroke-width="2"
        opacity="1"
        fill="none"
        stroke-linecap="round" />
  <path id="segment-117-118"
        d="M 1979 1998 L 1979 2073"
        stroke="#333333" 
        stroke-width="2"
        opacity="1"
        fill="none"
        stroke-linecap="round" />
  <path id="segment-119-120"
        d="M 1464 1998 L 1464 2073"
        stroke="#333333" 
        stroke-width="2"
        opacity="1"
        fill="none"
        stroke-linecap="round" />
  <path id="segment-121-122"
        d="M 1567 1998 L 1567 2073"
        stroke="#333333" 
        stroke-width="2"
        opacity="1"
        fill="none"
        stroke-linecap="round" />
  <path id="segment-104-105"
        d="M 723.52 2169 A 656.2694152637205 656.2694152637205 0 0 0 946.76 2118.12"
        stroke="#ffffff" 
        stroke-width="2"
        opacity="1"
        fill="none"
        stroke-linecap="round" />
  <path id="segment-123-124"
        d="M 1190 2157 L 3315 2152"
        stroke="#009245" 
        stroke-width="2"
        opacity="1"
        fill="none"
        stroke-linecap="round" />
  <path id="segment-125-126"
        d="M 1876 1998 L 1876 2073"
        stroke="#333333" 
        stroke-width="2"
        opacity="1"
        fill="none"
        stroke-linecap="round" />
  <path id="segment-127-128"
        d="M 1776 1998 L 1776 2073"
        stroke="#333333" 
        stroke-width="2"
        opacity="1"
        fill="none"
        stroke-linecap="round" />
  <path id="segment-69-68"
        d="M 1388 2269 A 15 15 0 0 0 1388 2299"
        stroke="#ffffff" 
        stroke-width="2"
        opacity="1"
        fill="none"
        stroke-linecap="round" />
  <path id="segment-71-70"
        d="M 1418 2204 A 15 15 0 0 0 1418 2234"
        stroke="#CE2B37" 
        stroke-width="2"
        opacity="1"
        fill="none"
        stroke-linecap="round" />
  <path id="segment-73-72"
        d="M 1448 2269 A 15 15 0 0 0 1448 2299"
        stroke="#CE2B37" 
        stroke-width="2"
        opacity="1"
        fill="none"
        stroke-linecap="round" />
  <path id="segment-75-74"
        d="M 1478 2204 A 15 15 0 0 0 1478 2234"
        stroke="#CE2B37" 
        stroke-width="2"
        opacity="1"
        fill="none"
        stroke-linecap="round" />
  <path id="segment-77-76"
        d="M 1508 2269 A 15 15 0 0 0 1508 2299"
        stroke="#CE2B37" 
        stroke-width="2"
        opacity="1"
        fill="none"
        stroke-linecap="round" />
  <path id="segment-79-78"
        d="M 1538 2204 A 15 15 0 0 0 1538 2234"
        stroke="#CE2B37" 
        stroke-width="2"
        opacity="1"
        fill="none"
        stroke-linecap="round" />
  <path id="segment-81-80"
        d="M 1568 2269 A 15 15 0 0 0 1568 2299"
        stroke="#CE2B37" 
        stroke-width="2"
        opacity="1"
        fill="none"
        stroke-linecap="round" />
  <path id="segment-83-82"
        d="M 1598 2204 A 15 15 0 0 0 1598 2234"
        stroke="#CE2B37" 
        stroke-width="2"
        opacity="1"
        fill="none"
        stroke-linecap="round" />
  <path id="segment-85-84"
        d="M 1628 2269 A 15 15 0 0 0 1628 2299"
        stroke="#CE2B37" 
        stroke-width="2"
        opacity="1"
        fill="none"
        stroke-linecap="round" />
  <path id="segment-87-86"
        d="M 1658 2204 A 15 15 0 0 0 1658 2234"
        stroke="#CE2B37" 
        stroke-width="2"
        opacity="1"
        fill="none"
        stroke-linecap="round" />
  <path id="segment-91-90"
        d="M 1718 2204 A 15 15 0 0 0 1718 2234"
        stroke="#CE2B37" 
        stroke-width="2"
        opacity="1"
        fill="none"
        stroke-linecap="round" />
  <path id="segment-89-88"
        d="M 1688 2269 A 15 15 0 0 0 1688 2299"
        stroke="#CE2B37" 
        stroke-width="2"
        opacity="1"
        fill="none"
        stroke-linecap="round" />
  <path id="segment-130-129"
        d="M 1747 2269 A 15 15 0 0 0 1747 2299"
        stroke="#CE2B37" 
        stroke-width="2"
        opacity="1"
        fill="none"
        stroke-linecap="round" />
  <path id="segment-132-131"
        d="M 1777 2204 A 15 15 0 0 0 1777 2234"
        stroke="#CE2B37" 
        stroke-width="2"
        opacity="1"
        fill="none"
        stroke-linecap="round" />
  <path id="segment-134-133"
        d="M 1807 2269 A 15 15 0 0 0 1807 2299"
        stroke="#CE2B37" 
        stroke-width="2"
        opacity="1"
        fill="none"
        stroke-linecap="round" />
  <path id="segment-136-135"
        d="M 1837 2204 A 15 15 0 0 0 1837 2234"
        stroke="#CE2B37" 
        stroke-width="2"
        opacity="1"
        fill="none"
        stroke-linecap="round" />
  <path id="segment-138-137"
        d="M 1867 2269 A 15 15 0 0 0 1867 2299"
        stroke="#CE2B37" 
        stroke-width="2"
        opacity="1"
        fill="none"
        stroke-linecap="round" />
  <path id="segment-140-139"
        d="M 1897 2204 A 15 15 0 0 0 1897 2234"
        stroke="#CE2B37" 
        stroke-width="2"
        opacity="1"
        fill="none"
        stroke-linecap="round" />
  <path id="segment-144-143"
        d="M 1957 2204 A 15 15 0 0 0 1957 2234"
        stroke="#CE2B37" 
        stroke-width="2"
        opacity="1"
        fill="none"
        stroke-linecap="round" />
  <path id="segment-142-141"
        d="M 1927 2269 A 15 15 0 0 0 1927 2299"
        stroke="#CE2B37" 
        stroke-width="2"
        opacity="1"
        fill="none"
        stroke-linecap="round" />
  <path id="segment-145-146"
        d="M -58 2169 L -58 2334"
        stroke="#ffffff" 
        stroke-width="2"
        opacity="1"
        fill="none"
        stroke-linecap="round" />
  <path id="segment-147-148"
        d="M -58 2250 L 725 2248"
        stroke="#ffffff" 
        stroke-width="2"
        opacity="1"
        fill="none"
        stroke-linecap="round" />
  <path id="segment-148-149"
        d="M 725 2248 A 577.3931347384615 577.3931347384615 0 0 0 1001 2169"
        stroke="#ffffff" 
        stroke-width="2"
        opacity="1"
        fill="none"
        stroke-linecap="round" />
  <path id="segment-103-149"
        d="M 1189.88 2135.96 A 578.020744684024 578.020744684024 0 0 0 1001 2169"
        stroke="#ffffff" 
        stroke-width="2"
        opacity="1"
        fill="none"
        stroke-linecap="round" />
  <path id="segment-149-1"
        d="M 1001 2169 L 3310 2169"
        stroke="#ffffff" 
        stroke-width="2"
        opacity="1"
        fill="none"
        stroke-linecap="round" />
  <path id="segment-10-152"
        d="M -2246 -360 A 957.0030291041836 957.0030291041836 0 0 1 -2594 -793"
        stroke="#0A36AF" 
        stroke-width="2"
        opacity="1"
        fill="none"
        stroke-linecap="round" />
  <path id="segment-12-152"
        d="M -2860 -1542 L -2594 -793"
        stroke="#ffffff" 
        stroke-width="2"
        opacity="1"
        fill="none"
        stroke-linecap="round" />
  <path id="segment-13-153"
        d="M -3031 -1507 L -2791 -846"
        stroke="#ffffff" 
        stroke-width="2"
        opacity="1"
        fill="none"
        stroke-linecap="round" />
  <path id="segment-153-11"
        d="M -2791 -846 A 1393.4702957499944 1393.4702957499944 0 0 0 -2314 -216"
        stroke="#ffffff" 
        stroke-width="2"
        opacity="1"
        fill="none"
        stroke-linecap="round" />
  <path id="segment-9-154"
        d="M -199.23308799999995 1044.40288 A 65.14448226820821 65.14448226820821 0 0 0 -118 1040"
        stroke="#0A36AF" 
        stroke-width="2"
        opacity="1"
        fill="none"
        stroke-linecap="round" />
  <path id="segment-8-155"
        d="M -271.8956800000001 1176.40288 A 195.34853947513665 195.34853947513665 0 0 0 -13 1146"
        stroke="#ffffff" 
        stroke-width="2"
        opacity="1"
        fill="none"
        stroke-linecap="round" />
  <path id="segment-155-156"
        d="M -13 1146 L 63 1058"
        stroke="#ffffff" 
        stroke-width="2"
        opacity="1"
        fill="none"
        stroke-linecap="round" />
  <path id="segment-156-157"
        d="M 63 1058 A 292.82827803414966 292.82827803414966 0 0 1 561 1254"
        stroke="#0A36AF" 
        stroke-width="2"
        opacity="1"
        fill="none"
        stroke-linecap="round" />
  <path id="segment-157-5"
        d="M 561 1254 A 146.61501921288473 146.61501921288473 0 0 0 707 1402"
        stroke="#ffffff" 
        stroke-width="2"
        opacity="1"
        fill="none"
        stroke-linecap="round" />
  <path id="segment-154-158"
        d="M -118 1040 L -27 946"
        stroke="#ffffff" 
        stroke-width="2"
        opacity="1"
        fill="none"
        stroke-linecap="round" />
  <path id="segment-158-7"
        d="M -27 946 A 425.0143614021558 425.0143614021558 0 0 1 716 1199"
        stroke="#ffffff" 
        stroke-width="2"
        opacity="1"
        fill="none"
        stroke-linecap="round" />
  <path id="segment-159-2"
        d="M 3801 2258 A 808.8761812397269 808.8761812397269 0 0 0 4054.8899839999995 2126.233088"
        stroke="#ffffff" 
        stroke-width="2"
        opacity="1"
        fill="none"
        stroke-linecap="round" />
  <path id="segment-0-159"
        d="M 3330 2334 A 1701.2962352202253 1701.2962352202253 0 0 0 3801 2258"
        stroke="#ffffff" 
        stroke-width="2"
        opacity="1"
        fill="none"
        stroke-linecap="round" />
  <path id="segment-160-161"
        d="M 721 2140 L -426 2140"
        stroke="#009245" 
        stroke-width="2"
        opacity="1"
        fill="none"
        stroke-linecap="round" />
  <path id="segment-42-161"
        d="M -432.0522850971811 2094.49097728 A 23.154119090332138 23.154119090332138 0 0 0 -426 2140"
        stroke="#009245" 
        stroke-width="2"
        opacity="1"
        fill="none"
        stroke-linecap="round" />
  <path id="segment-45-41"
        d="M -3034.2607257600002 1927.20772864 A 561.3964080737895 561.3964080737895 0 0 0 -2492.1345867776 2413"
        stroke="#009245" 
        stroke-width="2"
        opacity="1"
        fill="none"
        stroke-linecap="round" />
  <path id="segment-150-151"
        d="M -1130 2230 L -804 2230"
        stroke="#1E1E1E" 
        stroke-width="2"
        opacity="1"
        fill="none"
        stroke-linecap="round" />
  <path id="segment-162-44"
        d="M -1524 2144 L -2039 2144"
        stroke="#009245" 
        stroke-width="2"
        opacity="1"
        fill="none"
        stroke-linecap="round" />
  <path id="segment-52-53"
        d="M -4168 -1128 A 200.30027847870622 200.30027847870622 0 0 1 -4048 -1385"
        stroke="#009245" 
        stroke-width="2"
        opacity="1"
        fill="none"
        stroke-linecap="round" />
  <path id="segment-54-56"
        d="M -3246 -1597 A 169.21088229357483 169.21088229357483 0 0 1 -3051 -1496"
        stroke="#009245" 
        stroke-width="2"
        opacity="1"
        fill="none"
        stroke-linecap="round" />
  <path id="segment-51-55"
        d="M -4415.8225408 -1158.4077900799998 A 841.7777466600676 841.7777466600676 0 0 1 -2839.55118186125 -1748.060961073671"
        stroke="#009245" 
        stroke-width="2"
        opacity="1"
        fill="none"
        stroke-linecap="round" />
  <path id="segment-55-163"
        d="M -2839.55118186125 -1748.060961073671 L -2571 -802"
        stroke="#015227" 
        stroke-width="2"
        opacity="1"
        fill="none"
        stroke-linecap="round" />
  <path id="segment-56-164"
        d="M -3051 -1496 L -2825 -844"
        stroke="#015227" 
        stroke-width="2"
        opacity="1"
        fill="none"
        stroke-linecap="round" />
  <path id="segment-163-57"
        d="M -2571 -802 A 832.2567497956068 832.2567497956068 0 0 0 -2232.86758656 -374.88596224"
        stroke="#009245" 
        stroke-width="2"
        opacity="1"
        fill="none"
        stroke-linecap="round" />
  <path id="segment-164-58"
        d="M -2825 -844 A 1317.7207294603174 1317.7207294603174 0 0 0 -2331.40288 -188.25971200000004"
        stroke="#015227" 
        stroke-width="2"
        opacity="1"
        fill="none"
        stroke-linecap="round" />
  <path id="segment-166-167"
        d="M 801 1130 A 102.63017965138947 102.63017965138947 0 0 0 906 1219"
        stroke="#009245" 
        stroke-width="2"
        opacity="1"
        fill="none"
        stroke-linecap="round" />
  <path id="segment-167-168"
        d="M 906 1219 L 4284 1213"
        stroke="#015227" 
        stroke-width="2"
        opacity="1"
        fill="none"
        stroke-linecap="round" />
  <path id="segment-165-169"
        d="M 3892 1431 A 369.30984311286926 369.30984311286926 0 0 1 4152 1533"
        stroke="#015227" 
        stroke-width="2"
        opacity="1"
        fill="none"
        stroke-linecap="round" />
  <path id="segment-169-170"
        d="M 4152 1533 A 129.43122831453817 129.43122831453817 0 0 1 4172 1698"
        stroke="#015227" 
        stroke-width="2"
        opacity="1"
        fill="none"
        stroke-linecap="round" />
  <path id="segment-170-171"
        d="M 4172 1698 A 1538.9455374422812 1538.9455374422812 0 0 1 3879 2006"
        stroke="#009245" 
        stroke-width="2"
        opacity="1"
        fill="none"
        stroke-linecap="round" />
  <path id="segment-99-172"
        d="M 2391 2073 L 3322 2067"
        stroke="#ffffff" 
        stroke-width="2"
        opacity="1"
        fill="none"
        stroke-linecap="round" />
  <path id="segment-172-97"
        d="M 3322 2067 A 2618.2962153107255 2618.2962153107255 0 0 1 3741.92 2105.12"
        stroke="#ffffff" 
        stroke-width="2"
        opacity="1"
        fill="none"
        stroke-linecap="round" />
  <path id="segment-168-65"
        d="M 4284 1213 A 520.1305408526345 520.1305408526345 0 0 1 4497.231631871999 2205.5077590318133"
        stroke="#009245" 
        stroke-width="2"
        opacity="1"
        fill="none"
        stroke-linecap="round" />
  <path id="segment-171-173"
        d="M 3879 2006 A 370.036985878007 370.036985878007 0 0 1 3791 2058"
        stroke="#009245" 
        stroke-width="2"
        opacity="1"
        fill="none"
        stroke-linecap="round" />
  <path id="segment-37-39"
        d="M -690 2334 L -1480 2334"
        stroke="#1E1E1E" 
        stroke-width="2"
        opacity="1"
        fill="none"
        stroke-linecap="round" />
  <path id="segment-37-31"
        d="M -690 2334 A 128.14882281742692 128.14882281742692 0 0 1 -799 2164"
        stroke="#ffffff" 
        stroke-width="2"
        opacity="1"
        fill="none"
        stroke-linecap="round" />
  <path id="segment-92-39"
        d="M -1024 2152 A 744.7035640861233 744.7035640861233 0 0 1 -1480 2334"
        stroke="#ffffff" 
        stroke-width="2"
        opacity="1"
        fill="none"
        stroke-linecap="round" />
  <path id="segment-4-66"
        d="M 3889.0288 1248 A 558.8453176977469 558.8453176977469 0 0 1 4318.288512 1444.8302079999999"
        stroke="#ffffff" 
        stroke-width="2"
        opacity="1"
        fill="none"
        stroke-linecap="round" />
  <path id="segment-175-176"
        d="M -834 2334 L -834 2285"
        stroke="#009245" 
        stroke-width="2"
        opacity="1"
        fill="none"
        stroke-linecap="round" />
  <path id="segment-177-178"
        d="M -901 2230 L -901 2285"
        stroke="#ffffff" 
        stroke-width="2"
        opacity="1"
        fill="none"
        stroke-linecap="round" />
  <path id="segment-174-179"
        d="M -979 2334 L -979 2285"
        stroke="#CE2B37" 
        stroke-width="2"
        opacity="1"
        fill="none"
        stroke-linecap="round" />
  <path id="segment-180-181"
        d="M -1041 2230 L -1041 2285"
        stroke="#ffffff" 
        stroke-width="2"
        opacity="1"
        fill="none"
        stroke-linecap="round" />
  <path id="segment-182-183"
        d="M -1146 2334 L -1146 2285"
        stroke="#009245" 
        stroke-width="2"
        opacity="1"
        fill="none"
        stroke-linecap="round" />
  <path id="segment-162-184"
        d="M -1524 2144 A 41.04875150354758 41.04875150354758 0 0 0 -1488 2126"
        stroke="#009245" 
        stroke-width="2"
        opacity="1"
        fill="none"
        stroke-linecap="round" />
  <path id="segment-184-43"
        d="M -1488 2126 A 1229.469336998565 1229.469336998565 0 0 1 -489.90492579661736 1672.265158109718"
        stroke="#009245" 
        stroke-width="2"
        opacity="1"
        fill="none"
        stroke-linecap="round" />
  <path id="segment-61-185"
        d="M 3565.5152621567995 2413 L -690 2413"
        stroke="#015227" 
        stroke-width="2"
        opacity="1"
        fill="none"
        stroke-linecap="round" />
  <path id="segment-41-186"
        d="M -2492.1345867776 2413 L -1480 2413"
        stroke="#009245" 
        stroke-width="2"
        opacity="1"
        fill="none"
        stroke-linecap="round" />
  <path id="segment-186-39"
        d="M -1480 2413 L -1480 2334"
        stroke="#009245" 
        stroke-width="2"
        opacity="1"
        fill="none"
        stroke-linecap="round" />
  <path id="segment-37-185"
        d="M -690 2334 L -690 2413"
        stroke="#009245" 
        stroke-width="2"
        opacity="1"
        fill="none"
        stroke-linecap="round" />
  <path id="segment-47-187"
        d="M -3256.54992128 287.61309184000015 A 44.08697321765064 44.08697321765064 0 0 0 -3307 252"
        stroke="#009245" 
        stroke-width="2"
        opacity="1"
        fill="none"
        stroke-linecap="round" />
  <path id="segment-187-188"
        d="M -3307 252 L -3661 384"
        stroke="#009245" 
        stroke-width="2"
        opacity="1"
        fill="none"
        stroke-linecap="round" />
  <path id="segment-188-49"
        d="M -3661 384 A 84.75016230770872 84.75016230770872 0 0 1 -3762.8880128 334.53769728000043"
        stroke="#009245" 
        stroke-width="2"
        opacity="1"
        fill="none"
        stroke-linecap="round" />
  <path id="segment-50-189"
        d="M -3756.2025299968 -279.3281419263999 A 52.793507302168194 52.793507302168194 0 0 0 -3701 -250"
        stroke="#009245" 
        stroke-width="2"
        opacity="1"
        fill="none"
        stroke-linecap="round" />
  <path id="segment-48-190"
        d="M -3130 -318 A 47.75212360885903 47.75212360885903 0 0 0 -3184 -360"
        stroke="#009245" 
        stroke-width="2"
        opacity="1"
        fill="none"
        stroke-linecap="round" />
  <path id="segment-190-189"
        d="M -3184 -360 L -3701 -250"
        stroke="#009245" 
        stroke-width="2"
        opacity="1"
        fill="none"
        stroke-linecap="round" />
  <path id="segment-191-192"
        d="M -323 1196 A 255.1061809081963 255.1061809081963 0 0 0 5 1157"
        stroke="#009245" 
        stroke-width="2"
        opacity="1"
        fill="none"
        stroke-linecap="round" />
  <path id="segment-192-193"
        d="M 5 1157 L 73 1076"
        stroke="#009245" 
        stroke-width="2"
        opacity="1"
        fill="none"
        stroke-linecap="round" />
  <path id="segment-193-194"
        d="M 73 1076 A 273.36942485630635 273.36942485630635 0 0 1 540 1269"
        stroke="#009245" 
        stroke-width="2"
        opacity="1"
        fill="none"
        stroke-linecap="round" />
  <path id="segment-194-195"
        d="M 540 1269 A 155.59201558282487 155.59201558282487 0 0 0 696 1437"
        stroke="#009245" 
        stroke-width="2"
        opacity="1"
        fill="none"
        stroke-linecap="round" />
  <path id="segment-58-191"
        d="M -2331.40288 -188.25971200000004 L -323 1196"
        stroke="#015227" 
        stroke-width="2"
        opacity="1"
        fill="none"
        stroke-linecap="round" />
  <path id="segment-195-165"
        d="M 696 1437 L 3892 1431"
        stroke="#015227" 
        stroke-width="2"
        opacity="1"
        fill="none"
        stroke-linecap="round" />
  <path id="segment-60-166"
        d="M 108.68406815503624 732.9561856230575 A 497.34369452054614 497.34369452054614 0 0 1 801 1130"
        stroke="#009245" 
        stroke-width="2"
        opacity="1"
        fill="none"
        stroke-linecap="round" />
  <path id="segment-173-196"
        d="M 3791 2058 A 146.9890923495615 146.9890923495615 0 0 1 3691 2054"
        stroke="#009245" 
        stroke-width="2"
        opacity="1"
        fill="none"
        stroke-linecap="round" />
  <path id="segment-196-197"
        d="M 3691 2054 A 1125.6608089367558 1125.6608089367558 0 0 0 3325 1998"
        stroke="#009245" 
        stroke-width="2"
        opacity="1"
        fill="none"
        stroke-linecap="round" />
  <path id="segment-160-198"
        d="M 721 2140 A 170.43339254853993 170.43339254853993 0 0 0 847 2076"
        stroke="#009245" 
        stroke-width="2"
        opacity="1"
        fill="none"
        stroke-linecap="round" />
  <path id="segment-198-199"
        d="M 847 2076 A 221.91443165728936 221.91443165728936 0 0 1 1019 1998"
        stroke="#009245" 
        stroke-width="2"
        opacity="1"
        fill="none"
        stroke-linecap="round" />
  <path id="segment-199-107"
        d="M 1019 1998 L 1361 1998"
        stroke="#009245" 
        stroke-width="2"
        opacity="1"
        fill="none"
        stroke-linecap="round" />
  <path id="segment-107-119"
        d="M 1361 1998 L 1464 1998"
        stroke="#998500" 
        stroke-width="2"
        opacity="1"
        fill="none"
        stroke-linecap="round" />
  <path id="segment-119-121"
        d="M 1464 1998 L 1567 1998"
        stroke="#B45568" 
        stroke-width="2"
        opacity="1"
        fill="none"
        stroke-linecap="round" />
  <path id="segment-121-115"
        d="M 1567 1998 L 1670 1998"
        stroke="#9524FF" 
        stroke-width="2"
        opacity="1"
        fill="none"
        stroke-linecap="round" />
  <path id="segment-115-127"
        d="M 1670 1998 L 1776 1998"
        stroke="#E8D1A1" 
        stroke-width="2"
        opacity="1"
        fill="none"
        stroke-linecap="round" />
  <path id="segment-127-125"
        d="M 1776 1998 L 1876 1998"
        stroke="#C4FF00" 
        stroke-width="2"
        opacity="1"
        fill="none"
        stroke-linecap="round" />
  <path id="segment-125-117"
        d="M 1876 1998 L 1979 1998"
        stroke="#004AC2" 
        stroke-width="2"
        opacity="1"
        fill="none"
        stroke-linecap="round" />
  <path id="segment-117-113"
        d="M 1979 1998 L 2082 1998"
        stroke="#FFBB00" 
        stroke-width="2"
        opacity="1"
        fill="none"
        stroke-linecap="round" />
  <path id="segment-113-111"
        d="M 2082 1998 L 2185 1998"
        stroke="#E4002B" 
        stroke-width="2"
        opacity="1"
        fill="none"
        stroke-linecap="round" />
  <path id="segment-111-109"
        d="M 2185 1998 L 2288 1998"
        stroke="#E0E0E0" 
        stroke-width="2"
        opacity="1"
        fill="none"
        stroke-linecap="round" />
  <path id="segment-109-106"
        d="M 2288 1998 L 2391 1998"
        stroke="#52C4DA" 
        stroke-width="2"
        opacity="1"
        fill="none"
        stroke-linecap="round" />
  <path id="segment-106-200"
        d="M 2391 1998 L 2494 1998"
        stroke="#059988" 
        stroke-width="2"
        opacity="1"
        fill="none"
        stroke-linecap="round" />
  <path id="segment-200-201"
        d="M 2494 1998 L 2494 2073"
        stroke="#333333" 
        stroke-width="2"
        opacity="1"
        fill="none"
        stroke-linecap="round" />
  <path id="segment-200-197"
        d="M 2494 1998 L 3325 1998"
        stroke="#009245" 
        stroke-width="2"
        opacity="1"
        fill="none"
        stroke-linecap="round" />
  <path id="segment-205-204"
        d="M 2023 2204 A 15 15 0 0 0 2023 2234"
        stroke="#CE2B37" 
        stroke-width="2"
        opacity="1"
        fill="none"
        stroke-linecap="round" />
  <path id="segment-203-202"
        d="M 1993 2269 A 15 15 0 0 0 1993 2299"
        stroke="#CE2B37" 
        stroke-width="2"
        opacity="1"
        fill="none"
        stroke-linecap="round" />
  
</svg>