<?xml version="1.0" encoding="UTF-8"?>
<svg xmlns="http://www.w3.org/2000/svg" 
     viewBox="-3366.9 -2575.89731563838 6682.8 4966.767787660559"
     width="6682.8" 
     height="4966.767787660559"
     style="background-color: transparent;">
  
  <!-- Metadata -->
  <title>Sepang F1 International Circuit - By Ximb - NewgenV3 - Haxball Map</title>
  <desc>Generated from Haxball map file</desc>
  
  <!-- Coordinate metadata for frontend -->
  <metadata>
    <coordinates>{"viewBox":"-3366.9 -2575.89731563838 6682.8 4966.767787660559","bounds":{"minX":-2810,"maxX":2759,"minY":-2162,"maxY":1976.9731563838},"padding":0.1,"generated":"2026-06-17T22:16:02.924Z"}</coordinates>
  </metadata>
  
  <!-- Definitions -->
  <defs>
    
    <!-- Arrow marker for direction -->
    <marker id="arrowhead" markerWidth="10" markerHeight="7" 
            refX="9" refY="3.5" orient="auto">
      <polygon points="0 0, 10 3.5, 0 7" fill="rgba(255,255,255,0.5)" />
    </marker>
  </defs>
  
  <!-- Background grid -->
  
  
  <!-- Map segments -->
  <path id="segment-2-1"
        d="M -2294.1910621274 -330.47616987125 A 115.55595587376058 115.55595587376058 0 0 0 -2347 -110"
        stroke="#042a7c" 
        stroke-width="2"
        opacity="1"
        fill="none"
        stroke-linecap="round" />
  <path id="segment-3-4"
        d="M -2022.5073948332 -320.36773062552993 A 51.35745841545664 51.35745841545664 0 0 0 -1943.4173216873 -371.91090460163"
        stroke="#042a7c" 
        stroke-width="2"
        opacity="1"
        fill="none"
        stroke-linecap="round" />
  <path id="segment-6-5"
        d="M -1984.7046696087 -655.44027925053 A 482.8314217427201 482.8314217427201 0 0 1 -1812.8430342271 -401.01596518617"
        stroke="#ffffff" 
        stroke-width="2"
        opacity="1"
        fill="none"
        stroke-linecap="round" />
  <path id="segment-4-7"
        d="M -1943.4173216873 -371.91090460163 A 551.7416286221778 551.7416286221778 0 0 0 -2087.3287336806998 -584.68335792095"
        stroke="#ffffff" 
        stroke-width="2"
        opacity="1"
        fill="none"
        stroke-linecap="round" />
  <path id="segment-8-10"
        d="M -1516.5776290853 -1787.7136051354 L 256.31885744266 -2090.4349328721"
        stroke="#ffffff" 
        stroke-width="2"
        opacity="1"
        fill="none"
        stroke-linecap="round" />
  <path id="segment-9-11"
        d="M -1507.1046770159 -1642.4828406528 L 179.05955371748 -1910.73617913"
        stroke="#ffffff" 
        stroke-width="2"
        opacity="1"
        fill="none"
        stroke-linecap="round" />
  <path id="segment-10-12"
        d="M 256.31885744266 -2090.4349328721 A 100.50622361834675 100.50622361834675 0 0 1 375.4553285392 -1999.0004456649003"
        stroke="#ffffff" 
        stroke-width="2"
        opacity="1"
        fill="none"
        stroke-linecap="round" />
  <path id="segment-11-13"
        d="M 179.05955371748 -1910.73617913 A 43.08834692584504 43.08834692584504 0 0 1 229.82630165735 -1871.2133514395"
        stroke="#042a7c" 
        stroke-width="2"
        opacity="1"
        fill="none"
        stroke-linecap="round" />
  <path id="segment-15-12"
        d="M 442.63522730775 -1000.8024530105299 A 19483.81954649452 19483.81954649452 0 0 0 375.4553285392 -1999.0004456649003"
        stroke="#ffffff" 
        stroke-width="2"
        opacity="1"
        fill="none"
        stroke-linecap="round" />
  <path id="segment-14-13"
        d="M 277.04094009442 -981.5183352364002 L 229.82630165735 -1871.2133514395"
        stroke="#ffffff" 
        stroke-width="2"
        opacity="1"
        fill="none"
        stroke-linecap="round" />
  <path id="segment-20-19"
        d="M 2596.4292151473 31.254093392174 L 1922.7942477081 -844.46697447595"
        stroke="#ffffff" 
        stroke-width="2"
        opacity="1"
        fill="none"
        stroke-linecap="round" />
  <path id="segment-21-18"
        d="M 2378.8994444612 30.931510755823 L 1761.6878009935 -787.15233727342"
        stroke="#ffffff" 
        stroke-width="2"
        opacity="1"
        fill="none"
        stroke-linecap="round" />
  <path id="segment-25-23"
        d="M 2481.1681787595 562.4143760994 L 2606.3743767164 98.10222647444999"
        stroke="#ffffff" 
        stroke-width="2"
        opacity="1"
        fill="none"
        stroke-linecap="round" />
  <path id="segment-24-22"
        d="M 2315.4054035366 415.42256905644 A 5552.186503415588 5552.186503415588 0 0 0 2395.0438609916 109.22604919598001"
        stroke="#ffffff" 
        stroke-width="2"
        opacity="1"
        fill="none"
        stroke-linecap="round" />
  <path id="segment-28-26"
        d="M 369.46772939099003 686.52008024432 L 2431.0267448532 605.82802197452"
        stroke="#ffffff" 
        stroke-width="2"
        opacity="1"
        fill="none"
        stroke-linecap="round" />
  <path id="segment-29-27"
        d="M 298.600240116 529.4287694823299 L 2270.150815098 448.46772939099"
        stroke="#ffffff" 
        stroke-width="2"
        opacity="1"
        fill="none"
        stroke-linecap="round" />
  <path id="segment-28-31"
        d="M 369.46772939099003 686.52008024432 A 55.797996231850036 55.797996231850036 0 0 0 358.23869757099 792.12752322447"
        stroke="#042a7c" 
        stroke-width="2"
        opacity="1"
        fill="none"
        stroke-linecap="round" />
  <path id="segment-29-30"
        d="M 298.600240116 529.4287694823299 A 203.96841340625235 203.96841340625235 0 0 0 255.58436159374003 928.25754637189"
        stroke="#ffffff" 
        stroke-width="2"
        opacity="1"
        fill="none"
        stroke-linecap="round" />
  <path id="segment-31-32"
        d="M 358.23869757099 792.12752322447 L 819.4791401499 979.54687447904"
        stroke="#ffffff" 
        stroke-width="2"
        opacity="1"
        fill="none"
        stroke-linecap="round" />
  <path id="segment-30-33"
        d="M 255.58436159374003 928.25754637189 L 726.55631739755 1124.39352242199"
        stroke="#ffffff" 
        stroke-width="2"
        opacity="1"
        fill="none"
        stroke-linecap="round" />
  <path id="segment-34-33"
        d="M 827.94490170049 1280.73322119669 A 180.23302959534544 180.23302959534544 0 0 0 726.55631739755 1124.39352242199"
        stroke="#042a7c" 
        stroke-width="2"
        opacity="1"
        fill="none"
        stroke-linecap="round" />
  <path id="segment-35-32"
        d="M 1007.21114842123 1320.02155921096 A 340.2205580737339 340.2205580737339 0 0 0 819.4791401499 979.54687447904"
        stroke="#ffffff" 
        stroke-width="2"
        opacity="1"
        fill="none"
        stroke-linecap="round" />
  <path id="segment-37-35"
        d="M 749.88485293657 1976.9731563838 A 1082.382705992969 1082.382705992969 0 0 0 1007.21114842123 1320.02155921096"
        stroke="#ffffff" 
        stroke-width="2"
        opacity="1"
        fill="none"
        stroke-linecap="round" />
  <path id="segment-36-34"
        d="M 626.65433597724 1849.8525638095 A 788.296615112662 788.296615112662 0 0 0 827.94490170049 1280.73322119669"
        stroke="#042a7c" 
        stroke-width="2"
        opacity="1"
        fill="none"
        stroke-linecap="round" />
  <path id="segment-39-37"
        d="M 375.32382025245 1974.774396469 A 255.97074079712274 255.97074079712274 0 0 0 749.88485293657 1976.9731563838"
        stroke="#ffffff" 
        stroke-width="2"
        opacity="1"
        fill="none"
        stroke-linecap="round" />
  <path id="segment-38-36"
        d="M 498.47940001848997 1857.3949952159 A 84.89024782002755 84.89024782002755 0 0 0 626.65433597724 1849.8525638095"
        stroke="#042a7c" 
        stroke-width="2"
        opacity="1"
        fill="none"
        stroke-linecap="round" />
  <path id="segment-41-38"
        d="M -242.7769087373 833.91436992672 L 498.47940001848997 1857.3949952159"
        stroke="#ffffff" 
        stroke-width="2"
        opacity="1"
        fill="none"
        stroke-linecap="round" />
  <path id="segment-40-39"
        d="M -406.66896453802 921.82677201304 L 375.32382025245 1974.774396469"
        stroke="#ffffff" 
        stroke-width="2"
        opacity="1"
        fill="none"
        stroke-linecap="round" />
  <path id="segment-42-41"
        d="M -819.0044430726 780.30245918322 A 377.28562758376523 377.28562758376523 0 0 1 -242.7769087373 833.91436992672"
        stroke="#ffffff" 
        stroke-width="2"
        opacity="1"
        fill="none"
        stroke-linecap="round" />
  <path id="segment-43-40"
        d="M -736.3421616615401 913.32925341794 A 228.92445009215555 228.92445009215555 0 0 1 -406.66896453802 921.82677201304"
        stroke="#042a7c" 
        stroke-width="2"
        opacity="1"
        fill="none"
        stroke-linecap="round" />
  <path id="segment-45-43"
        d="M -1431.47515508761 1254.2612592202 A 1177.2444867978907 1177.2444867978907 0 0 0 -736.3421616615401 913.32925341794"
        stroke="#ffffff" 
        stroke-width="2"
        opacity="1"
        fill="none"
        stroke-linecap="round" />
  <path id="segment-44-42"
        d="M -1446.04761087601 1079.98558192632 A 1020.6284459866833 1020.6284459866833 0 0 0 -819.0044430726 780.30245918322"
        stroke="#042a7c" 
        stroke-width="2"
        opacity="1"
        fill="none"
        stroke-linecap="round" />
  <path id="segment-46-48"
        d="M -2035.3669510197 728.33596123565 A 60.186653996276824 60.186653996276824 0 0 1 -1985.2721625873 645.9072784172299"
        stroke="#042a7c" 
        stroke-width="2"
        opacity="1"
        fill="none"
        stroke-linecap="round" />
  <path id="segment-47-49"
        d="M -2203.2897737721 773.93323107299 A 214.57134901644082 214.57134901644082 0 0 1 -2024.8247671364998 475.00966575098"
        stroke="#ffffff" 
        stroke-width="2"
        opacity="1"
        fill="none"
        stroke-linecap="round" />
  <path id="segment-49-50"
        d="M -2024.8247671364998 475.00966575098 L 1507.5538051292 131.951609518204"
        stroke="#ffffff" 
        stroke-width="2"
        opacity="1"
        fill="none"
        stroke-linecap="round" />
  <path id="segment-48-51"
        d="M -1985.2721625873 645.9072784172299 L 1557.9426369554 294.54564920831"
        stroke="#ffffff" 
        stroke-width="2"
        opacity="1"
        fill="none"
        stroke-linecap="round" />
  <path id="segment-50-53"
        d="M 1507.5538051292 131.951609518204 A 46.86529659315005 46.86529659315005 0 0 0 1496 39"
        stroke="#042a7c" 
        stroke-width="2"
        opacity="1"
        fill="none"
        stroke-linecap="round" />
  <path id="segment-54-55"
        d="M 188 11 A 15 15 0 0 1 188 -19"
        stroke="#ffffff" 
        stroke-width="2"
        opacity="1"
        fill="none"
        stroke-linecap="round" />
  <path id="segment-56-57"
        d="M 218 -49 A 15.109791035086054 15.109791035086054 0 0 1 218 -79"
        stroke="#ffffff" 
        stroke-width="2"
        opacity="1"
        fill="none"
        stroke-linecap="round" />
  <path id="segment-0-53"
        d="M -2381 39 L 1496 39"
        stroke="#ffffff" 
        stroke-width="2"
        opacity="1"
        fill="none"
        stroke-linecap="round" />
  <path id="segment-58-59"
        d="M 126 -111 L 126 39"
        stroke="#ffffff" 
        stroke-width="2"
        opacity="1"
        fill="none"
        stroke-linecap="round" />
  <path id="segment-60-61"
        d="M 248 11 A 15 15 0 0 1 248 -19"
        stroke="#ffffff" 
        stroke-width="2"
        opacity="1"
        fill="none"
        stroke-linecap="round" />
  <path id="segment-62-63"
        d="M 278 -49 A 15 15 0 0 1 278 -79"
        stroke="#ffffff" 
        stroke-width="2"
        opacity="1"
        fill="none"
        stroke-linecap="round" />
  <path id="segment-64-65"
        d="M 308 11 A 15 15 0 0 1 308 -19"
        stroke="#ffffff" 
        stroke-width="2"
        opacity="1"
        fill="none"
        stroke-linecap="round" />
  <path id="segment-66-67"
        d="M 338 -49 A 15 15 0 0 1 338 -79"
        stroke="#ffffff" 
        stroke-width="2"
        opacity="1"
        fill="none"
        stroke-linecap="round" />
  <path id="segment-68-69"
        d="M 368 11 A 15 15 0 0 1 368 -19"
        stroke="#ffffff" 
        stroke-width="2"
        opacity="1"
        fill="none"
        stroke-linecap="round" />
  <path id="segment-70-71"
        d="M 398 -49 A 15 15 0 0 1 398 -79"
        stroke="#ffffff" 
        stroke-width="2"
        opacity="1"
        fill="none"
        stroke-linecap="round" />
  <path id="segment-72-73"
        d="M 428 11 A 15 15 0 0 1 428 -19"
        stroke="#ffffff" 
        stroke-width="2"
        opacity="1"
        fill="none"
        stroke-linecap="round" />
  <path id="segment-74-75"
        d="M 458 -49 A 15 15 0 0 1 458 -79"
        stroke="#ffffff" 
        stroke-width="2"
        opacity="1"
        fill="none"
        stroke-linecap="round" />
  <path id="segment-76-77"
        d="M 488 11 A 15 15 0 0 1 488 -19"
        stroke="#ffffff" 
        stroke-width="2"
        opacity="1"
        fill="none"
        stroke-linecap="round" />
  <path id="segment-78-79"
        d="M 518 -49 A 15 15 0 0 1 518 -79"
        stroke="#ffffff" 
        stroke-width="2"
        opacity="1"
        fill="none"
        stroke-linecap="round" />
  <path id="segment-80-82"
        d="M 1228 -133 L -262 -133"
        stroke="#ffffff" 
        stroke-width="2"
        opacity="1"
        fill="none"
        stroke-linecap="round" />
  <path id="segment-1-85"
        d="M -2347 -110 L -1156 -111"
        stroke="#ffffff" 
        stroke-width="2"
        opacity="1"
        fill="none"
        stroke-linecap="round" />
  <path id="segment-84-52"
        d="M -423 -111 L 1519 -111"
        stroke="#ffffff" 
        stroke-width="2"
        opacity="1"
        fill="none"
        stroke-linecap="round" />
  <path id="segment-87-88"
        d="M -1445 -112 L -1445 40"
        stroke="#ffffff" 
        stroke-width="2"
        opacity="1"
        fill="none"
        stroke-linecap="round" />
  <path id="segment-17-89"
        d="M 1411.4783852349 -848.05184346151 A 126.07943645256957 126.07943645256957 0 0 1 1538 -918"
        stroke="#042a7c" 
        stroke-width="2"
        opacity="1"
        fill="none"
        stroke-linecap="round" />
  <path id="segment-89-18"
        d="M 1538 -918 A 323.3410745671277 323.3410745671277 0 0 1 1761.6878009935 -787.15233727342"
        stroke="#042a7c" 
        stroke-width="2"
        opacity="1"
        fill="none"
        stroke-linecap="round" />
  <path id="segment-16-90"
        d="M 1276.26349927456 -926.05853893385 A 246.8299323334574 246.8299323334574 0 0 1 1543 -1071"
        stroke="#ffffff" 
        stroke-width="2"
        opacity="1"
        fill="none"
        stroke-linecap="round" />
  <path id="segment-90-19"
        d="M 1543 -1071 A 571.9023478188678 571.9023478188678 0 0 1 1922.7942477081 -844.46697447595"
        stroke="#ffffff" 
        stroke-width="2"
        opacity="1"
        fill="none"
        stroke-linecap="round" />
  <path id="segment-6-91"
        d="M -1984.7046696087 -655.44027925053 A 344.7267902001585 344.7267902001585 0 0 1 -2103 -845"
        stroke="#042a7c" 
        stroke-width="2"
        opacity="1"
        fill="none"
        stroke-linecap="round" />
  <path id="segment-7-92"
        d="M -2087.3287336806998 -584.68335792095 A 600.1914688546296 600.1914688546296 0 0 1 -2237 -828"
        stroke="#ffffff" 
        stroke-width="2"
        opacity="1"
        fill="none"
        stroke-linecap="round" />
  <path id="segment-93-94"
        d="M 554 11 A 15 15 0 0 1 554 -19"
        stroke="#ffffff" 
        stroke-width="2"
        opacity="1"
        fill="none"
        stroke-linecap="round" />
  <path id="segment-95-96"
        d="M 584 -49 A 15 15 0 0 1 584 -79"
        stroke="#ffffff" 
        stroke-width="2"
        opacity="1"
        fill="none"
        stroke-linecap="round" />
  <path id="segment-97-98"
        d="M 614 11 A 15 15 0 0 1 614 -19"
        stroke="#ffffff" 
        stroke-width="2"
        opacity="1"
        fill="none"
        stroke-linecap="round" />
  <path id="segment-99-100"
        d="M 644 -49 A 15 15 0 0 1 644 -79"
        stroke="#ffffff" 
        stroke-width="2"
        opacity="1"
        fill="none"
        stroke-linecap="round" />
  <path id="segment-101-102"
        d="M 674 11 A 15 15 0 0 1 674 -19"
        stroke="#ffffff" 
        stroke-width="2"
        opacity="1"
        fill="none"
        stroke-linecap="round" />
  <path id="segment-103-104"
        d="M 704 -49 A 15 15 0 0 1 704 -79"
        stroke="#ffffff" 
        stroke-width="2"
        opacity="1"
        fill="none"
        stroke-linecap="round" />
  <path id="segment-105-106"
        d="M 734 11 A 15 15 0 0 1 734 -19"
        stroke="#ffffff" 
        stroke-width="2"
        opacity="1"
        fill="none"
        stroke-linecap="round" />
  <path id="segment-107-108"
        d="M 764 -49 A 15 15 0 0 1 764 -79"
        stroke="#ffffff" 
        stroke-width="2"
        opacity="1"
        fill="none"
        stroke-linecap="round" />
  <path id="segment-114-115"
        d="M 2528 640 L 387 707"
        stroke="#FFD100" 
        stroke-width="2"
        opacity="1"
        fill="none"
        stroke-linecap="round" />
  <path id="segment-115-116"
        d="M 387 707 A 37.39723710714559 37.39723710714559 0 0 0 367 777"
        stroke="#FFD100" 
        stroke-width="2"
        opacity="1"
        fill="none"
        stroke-linecap="round" />
  <path id="segment-116-117"
        d="M 367 777 L 925 964"
        stroke="#FFD100" 
        stroke-width="2"
        opacity="1"
        fill="none"
        stroke-linecap="round" />
  <path id="segment-118-119"
        d="M 63 1838 L -423 954"
        stroke="#FFD100" 
        stroke-width="2"
        opacity="1"
        fill="none"
        stroke-linecap="round" />
  <path id="segment-119-120"
        d="M -423 954 A 187.65766897125812 187.65766897125812 0 0 0 -709 925"
        stroke="#FFD100" 
        stroke-width="2"
        opacity="1"
        fill="none"
        stroke-linecap="round" />
  <path id="segment-121-122"
        d="M -2595 497 L 1498 112"
        stroke="#FFD100" 
        stroke-width="2"
        opacity="1"
        fill="none"
        stroke-linecap="round" />
  <path id="segment-109-122"
        d="M 1496 66 A 23.119231198513106 23.119231198513106 0 0 1 1498 112"
        stroke="#FFD100" 
        stroke-width="2"
        opacity="1"
        fill="none"
        stroke-linecap="round" />
  <path id="segment-125-126"
        d="M -1614 -1520 A 84.0863740587648 84.0863740587648 0 0 1 -1550 -1605"
        stroke="#FFD100" 
        stroke-width="2"
        opacity="1"
        fill="none"
        stroke-linecap="round" />
  <path id="segment-126-127"
        d="M -1550 -1605 L -115 -1839"
        stroke="#FFD100" 
        stroke-width="2"
        opacity="1"
        fill="none"
        stroke-linecap="round" />
  <path id="segment-127-128"
        d="M -115 -1839 A 288.0823348561065 288.0823348561065 0 0 1 228 -1587"
        stroke="#FFD100" 
        stroke-width="2"
        opacity="1"
        fill="none"
        stroke-linecap="round" />
  <path id="segment-128-129"
        d="M 228 -1587 L 287 -342"
        stroke="#FFD100" 
        stroke-width="2"
        opacity="1"
        fill="none"
        stroke-linecap="round" />
  <path id="segment-129-130"
        d="M 287 -342 L 1498 -370"
        stroke="#FFD100" 
        stroke-width="2"
        opacity="1"
        fill="none"
        stroke-linecap="round" />
  <path id="segment-131-132"
        d="M 1920 435 L -110 528"
        stroke="#FFD100" 
        stroke-width="2"
        opacity="1"
        fill="none"
        stroke-linecap="round" />
  <path id="segment-133-134"
        d="M 716 1150 A 137.95258822534518 137.95258822534518 0 0 1 808 1286"
        stroke="#FFD100" 
        stroke-width="2"
        opacity="1"
        fill="none"
        stroke-linecap="round" />
  <path id="segment-134-135"
        d="M 808 1286 A 817.2333548404699 817.2333548404699 0 0 1 618 1836"
        stroke="#FFD100" 
        stroke-width="2"
        opacity="1"
        fill="none"
        stroke-linecap="round" />
  <path id="segment-135-136"
        d="M 618 1836 A 69.25724452392406 69.25724452392406 0 0 1 511 1848"
        stroke="#FFD100" 
        stroke-width="2"
        opacity="1"
        fill="none"
        stroke-linecap="round" />
  <path id="segment-136-137"
        d="M 511 1848 L -403 516"
        stroke="#FFD100" 
        stroke-width="2"
        opacity="1"
        fill="none"
        stroke-linecap="round" />
  <path id="segment-137-138"
        d="M -403 516 A 2419.742059952148 2419.742059952148 0 0 0 -1434 888"
        stroke="#FFD100" 
        stroke-width="2"
        opacity="1"
        fill="none"
        stroke-linecap="round" />
  <path id="segment-138-139"
        d="M -1434 888 A 403.47830260298787 403.47830260298787 0 0 1 -2018 724"
        stroke="#FFD100" 
        stroke-width="2"
        opacity="1"
        fill="none"
        stroke-linecap="round" />
  <path id="segment-140-141"
        d="M -262 -118 L 1679 -118"
        stroke="#777777" 
        stroke-width="2"
        opacity="1"
        fill="none"
        stroke-linecap="round" />
  <path id="segment-142-143"
        d="M -1445 -73 L -659 -73"
        stroke="#ffffff" 
        stroke-width="2"
        opacity="1"
        fill="none"
        stroke-linecap="round" />
  <path id="segment-143-84"
        d="M -659 -73 A 719.2875366693372 719.2875366693372 0 0 0 -423 -111"
        stroke="#ffffff" 
        stroke-width="2"
        opacity="1"
        fill="none"
        stroke-linecap="round" />
  <path id="segment-144-145"
        d="M -1040 -111 L -1008 -111"
        stroke="#ffffff" 
        stroke-width="2"
        opacity="1"
        fill="none"
        stroke-linecap="round" />
  <path id="segment-146-147"
        d="M -967 -111 L -935 -111"
        stroke="#ffffff" 
        stroke-width="2"
        opacity="1"
        fill="none"
        stroke-linecap="round" />
  <path id="segment-148-149"
        d="M -892 -111 L -860 -111"
        stroke="#ffffff" 
        stroke-width="2"
        opacity="1"
        fill="none"
        stroke-linecap="round" />
  <path id="segment-150-151"
        d="M -819 -111 L -787 -111"
        stroke="#ffffff" 
        stroke-width="2"
        opacity="1"
        fill="none"
        stroke-linecap="round" />
  <path id="segment-152-153"
        d="M -743 -111 L -711 -111"
        stroke="#ffffff" 
        stroke-width="2"
        opacity="1"
        fill="none"
        stroke-linecap="round" />
  <path id="segment-154-155"
        d="M -672 -111 L -640 -111"
        stroke="#ffffff" 
        stroke-width="2"
        opacity="1"
        fill="none"
        stroke-linecap="round" />
  <path id="segment-156-157"
        d="M -601 -111 L -569 -111"
        stroke="#ffffff" 
        stroke-width="2"
        opacity="1"
        fill="none"
        stroke-linecap="round" />
  <path id="segment-158-159"
        d="M -523 -111 L -491 -111"
        stroke="#ffffff" 
        stroke-width="2"
        opacity="1"
        fill="none"
        stroke-linecap="round" />
  <path id="segment-2-160"
        d="M -2294.1910621274 -330.47616987125 L -2096 -208"
        stroke="#ffffff" 
        stroke-width="2"
        opacity="1"
        fill="none"
        stroke-linecap="round" />
  <path id="segment-91-161"
        d="M -2103 -845 A 615.9989393881305 615.9989393881305 0 0 1 -2009 -1321"
        stroke="#042a7c" 
        stroke-width="2"
        opacity="1"
        fill="none"
        stroke-linecap="round" />
  <path id="segment-161-9"
        d="M -2009 -1321 A 818.5787898488079 818.5787898488079 0 0 1 -1507.1046770159 -1642.4828406528"
        stroke="#042a7c" 
        stroke-width="2"
        opacity="1"
        fill="none"
        stroke-linecap="round" />
  <path id="segment-8-162"
        d="M -1516.5776290853 -1787.7136051354 A 940.8472988647904 940.8472988647904 0 0 0 -2146 -1388"
        stroke="#ffffff" 
        stroke-width="2"
        opacity="1"
        fill="none"
        stroke-linecap="round" />
  <path id="segment-92-162"
        d="M -2237 -828 A 746.9300465828734 746.9300465828734 0 0 1 -2146 -1388"
        stroke="#ffffff" 
        stroke-width="2"
        opacity="1"
        fill="none"
        stroke-linecap="round" />
  <path id="segment-3-163"
        d="M -2022.5073948332 -320.36773062552993 L -2207 -433"
        stroke="#ffffff" 
        stroke-width="2"
        opacity="1"
        fill="none"
        stroke-linecap="round" />
  <path id="segment-160-5"
        d="M -2096 -208 A 186.42861251173946 186.42861251173946 0 0 0 -1812.8430342271 -401.01596518617"
        stroke="#042a7c" 
        stroke-width="2"
        opacity="1"
        fill="none"
        stroke-linecap="round" />
  <path id="segment-0-163"
        d="M -2381 39 A 256.9352538776012 256.9352538776012 0 0 1 -2207 -433"
        stroke="#042a7c" 
        stroke-width="2"
        opacity="1"
        fill="none"
        stroke-linecap="round" />
  <path id="segment-123-124"
        d="M -1156 -123 L -2001 -121"
        stroke="#FFD100" 
        stroke-width="2"
        opacity="1"
        fill="none"
        stroke-linecap="round" />
  <path id="segment-15-164"
        d="M 442.63522730775 -1000.8024530105299 A 365.99108378457436 365.99108378457436 0 0 0 801 -665"
        stroke="#042a7c" 
        stroke-width="2"
        opacity="1"
        fill="none"
        stroke-linecap="round" />
  <path id="segment-164-16"
        d="M 801 -665 A 523.1040280664583 523.1040280664583 0 0 0 1276.26349927456 -926.05853893385"
        stroke="#042a7c" 
        stroke-width="2"
        opacity="1"
        fill="none"
        stroke-linecap="round" />
  <path id="segment-14-165"
        d="M 277.04094009442 -981.5183352364002 A 529.8169052142806 529.8169052142806 0 0 0 802 -495"
        stroke="#ffffff" 
        stroke-width="2"
        opacity="1"
        fill="none"
        stroke-linecap="round" />
  <path id="segment-165-17"
        d="M 802 -495 A 714.7821379024339 714.7821379024339 0 0 0 1411.4783852349 -848.05184346151"
        stroke="#ffffff" 
        stroke-width="2"
        opacity="1"
        fill="none"
        stroke-linecap="round" />
  <path id="segment-21-22"
        d="M 2378.8994444612 30.931510755823 A 87.5701203955268 87.5701203955268 0 0 1 2395.0438609916 109.22604919598001"
        stroke="#042a7c" 
        stroke-width="2"
        opacity="1"
        fill="none"
        stroke-linecap="round" />
  <path id="segment-24-27"
        d="M 2315.4054035366 415.42256905644 A 51.13265093330896 51.13265093330896 0 0 1 2270.150815098 448.46772939099"
        stroke="#042a7c" 
        stroke-width="2"
        opacity="1"
        fill="none"
        stroke-linecap="round" />
  <path id="segment-20-23"
        d="M 2596.4292151473 31.254093392174 A 68.51649513175998 68.51649513175998 0 0 1 2606.3743767164 98.10222647444999"
        stroke="#ffffff" 
        stroke-width="2"
        opacity="1"
        fill="none"
        stroke-linecap="round" />
  <path id="segment-25-26"
        d="M 2481.1681787595 562.4143760994 A 53.553356538113746 53.553356538113746 0 0 1 2431.0267448532 605.82802197452"
        stroke="#ffffff" 
        stroke-width="2"
        opacity="1"
        fill="none"
        stroke-linecap="round" />
  <path id="segment-44-46"
        d="M -1446.04761087601 1079.98558192632 A 582.2404882881317 582.2404882881317 0 0 1 -2035.3669510197 728.33596123565"
        stroke="#042a7c" 
        stroke-width="2"
        opacity="1"
        fill="none"
        stroke-linecap="round" />
  <path id="segment-45-47"
        d="M -1431.47515508761 1254.2612592202 A 772.2801624567718 772.2801624567718 0 0 1 -2203.2897737721 773.93323107299"
        stroke="#ffffff" 
        stroke-width="2"
        opacity="1"
        fill="none"
        stroke-linecap="round" />
  <path id="segment-124-166"
        d="M -2001 -121 A 9.026032420627697 9.026032420627697 0 0 1 -2000 -139"
        stroke="#FFD100" 
        stroke-width="2"
        opacity="1"
        fill="none"
        stroke-linecap="round" />
  <path id="segment-166-167"
        d="M -2000 -139 A 526.0381317213554 526.0381317213554 0 0 0 -1491 -828"
        stroke="#FFD100" 
        stroke-width="2"
        opacity="1"
        fill="none"
        stroke-linecap="round" />
  <path id="segment-167-125"
        d="M -1491 -828 A 2514.217497521204 2514.217497521204 0 0 1 -1614 -1520"
        stroke="#FFD100" 
        stroke-width="2"
        opacity="1"
        fill="none"
        stroke-linecap="round" />
  <path id="segment-131-168"
        d="M 1920 435 A 146.49931660094163 146.49931660094163 0 0 0 2065 326"
        stroke="#FFD100" 
        stroke-width="2"
        opacity="1"
        fill="none"
        stroke-linecap="round" />
  <path id="segment-130-168"
        d="M 1498 -370 A 576.7724125156647 576.7724125156647 0 0 1 2065 326"
        stroke="#FFD100" 
        stroke-width="2"
        opacity="1"
        fill="none"
        stroke-linecap="round" />
  <path id="segment-133-169"
        d="M 716 1150 L 225 1025"
        stroke="#FFD100" 
        stroke-width="2"
        opacity="1"
        fill="none"
        stroke-linecap="round" />
  <path id="segment-169-132"
        d="M 225 1025 A 461.4492271134452 461.4492271134452 0 0 1 -110 528"
        stroke="#FFD100" 
        stroke-width="2"
        opacity="1"
        fill="none"
        stroke-linecap="round" />
  <path id="segment-139-170"
        d="M -2018 724 A 41.97566230338882 41.97566230338882 0 0 1 -1984 665"
        stroke="#FFD100" 
        stroke-width="2"
        opacity="1"
        fill="none"
        stroke-linecap="round" />
  <path id="segment-170-137"
        d="M -1984 665 L -403 516"
        stroke="#FFD100" 
        stroke-width="2"
        opacity="1"
        fill="none"
        stroke-linecap="round" />
  <path id="segment-137-132"
        d="M -403 516 L -110 528"
        stroke="#FFD100" 
        stroke-width="2"
        opacity="1"
        fill="none"
        stroke-linecap="round" />
  <path id="segment-110-171"
        d="M -2619 -1623 A 203.31952868615346 203.31952868615346 0 0 0 -2794 -1431"
        stroke="#FFD100" 
        stroke-width="2"
        opacity="1"
        fill="none"
        stroke-linecap="round" />
  <path id="segment-172-173"
        d="M -2793 -70 A 137.48714801087166 137.48714801087166 0 0 0 -2661 64"
        stroke="#FFD100" 
        stroke-width="2"
        opacity="1"
        fill="none"
        stroke-linecap="round" />
  <path id="segment-109-173"
        d="M 1496 66 L -2661 64"
        stroke="#FFD100" 
        stroke-width="2"
        opacity="1"
        fill="none"
        stroke-linecap="round" />
  <path id="segment-172-171"
        d="M -2793 -70 L -2794 -1431"
        stroke="#FFD100" 
        stroke-width="2"
        opacity="1"
        fill="none"
        stroke-linecap="round" />
  <path id="segment-174-175"
        d="M 524 -2162 A 116.72423222707067 116.72423222707067 0 0 1 668 -2022"
        stroke="#FFD100" 
        stroke-width="2"
        opacity="1"
        fill="none"
        stroke-linecap="round" />
  <path id="segment-110-174"
        d="M -2619 -1623 L 524 -2162"
        stroke="#FFD100" 
        stroke-width="2"
        opacity="1"
        fill="none"
        stroke-linecap="round" />
  <path id="segment-111-176"
        d="M 461 -999 A 364.10754621840414 364.10754621840414 0 0 0 799 -681"
        stroke="#FFD100" 
        stroke-width="2"
        opacity="1"
        fill="none"
        stroke-linecap="round" />
  <path id="segment-176-112"
        d="M 799 -681 A 496.53242724965503 496.53242724965503 0 0 0 1271 -995"
        stroke="#FFD100" 
        stroke-width="2"
        opacity="1"
        fill="none"
        stroke-linecap="round" />
  <path id="segment-111-177"
        d="M 461 -999 A 442.66828818640874 442.66828818640874 0 0 1 466 -1076"
        stroke="#FFD100" 
        stroke-width="2"
        opacity="1"
        fill="none"
        stroke-linecap="round" />
  <path id="segment-175-177"
        d="M 668 -2022 L 466 -1076"
        stroke="#FFD100" 
        stroke-width="2"
        opacity="1"
        fill="none"
        stroke-linecap="round" />
  <path id="segment-112-113"
        d="M 1271 -995 A 497.6494678913088 497.6494678913088 0 0 1 2219 -908"
        stroke="#FFD100" 
        stroke-width="2"
        opacity="1"
        fill="none"
        stroke-linecap="round" />
  <path id="segment-178-179"
        d="M 2361 -335 A 69.1629988372631 69.1629988372631 0 0 0 2375 -300"
        stroke="#FFD100" 
        stroke-width="2"
        opacity="1"
        fill="none"
        stroke-linecap="round" />
  <path id="segment-113-178"
        d="M 2219 -908 L 2361 -335"
        stroke="#FFD100" 
        stroke-width="2"
        opacity="1"
        fill="none"
        stroke-linecap="round" />
  <path id="segment-179-180"
        d="M 2375 -300 L 2759 123"
        stroke="#FFD100" 
        stroke-width="2"
        opacity="1"
        fill="none"
        stroke-linecap="round" />
  <path id="segment-114-180"
        d="M 2528 640 A 320.9652222022727 320.9652222022727 0 0 0 2759 123"
        stroke="#FFD100" 
        stroke-width="2"
        opacity="1"
        fill="none"
        stroke-linecap="round" />
  <path id="segment-117-118"
        d="M 925 964 A 645.2532919736623 645.2532919736623 0 0 1 63 1838"
        stroke="#FFD100" 
        stroke-width="2"
        opacity="1"
        fill="none"
        stroke-linecap="round" />
  <path id="segment-120-181"
        d="M -709 925 L -1230 1469"
        stroke="#FFD100" 
        stroke-width="2"
        opacity="1"
        fill="none"
        stroke-linecap="round" />
  <path id="segment-81-182"
        d="M 1208 -189 A 194.69215954885271 194.69215954885271 0 0 0 1270 -209"
        stroke="#ffffff" 
        stroke-width="2"
        opacity="1"
        fill="none"
        stroke-linecap="round" />
  <path id="segment-80-183"
        d="M 1228 -133 A 142.76578427969963 142.76578427969963 0 0 0 1295 -156"
        stroke="#ffffff" 
        stroke-width="2"
        opacity="1"
        fill="none"
        stroke-linecap="round" />
  <path id="segment-182-184"
        d="M 1270 -209 A 501.03587860871835 501.03587860871835 0 0 1 1648 -258"
        stroke="#ffffff" 
        stroke-width="2"
        opacity="1"
        fill="none"
        stroke-linecap="round" />
  <path id="segment-183-185"
        d="M 1295 -156 A 497.68917539577086 497.68917539577086 0 0 1 1621 -199"
        stroke="#ffffff" 
        stroke-width="2"
        opacity="1"
        fill="none"
        stroke-linecap="round" />
  <path id="segment-186-187"
        d="M 1698 197 A 559.4580215355222 559.4580215355222 0 0 0 1758 -124"
        stroke="#ffffff" 
        stroke-width="2"
        opacity="1"
        fill="none"
        stroke-linecap="round" />
  <path id="segment-184-187"
        d="M 1648 -258 A 176.10137671184884 176.10137671184884 0 0 1 1758 -124"
        stroke="#ffffff" 
        stroke-width="2"
        opacity="1"
        fill="none"
        stroke-linecap="round" />
  <path id="segment-185-188"
        d="M 1621 -199 A 108.30521173465701 108.30521173465701 0 0 1 1695 -120"
        stroke="#ffffff" 
        stroke-width="2"
        opacity="1"
        fill="none"
        stroke-linecap="round" />
  <path id="segment-188-189"
        d="M 1695 -120 A 221.63980219299503 221.63980219299503 0 0 1 1693 -20"
        stroke="#ffffff" 
        stroke-width="2"
        opacity="1"
        fill="none"
        stroke-linecap="round" />
  <path id="segment-52-189"
        d="M 1519 -111 A 214.73997637444003 214.73997637444003 0 0 1 1693 -20"
        stroke="#ffffff" 
        stroke-width="2"
        opacity="1"
        fill="none"
        stroke-linecap="round" />
  <path id="segment-51-186"
        d="M 1557.9426369554 294.54564920831 A 206.61517042073595 206.61517042073595 0 0 0 1698 197"
        stroke="#ffffff" 
        stroke-width="2"
        opacity="1"
        fill="none"
        stroke-linecap="round" />
  <path id="segment-190-191"
        d="M 1705 2 A 243.2799890275081 243.2799890275081 0 0 1 1716 30"
        stroke="#ffffff" 
        stroke-width="2"
        opacity="1"
        fill="none"
        stroke-linecap="round" />
  <path id="segment-192-193"
        d="M 1724 67 A 78.71030745715584 78.71030745715584 0 0 1 1726 103"
        stroke="#ffffff" 
        stroke-width="2"
        opacity="1"
        fill="none"
        stroke-linecap="round" />
  <path id="segment-84-82"
        d="M -423 -111 A 574.1605808576035 574.1605808576035 0 0 1 -262 -133"
        stroke="#ffffff" 
        stroke-width="2"
        opacity="1"
        fill="none"
        stroke-linecap="round" />
  <path id="segment-85-194"
        d="M -1156 -111 A 1719.9306382807163 1719.9306382807163 0 0 0 -805 -147"
        stroke="#ffffff" 
        stroke-width="2"
        opacity="1"
        fill="none"
        stroke-linecap="round" />
  <path id="segment-194-83"
        d="M -805 -147 A 3118.697939583065 3118.697939583065 0 0 1 -263 -189"
        stroke="#ffffff" 
        stroke-width="2"
        opacity="1"
        fill="none"
        stroke-linecap="round" />
  <path id="segment-195-196"
        d="M 795 11 A 15 15 0 0 1 795 -19"
        stroke="#ffffff" 
        stroke-width="2"
        opacity="1"
        fill="none"
        stroke-linecap="round" />
  <path id="segment-197-198"
        d="M 825 -49 A 15 15 0 0 1 825 -79"
        stroke="#ffffff" 
        stroke-width="2"
        opacity="1"
        fill="none"
        stroke-linecap="round" />
  <path id="segment-199-200"
        d="M 1292 -118 A 435.9397193553131 435.9397193553131 0 0 1 1618 -187"
        stroke="#777777" 
        stroke-width="2"
        opacity="1"
        fill="none"
        stroke-linecap="round" />
  <path id="segment-200-141"
        d="M 1618 -187 A 95.1608239779098 95.1608239779098 0 0 1 1679 -118"
        stroke="#777777" 
        stroke-width="2"
        opacity="1"
        fill="none"
        stroke-linecap="round" />
  <path id="segment-201-202"
        d="M 126 -189 L 126 -258"
        stroke="#222222" 
        stroke-width="2"
        opacity="1"
        fill="none"
        stroke-linecap="round" />
  <path id="segment-203-204"
        d="M 1103 -189 L 1103 -258"
        stroke="#222222" 
        stroke-width="2"
        opacity="1"
        fill="none"
        stroke-linecap="round" />
  <path id="segment-205-206"
        d="M 214.8 -189 L 214.8 -258"
        stroke="#333333" 
        stroke-width="2"
        opacity="1"
        fill="none"
        stroke-linecap="round" />
  <path id="segment-207-208"
        d="M 303.6 -189 L 303.6 -258"
        stroke="#333333" 
        stroke-width="2"
        opacity="1"
        fill="none"
        stroke-linecap="round" />
  <path id="segment-209-210"
        d="M 392.4 -189 L 392.4 -258"
        stroke="#333333" 
        stroke-width="2"
        opacity="1"
        fill="none"
        stroke-linecap="round" />
  <path id="segment-211-212"
        d="M 481.2 -189 L 481.2 -258"
        stroke="#333333" 
        stroke-width="2"
        opacity="1"
        fill="none"
        stroke-linecap="round" />
  <path id="segment-213-214"
        d="M 570 -189 L 570 -258"
        stroke="#333333" 
        stroke-width="2"
        opacity="1"
        fill="none"
        stroke-linecap="round" />
  <path id="segment-215-216"
        d="M 658.8 -189 L 658.8 -258"
        stroke="#333333" 
        stroke-width="2"
        opacity="1"
        fill="none"
        stroke-linecap="round" />
  <path id="segment-217-218"
        d="M 747.6 -189 L 747.6 -258"
        stroke="#333333" 
        stroke-width="2"
        opacity="1"
        fill="none"
        stroke-linecap="round" />
  <path id="segment-219-220"
        d="M 836.4 -189 L 836.4 -258"
        stroke="#333333" 
        stroke-width="2"
        opacity="1"
        fill="none"
        stroke-linecap="round" />
  <path id="segment-221-222"
        d="M 925.2 -189 L 925.2 -258"
        stroke="#333333" 
        stroke-width="2"
        opacity="1"
        fill="none"
        stroke-linecap="round" />
  <path id="segment-223-224"
        d="M 1014 -189 L 1014 -258"
        stroke="#333333" 
        stroke-width="2"
        opacity="1"
        fill="none"
        stroke-linecap="round" />
  <path id="segment-206-208"
        d="M 214.8 -258 L 303.6 -258"
        stroke="#9524FF" 
        stroke-width="2"
        opacity="1"
        fill="none"
        stroke-linecap="round" />
  <path id="segment-208-210"
        d="M 303.6 -258 L 392.4 -258"
        stroke="#B45568" 
        stroke-width="2"
        opacity="1"
        fill="none"
        stroke-linecap="round" />
  <path id="segment-210-212"
        d="M 392.4 -258 L 481.2 -258"
        stroke="#E8D1A1" 
        stroke-width="2"
        opacity="1"
        fill="none"
        stroke-linecap="round" />
  <path id="segment-212-214"
        d="M 481.2 -258 L 570 -258"
        stroke="#C4FF00" 
        stroke-width="2"
        opacity="1"
        fill="none"
        stroke-linecap="round" />
  <path id="segment-214-216"
        d="M 570 -258 L 658.8 -258"
        stroke="#004AC2" 
        stroke-width="2"
        opacity="1"
        fill="none"
        stroke-linecap="round" />
  <path id="segment-216-218"
        d="M 658.8 -258 L 747.6 -258"
        stroke="#FFBB00" 
        stroke-width="2"
        opacity="1"
        fill="none"
        stroke-linecap="round" />
  <path id="segment-218-220"
        d="M 747.6 -258 L 836.4 -258"
        stroke="#E4002B" 
        stroke-width="2"
        opacity="1"
        fill="none"
        stroke-linecap="round" />
  <path id="segment-220-222"
        d="M 836.4 -258 L 925.2 -258"
        stroke="#E0E0E0" 
        stroke-width="2"
        opacity="1"
        fill="none"
        stroke-linecap="round" />
  <path id="segment-222-224"
        d="M 925.2 -258 L 1014 -258"
        stroke="#52C4DA" 
        stroke-width="2"
        opacity="1"
        fill="none"
        stroke-linecap="round" />
  <path id="segment-224-204"
        d="M 1014 -258 L 1103 -258"
        stroke="#059988" 
        stroke-width="2"
        opacity="1"
        fill="none"
        stroke-linecap="round" />
  <path id="segment-123-202"
        d="M -1156 -123 A 5839.867867304299 5839.867867304299 0 0 1 126 -258"
        stroke="#FFD100" 
        stroke-width="2"
        opacity="1"
        fill="none"
        stroke-linecap="round" />
  <path id="segment-202-129"
        d="M 126 -258 A 259.0861720679269 259.0861720679269 0 0 0 287 -342"
        stroke="#FFD100" 
        stroke-width="2"
        opacity="1"
        fill="none"
        stroke-linecap="round" />
  <path id="segment-202-206"
        d="M 126 -258 L 214.8 -258"
        stroke="#998500" 
        stroke-width="2"
        opacity="1"
        fill="none"
        stroke-linecap="round" />
  <path id="segment-121-225"
        d="M -2595 497 A 257.92116746308744 257.92116746308744 0 0 0 -2810 690"
        stroke="#FFD100" 
        stroke-width="2"
        opacity="1"
        fill="none"
        stroke-linecap="round" />
  <path id="segment-225-181"
        d="M -2810 690 A 929.2378184153275 929.2378184153275 0 0 0 -1230 1469"
        stroke="#FFD100" 
        stroke-width="2"
        opacity="1"
        fill="none"
        stroke-linecap="round" />
  <path id="segment-83-81"
        d="M -263 -189 L 1208 -189"
        stroke="#ffffff" 
        stroke-width="2"
        opacity="1"
        fill="none"
        stroke-linecap="round" />
  
</svg>