<?xml version="1.0" encoding="UTF-8"?>
<svg xmlns="http://www.w3.org/2000/svg" 
     viewBox="-3557.6 -2724.8 6907.2 5505.6"
     width="6907.2" 
     height="5505.6"
     style="background-color: #0a0a0a;">
  
  <!-- Metadata -->
  <title>Sepang F1 International Circuit - By Ximb - Haxball Map</title>
  <desc>Generated from Haxball map file</desc>
  
  <!-- Coordinate metadata for frontend -->
  <metadata>
    <coordinates>{"viewBox":"-3557.6 -2724.8 6907.2 5505.6","bounds":{"minX":-2982,"maxX":2774,"minY":-2266,"maxY":2322},"padding":0.1,"generated":"2026-06-17T22:15:22.033Z"}</coordinates>
  </metadata>
  
  <!-- Definitions -->
  <defs>
    
    <!-- Arrow marker for direction -->
    <marker id="arrowhead" markerWidth="10" markerHeight="7" 
            refX="9" refY="3.5" orient="auto">
      <polygon points="0 0, 10 3.5, 0 7" fill="rgba(255,255,255,0.5)" />
    </marker>
  </defs>
  
  <!-- Background grid -->
  
  
  <!-- Map segments -->
  <path id="segment-3-1"
        d="M -2314.1910621274 -412.47616987125 A 121.81112777758923 121.81112777758923 0 0 0 -2341 -175"
        stroke="#042a7c" 
        stroke-width="2"
        opacity="1"
        fill="none"
        stroke-linecap="round" />
  <path id="segment-4-3"
        d="M -2096.0289849076 -306.02753680438 L -2314.1910621274 -412.47616987125"
        stroke="#ffffff" 
        stroke-width="2"
        opacity="1"
        fill="none"
        stroke-linecap="round" />
  <path id="segment-2-5"
        d="M -2292.9374142770002 -573.2888207153301 L -2001.5073948332 -423.36773062552993"
        stroke="#ffffff" 
        stroke-width="2"
        opacity="1"
        fill="none"
        stroke-linecap="round" />
  <path id="segment-5-6"
        d="M -2001.5073948332 -423.36773062552993 A 51.384590982534505 51.384590982534505 0 0 0 -1936.4173216873 -491.91090460163"
        stroke="#042a7c" 
        stroke-width="2"
        opacity="1"
        fill="none"
        stroke-linecap="round" />
  <path id="segment-7-4"
        d="M -1792.8430342271 -542.01596518617 A 203.66923463109038 203.66923463109038 0 0 1 -2096.0289849076 -306.02753680438"
        stroke="#ffffff" 
        stroke-width="2"
        opacity="1"
        fill="none"
        stroke-linecap="round" />
  <path id="segment-8-7"
        d="M -1913.7046696087 -728.44027925053 A 417.1765965062885 417.1765965062885 0 0 1 -1792.8430342271 -542.01596518617"
        stroke="#ffffff" 
        stroke-width="2"
        opacity="1"
        fill="none"
        stroke-linecap="round" />
  <path id="segment-6-9"
        d="M -1936.4173216873 -491.91090460163 A 251.78214689414315 251.78214689414315 0 0 0 -2032.3287336807 -627.68335792095"
        stroke="#ffffff" 
        stroke-width="2"
        opacity="1"
        fill="none"
        stroke-linecap="round" />
  <path id="segment-13-10"
        d="M -1501.1046770159 -1707.4828406528 A 702.0268789257578 702.0268789257578 0 0 0 -1922.0337001941 -1413.81536125414"
        stroke="#042a7c" 
        stroke-width="2"
        opacity="1"
        fill="none"
        stroke-linecap="round" />
  <path id="segment-12-11"
        d="M -1568.5776290853 -1842.7136051354 A 866.4893515569017 866.4893515569017 0 0 0 -2068.1354316222 -1486.25406870143"
        stroke="#ffffff" 
        stroke-width="2"
        opacity="1"
        fill="none"
        stroke-linecap="round" />
  <path id="segment-12-14"
        d="M -1568.5776290853 -1842.7136051354 L 241.31885744265998 -2153.4349328721"
        stroke="#ffffff" 
        stroke-width="2"
        opacity="1"
        fill="none"
        stroke-linecap="round" />
  <path id="segment-13-15"
        d="M -1501.1046770159 -1707.4828406528 L 176.05955371748 -1973.73617913"
        stroke="#ffffff" 
        stroke-width="2"
        opacity="1"
        fill="none"
        stroke-linecap="round" />
  <path id="segment-14-16"
        d="M 241.31885744265998 -2153.4349328721 A 165.29196068127231 165.29196068127231 0 0 1 383.4553285392 -2077.0004456649003"
        stroke="#ffffff" 
        stroke-width="2"
        opacity="1"
        fill="none"
        stroke-linecap="round" />
  <path id="segment-15-17"
        d="M 176.05955371748 -1973.73617913 A 45.89362330836338 45.89362330836338 0 0 1 235.82630165735 -1940.2133514395"
        stroke="#042a7c" 
        stroke-width="2"
        opacity="1"
        fill="none"
        stroke-linecap="round" />
  <path id="segment-19-16"
        d="M 448.63522730775 -1065.80245301053 A 19733.885914952218 19733.885914952218 0 0 0 383.4553285392 -2077.0004456649003"
        stroke="#ffffff" 
        stroke-width="2"
        opacity="1"
        fill="none"
        stroke-linecap="round" />
  <path id="segment-18-17"
        d="M 283.04094009442 -1046.5183352364002 L 235.82630165735 -1940.2133514395"
        stroke="#ffffff" 
        stroke-width="2"
        opacity="1"
        fill="none"
        stroke-linecap="round" />
  <path id="segment-19-20"
        d="M 448.63522730775 -1065.80245301053 A 439.5593372162175 439.5593372162175 0 0 0 1282.26349927456 -991.05853893385"
        stroke="#042a7c" 
        stroke-width="2"
        opacity="1"
        fill="none"
        stroke-linecap="round" />
  <path id="segment-24-23"
        d="M 2549.4292151473 -32.745906607826 L 1906.7942477081 -941.46697447595"
        stroke="#ffffff" 
        stroke-width="2"
        opacity="1"
        fill="none"
        stroke-linecap="round" />
  <path id="segment-25-22"
        d="M 2338.8994444612 -32.068489244177 L 1767.6878009935 -852.15233727342"
        stroke="#ffffff" 
        stroke-width="2"
        opacity="1"
        fill="none"
        stroke-linecap="round" />
  <path id="segment-26-25"
        d="M 2341.0438609916 36.22604919598001 A 53.175388740633025 53.175388740633025 0 0 0 2338.8994444612 -32.068489244177"
        stroke="#042a7c" 
        stroke-width="2"
        opacity="1"
        fill="none"
        stroke-linecap="round" />
  <path id="segment-27-24"
        d="M 2554.3743767164 37.10222647444999 A 69.96118114218689 69.96118114218689 0 0 0 2549.4292151473 -32.745906607826"
        stroke="#ffffff" 
        stroke-width="2"
        opacity="1"
        fill="none"
        stroke-linecap="round" />
  <path id="segment-29-27"
        d="M 2296.1681787595 346.4143760994 L 2554.3743767164 37.10222647444999"
        stroke="#ffffff" 
        stroke-width="2"
        opacity="1"
        fill="none"
        stroke-linecap="round" />
  <path id="segment-28-26"
        d="M 2117.4054035366 303.42256905644 A 6114.683222435675 6114.683222435675 0 0 0 2341.0438609916 36.22604919598001"
        stroke="#ffffff" 
        stroke-width="2"
        opacity="1"
        fill="none"
        stroke-linecap="round" />
  <path id="segment-30-29"
        d="M 2031.0267448532 522.82802197452 A 405.20792410737477 405.20792410737477 0 0 0 2296.1681787595 346.4143760994"
        stroke="#ffffff" 
        stroke-width="2"
        opacity="1"
        fill="none"
        stroke-linecap="round" />
  <path id="segment-31-28"
        d="M 2022.1508150979998 357.46772939099 A 143.21701454257075 143.21701454257075 0 0 0 2117.4054035366 303.42256905644"
        stroke="#042a7c" 
        stroke-width="2"
        opacity="1"
        fill="none"
        stroke-linecap="round" />
  <path id="segment-32-30"
        d="M 367.46772939099003 621.52008024432 L 2031.0267448532 522.82802197452"
        stroke="#ffffff" 
        stroke-width="2"
        opacity="1"
        fill="none"
        stroke-linecap="round" />
  <path id="segment-33-31"
        d="M 304.600240116 464.42876948233 L 2022.1508150979998 357.46772939099"
        stroke="#ffffff" 
        stroke-width="2"
        opacity="1"
        fill="none"
        stroke-linecap="round" />
  <path id="segment-32-35"
        d="M 367.46772939099003 621.52008024432 A 56.81114462346196 56.81114462346196 0 0 0 364.23869757099 727.12752322447"
        stroke="#042a7c" 
        stroke-width="2"
        opacity="1"
        fill="none"
        stroke-linecap="round" />
  <path id="segment-33-34"
        d="M 304.600240116 464.42876948233 A 203.96841340625235 203.96841340625235 0 0 0 261.58436159374 863.25754637189"
        stroke="#ffffff" 
        stroke-width="2"
        opacity="1"
        fill="none"
        stroke-linecap="round" />
  <path id="segment-35-36"
        d="M 364.23869757099 727.12752322447 L 825.4791401499 914.54687447904"
        stroke="#ffffff" 
        stroke-width="2"
        opacity="1"
        fill="none"
        stroke-linecap="round" />
  <path id="segment-34-37"
        d="M 261.58436159374 863.25754637189 L 732.55631739755 1059.39352242199"
        stroke="#ffffff" 
        stroke-width="2"
        opacity="1"
        fill="none"
        stroke-linecap="round" />
  <path id="segment-38-37"
        d="M 833.94490170049 1215.73322119669 A 180.23302959534544 180.23302959534544 0 0 0 732.55631739755 1059.39352242199"
        stroke="#042a7c" 
        stroke-width="2"
        opacity="1"
        fill="none"
        stroke-linecap="round" />
  <path id="segment-39-36"
        d="M 1013.21114842123 1255.02155921096 A 340.2205580737339 340.2205580737339 0 0 0 825.4791401499 914.54687447904"
        stroke="#ffffff" 
        stroke-width="2"
        opacity="1"
        fill="none"
        stroke-linecap="round" />
  <path id="segment-41-39"
        d="M 732.88485293657 1942.9731563838 A 1139.6381477566435 1139.6381477566435 0 0 0 1013.21114842123 1255.02155921096"
        stroke="#ffffff" 
        stroke-width="2"
        opacity="1"
        fill="none"
        stroke-linecap="round" />
  <path id="segment-40-38"
        d="M 632.65433597724 1784.8525638095 A 788.296615112662 788.296615112662 0 0 0 833.94490170049 1215.73322119669"
        stroke="#042a7c" 
        stroke-width="2"
        opacity="1"
        fill="none"
        stroke-linecap="round" />
  <path id="segment-43-41"
        d="M 381.32382025245 1909.774396469 A 259.0297789081577 259.0297789081577 0 0 0 732.88485293657 1942.9731563838"
        stroke="#ffffff" 
        stroke-width="2"
        opacity="1"
        fill="none"
        stroke-linecap="round" />
  <path id="segment-42-40"
        d="M 504.47940001848997 1792.3949952159 A 84.89024782002755 84.89024782002755 0 0 0 632.65433597724 1784.8525638095"
        stroke="#042a7c" 
        stroke-width="2"
        opacity="1"
        fill="none"
        stroke-linecap="round" />
  <path id="segment-45-42"
        d="M -243.7769087373 760.91436992672 L 504.47940001848997 1792.3949952159"
        stroke="#ffffff" 
        stroke-width="2"
        opacity="1"
        fill="none"
        stroke-linecap="round" />
  <path id="segment-44-43"
        d="M -400.66896453802 856.82677201304 L 381.32382025245 1909.774396469"
        stroke="#ffffff" 
        stroke-width="2"
        opacity="1"
        fill="none"
        stroke-linecap="round" />
  <path id="segment-46-45"
        d="M -911.0044430726 758.30245918322 A 457.31251578736493 457.31251578736493 0 0 1 -243.7769087373 760.91436992672"
        stroke="#ffffff" 
        stroke-width="2"
        opacity="1"
        fill="none"
        stroke-linecap="round" />
  <path id="segment-47-44"
        d="M -730.3421616615401 848.32925341794 A 251.17764239150688 251.17764239150688 0 0 1 -400.66896453802 856.82677201304"
        stroke="#042a7c" 
        stroke-width="2"
        opacity="1"
        fill="none"
        stroke-linecap="round" />
  <path id="segment-49-47"
        d="M -1425.47515508761 1189.2612592202 A 1177.2444867978907 1177.2444867978907 0 0 0 -730.3421616615401 848.32925341794"
        stroke="#ffffff" 
        stroke-width="2"
        opacity="1"
        fill="none"
        stroke-linecap="round" />
  <path id="segment-48-46"
        d="M -1484.04761087601 1008.98558192632 A 918.5610023010463 918.5610023010463 0 0 0 -911.0044430726 758.30245918322"
        stroke="#ffffff" 
        stroke-width="2"
        opacity="1"
        fill="none"
        stroke-linecap="round" />
  <path id="segment-51-49"
        d="M -2197.2897737721 708.93323107299 A 859.7737612645658 859.7737612645658 0 0 0 -1425.47515508761 1189.2612592202"
        stroke="#ffffff" 
        stroke-width="2"
        opacity="1"
        fill="none"
        stroke-linecap="round" />
  <path id="segment-50-48"
        d="M -2022.3669510197 662.33596123565 A 629.1557236348743 629.1557236348743 0 0 0 -1484.04761087601 1008.98558192632"
        stroke="#042a7c" 
        stroke-width="2"
        opacity="1"
        fill="none"
        stroke-linecap="round" />
  <path id="segment-50-52"
        d="M -2022.3669510197 662.33596123565 A 52.807860347333104 52.807860347333104 0 0 1 -1979.2721625873 580.9072784172299"
        stroke="#042a7c" 
        stroke-width="2"
        opacity="1"
        fill="none"
        stroke-linecap="round" />
  <path id="segment-51-53"
        d="M -2197.2897737721 708.93323107299 A 217.00635159363424 217.00635159363424 0 0 1 -2018.8247671364998 410.00966575098"
        stroke="#ffffff" 
        stroke-width="2"
        opacity="1"
        fill="none"
        stroke-linecap="round" />
  <path id="segment-53-54"
        d="M -2018.8247671364998 410.00966575098 L 1513.5538051292 66.951609518204"
        stroke="#ffffff" 
        stroke-width="2"
        opacity="1"
        fill="none"
        stroke-linecap="round" />
  <path id="segment-52-55"
        d="M -1979.2721625873 580.9072784172299 L 1563.9426369554 229.54564920831"
        stroke="#ffffff" 
        stroke-width="2"
        opacity="1"
        fill="none"
        stroke-linecap="round" />
  <path id="segment-54-57"
        d="M 1513.5538051292 66.951609518204 A 46.86529659315004 46.86529659315004 0 0 0 1502 -26"
        stroke="#042a7c" 
        stroke-width="2"
        opacity="1"
        fill="none"
        stroke-linecap="round" />
  <path id="segment-58-59"
        d="M 194 -54 A 15 15 0 0 1 194 -84"
        stroke="#CC0000" 
        stroke-width="2"
        opacity="1"
        fill="none"
        stroke-linecap="round" />
  <path id="segment-60-61"
        d="M 224 -114 A 15.109791035086054 15.109791035086054 0 0 1 224 -144"
        stroke="#fcd014" 
        stroke-width="2"
        opacity="1"
        fill="none"
        stroke-linecap="round" />
  <path id="segment-0-57"
        d="M -2375 -26 L 1502 -26"
        stroke="#ffffff" 
        stroke-width="2"
        opacity="1"
        fill="none"
        stroke-linecap="round" />
  <path id="segment-62-63"
        d="M 132 -176 L 132 -26"
        stroke="#042a7c" 
        stroke-width="2"
        opacity="1"
        fill="none"
        stroke-linecap="round" />
  <path id="segment-64-65"
        d="M 254 -54 A 15 15 0 0 1 254 -84"
        stroke="#fcd014" 
        stroke-width="2"
        opacity="1"
        fill="none"
        stroke-linecap="round" />
  <path id="segment-66-67"
        d="M 284 -114 A 15 15 0 0 1 284 -144"
        stroke="#fcd014" 
        stroke-width="2"
        opacity="1"
        fill="none"
        stroke-linecap="round" />
  <path id="segment-68-69"
        d="M 314 -54 A 15 15 0 0 1 314 -84"
        stroke="#fcd014" 
        stroke-width="2"
        opacity="1"
        fill="none"
        stroke-linecap="round" />
  <path id="segment-70-71"
        d="M 344 -114 A 15 15 0 0 1 344 -144"
        stroke="#fcd014" 
        stroke-width="2"
        opacity="1"
        fill="none"
        stroke-linecap="round" />
  <path id="segment-72-73"
        d="M 374 -54 A 15 15 0 0 1 374 -84"
        stroke="#fcd014" 
        stroke-width="2"
        opacity="1"
        fill="none"
        stroke-linecap="round" />
  <path id="segment-74-75"
        d="M 404 -114 A 15 15 0 0 1 404 -144"
        stroke="#fcd014" 
        stroke-width="2"
        opacity="1"
        fill="none"
        stroke-linecap="round" />
  <path id="segment-76-77"
        d="M 434 -54 A 15 15 0 0 1 434 -84"
        stroke="#fcd014" 
        stroke-width="2"
        opacity="1"
        fill="none"
        stroke-linecap="round" />
  <path id="segment-78-79"
        d="M 464 -114 A 15 15 0 0 1 464 -144"
        stroke="#fcd014" 
        stroke-width="2"
        opacity="1"
        fill="none"
        stroke-linecap="round" />
  <path id="segment-80-81"
        d="M 494 -54 A 15 15 0 0 1 494 -84"
        stroke="#fcd014" 
        stroke-width="2"
        opacity="1"
        fill="none"
        stroke-linecap="round" />
  <path id="segment-82-83"
        d="M 524 -114 A 15 15 0 0 1 524 -144"
        stroke="#fcd014" 
        stroke-width="2"
        opacity="1"
        fill="none"
        stroke-linecap="round" />
  <path id="segment-85-84"
        d="M 1664 -123 A 123.35804856181339 123.35804856181339 0 0 0 1524 -265"
        stroke="#ffffff" 
        stroke-width="2"
        opacity="1"
        fill="none"
        stroke-linecap="round" />
  <path id="segment-86-87"
        d="M 1721 -40 A 204.2741083315222 204.2741083315222 0 0 0 1488 -330"
        stroke="#ffffff" 
        stroke-width="2"
        opacity="1"
        fill="none"
        stroke-linecap="round" />
  <path id="segment-84-88"
        d="M 1524 -265 L 1234 -203"
        stroke="#ffffff" 
        stroke-width="2"
        opacity="1"
        fill="none"
        stroke-linecap="round" />
  <path id="segment-87-89"
        d="M 1488 -330 L 1227 -277"
        stroke="#ffffff" 
        stroke-width="2"
        opacity="1"
        fill="none"
        stroke-linecap="round" />
  <path id="segment-88-90"
        d="M 1234 -203 L 21 -203"
        stroke="#ffffff" 
        stroke-width="2"
        opacity="1"
        fill="none"
        stroke-linecap="round" />
  <path id="segment-89-91"
        d="M 1227 -277 L 33 -277"
        stroke="#ffffff" 
        stroke-width="2"
        opacity="1"
        fill="none"
        stroke-linecap="round" />
  <path id="segment-90-92"
        d="M 21 -203 L -417 -176"
        stroke="#ffffff" 
        stroke-width="2"
        opacity="1"
        fill="none"
        stroke-linecap="round" />
  <path id="segment-91-93"
        d="M 33 -277 L -1150 -176"
        stroke="#ffffff" 
        stroke-width="2"
        opacity="1"
        fill="none"
        stroke-linecap="round" />
  <path id="segment-1-93"
        d="M -2341 -175 L -1150 -176"
        stroke="#ffffff" 
        stroke-width="2"
        opacity="1"
        fill="none"
        stroke-linecap="round" />
  <path id="segment-92-56"
        d="M -417 -176 L 1525 -176"
        stroke="#ffffff" 
        stroke-width="2"
        opacity="1"
        fill="none"
        stroke-linecap="round" />
  <path id="segment-89-94"
        d="M 1227 -277 L 1226 -345"
        stroke="#333333" 
        stroke-width="2"
        opacity="1"
        fill="none"
        stroke-linecap="round" />
  <path id="segment-94-95"
        d="M 1226 -345 L 133 -345"
        stroke="#333333" 
        stroke-width="2"
        opacity="1"
        fill="none"
        stroke-linecap="round" />
  <path id="segment-95-96"
        d="M 133 -345 L 134 -277"
        stroke="#333333" 
        stroke-width="2"
        opacity="1"
        fill="none"
        stroke-linecap="round" />
  <path id="segment-97-98"
        d="M 242.3 -345 L 243.3 -277"
        stroke="#333333" 
        stroke-width="2"
        opacity="1"
        fill="none"
        stroke-linecap="round" />
  <path id="segment-99-100"
        d="M 351.6 -345 L 352.6 -277"
        stroke="#333333" 
        stroke-width="2"
        opacity="1"
        fill="none"
        stroke-linecap="round" />
  <path id="segment-101-102"
        d="M 460.9 -345 L 461.9 -277"
        stroke="#333333" 
        stroke-width="2"
        opacity="1"
        fill="none"
        stroke-linecap="round" />
  <path id="segment-103-104"
        d="M 570.2 -345 L 571.2 -277"
        stroke="#333333" 
        stroke-width="2"
        opacity="1"
        fill="none"
        stroke-linecap="round" />
  <path id="segment-105-106"
        d="M 679.5 -345 L 680.5 -277"
        stroke="#333333" 
        stroke-width="2"
        opacity="1"
        fill="none"
        stroke-linecap="round" />
  <path id="segment-107-108"
        d="M 788.8 -345 L 789.8 -277"
        stroke="#333333" 
        stroke-width="2"
        opacity="1"
        fill="none"
        stroke-linecap="round" />
  <path id="segment-109-110"
        d="M 898.1 -345 L 899.1 -277"
        stroke="#333333" 
        stroke-width="2"
        opacity="1"
        fill="none"
        stroke-linecap="round" />
  <path id="segment-111-112"
        d="M 1116.7 -345 L 1117.7 -277"
        stroke="#333333" 
        stroke-width="2"
        opacity="1"
        fill="none"
        stroke-linecap="round" />
  <path id="segment-113-114"
        d="M 1007.4 -345 L 1008.4 -277"
        stroke="#333333" 
        stroke-width="2"
        opacity="1"
        fill="none"
        stroke-linecap="round" />
  <path id="segment-116-117"
        d="M -1439 -177 L -1439 -25"
        stroke="#ffffff" 
        stroke-width="2"
        opacity="1"
        fill="none"
        stroke-linecap="round" />
  <path id="segment-0-2"
        d="M -2375 -26 A 280.2090341978225 280.2090341978225 0 0 1 -2292.9374142770002 -573.2888207153301"
        stroke="#ffffff" 
        stroke-width="2"
        opacity="1"
        fill="none"
        stroke-linecap="round" />
  <path id="segment-18-21"
        d="M 283.04094009442 -1046.5183352364002 A 595.9186331616845 595.9186331616845 0 0 0 1406.4783852349 -887.05184346151"
        stroke="#ffffff" 
        stroke-width="2"
        opacity="1"
        fill="none"
        stroke-linecap="round" />
  <path id="segment-21-118"
        d="M 1406.4783852349 -887.05184346151 A 123.49434466319552 123.49434466319552 0 0 1 1549 -970"
        stroke="#042a7c" 
        stroke-width="2"
        opacity="1"
        fill="none"
        stroke-linecap="round" />
  <path id="segment-118-22"
        d="M 1549 -970 A 362.5306106749309 362.5306106749309 0 0 1 1767.6878009935 -852.15233727342"
        stroke="#042a7c" 
        stroke-width="2"
        opacity="1"
        fill="none"
        stroke-linecap="round" />
  <path id="segment-20-119"
        d="M 1282.26349927456 -991.05853893385 A 241.9301747051763 241.9301747051763 0 0 1 1544 -1150"
        stroke="#ffffff" 
        stroke-width="2"
        opacity="1"
        fill="none"
        stroke-linecap="round" />
  <path id="segment-119-23"
        d="M 1544 -1150 A 570.3301992656151 570.3301992656151 0 0 1 1906.7942477081 -941.46697447595"
        stroke="#ffffff" 
        stroke-width="2"
        opacity="1"
        fill="none"
        stroke-linecap="round" />
  <path id="segment-8-120"
        d="M -1913.7046696087 -728.44027925053 A 339.43456849729074 339.43456849729074 0 0 1 -2012 -973"
        stroke="#042a7c" 
        stroke-width="2"
        opacity="1"
        fill="none"
        stroke-linecap="round" />
  <path id="segment-9-121"
        d="M -2032.3287336807 -627.68335792095 A 513.5840989597847 513.5840989597847 0 0 1 -2168 -980"
        stroke="#ffffff" 
        stroke-width="2"
        opacity="1"
        fill="none"
        stroke-linecap="round" />
  <path id="segment-10-120"
        d="M -1922.0337001941 -1413.81536125414 A 1154.2047080737577 1154.2047080737577 0 0 0 -2012 -973"
        stroke="#ffffff" 
        stroke-width="2"
        opacity="1"
        fill="none"
        stroke-linecap="round" />
  <path id="segment-121-11"
        d="M -2168 -980 A 1596.4500662870637 1596.4500662870637 0 0 1 -2068.1354316222 -1486.25406870143"
        stroke="#ffffff" 
        stroke-width="2"
        opacity="1"
        fill="none"
        stroke-linecap="round" />
  <path id="segment-122-123"
        d="M 560 -53 A 15 15 0 0 1 560 -83"
        stroke="#fcd014" 
        stroke-width="2"
        opacity="1"
        fill="none"
        stroke-linecap="round" />
  <path id="segment-124-125"
        d="M 590 -113 A 15 15 0 0 1 590 -143"
        stroke="#fcd014" 
        stroke-width="2"
        opacity="1"
        fill="none"
        stroke-linecap="round" />
  <path id="segment-126-127"
        d="M 620 -53 A 15 15 0 0 1 620 -83"
        stroke="#fcd014" 
        stroke-width="2"
        opacity="1"
        fill="none"
        stroke-linecap="round" />
  <path id="segment-128-129"
        d="M 650 -113 A 15 15 0 0 1 650 -143"
        stroke="#fcd014" 
        stroke-width="2"
        opacity="1"
        fill="none"
        stroke-linecap="round" />
  <path id="segment-130-131"
        d="M 680 -53 A 15 15 0 0 1 680 -83"
        stroke="#fcd014" 
        stroke-width="2"
        opacity="1"
        fill="none"
        stroke-linecap="round" />
  <path id="segment-132-133"
        d="M 710 -113 A 15 15 0 0 1 710 -143"
        stroke="#fcd014" 
        stroke-width="2"
        opacity="1"
        fill="none"
        stroke-linecap="round" />
  <path id="segment-134-135"
        d="M 740 -53 A 15 15 0 0 1 740 -83"
        stroke="#fcd014" 
        stroke-width="2"
        opacity="1"
        fill="none"
        stroke-linecap="round" />
  <path id="segment-136-137"
        d="M 770 -113 A 15 15 0 0 1 770 -143"
        stroke="#fcd014" 
        stroke-width="2"
        opacity="1"
        fill="none"
        stroke-linecap="round" />
  <path id="segment-138-139"
        d="M 1502 1 L -2982 1"
        stroke="#777777" 
        stroke-width="2"
        opacity="1"
        fill="none"
        stroke-linecap="round" />
  <path id="segment-140-141"
        d="M -2262 -657 L -1970 -460"
        stroke="#777777" 
        stroke-width="2"
        opacity="1"
        fill="none"
        stroke-linecap="round" />
  <path id="segment-141-142"
        d="M -1970 -460 A 178.87754982804492 178.87754982804492 0 0 0 -2038 -583"
        stroke="#777777" 
        stroke-width="2"
        opacity="1"
        fill="none"
        stroke-linecap="round" />
  <path id="segment-142-143"
        d="M -2038 -583 A 969.3945790834133 969.3945790834133 0 0 1 -2065 -2017"
        stroke="#777777" 
        stroke-width="2"
        opacity="1"
        fill="none"
        stroke-linecap="round" />
  <path id="segment-143-144"
        d="M -2065 -2017 A 7307.920584715229 7307.920584715229 0 0 0 -207 -2110"
        stroke="#777777" 
        stroke-width="2"
        opacity="1"
        fill="none"
        stroke-linecap="round" />
  <path id="segment-144-145"
        d="M -207 -2110 L 700 -2266"
        stroke="#777777" 
        stroke-width="2"
        opacity="1"
        fill="none"
        stroke-linecap="round" />
  <path id="segment-145-146"
        d="M 700 -2266 A 39043.41664939463 39043.41664939463 0 0 1 480 -1065"
        stroke="#777777" 
        stroke-width="2"
        opacity="1"
        fill="none"
        stroke-linecap="round" />
  <path id="segment-146-147"
        d="M 480 -1065 A 404.9895369989485 404.9895369989485 0 0 0 1255 -1002"
        stroke="#777777" 
        stroke-width="2"
        opacity="1"
        fill="none"
        stroke-linecap="round" />
  <path id="segment-147-148"
        d="M 1255 -1002 A 7885.885632362492 7885.885632362492 0 0 1 1374 -1218"
        stroke="#777777" 
        stroke-width="2"
        opacity="1"
        fill="none"
        stroke-linecap="round" />
  <path id="segment-148-149"
        d="M 1374 -1218 A 463.01443752295125 463.01443752295125 0 0 1 2180 -1160"
        stroke="#777777" 
        stroke-width="2"
        opacity="1"
        fill="none"
        stroke-linecap="round" />
  <path id="segment-149-150"
        d="M 2180 -1160 A 26578.366573085663 26578.366573085663 0 0 1 2362 -349"
        stroke="#777777" 
        stroke-width="2"
        opacity="1"
        fill="none"
        stroke-linecap="round" />
  <path id="segment-150-151"
        d="M 2362 -349 L 2774 228"
        stroke="#777777" 
        stroke-width="2"
        opacity="1"
        fill="none"
        stroke-linecap="round" />
  <path id="segment-151-152"
        d="M 2774 228 L 2417 653"
        stroke="#777777" 
        stroke-width="2"
        opacity="1"
        fill="none"
        stroke-linecap="round" />
  <path id="segment-152-153"
        d="M 2417 653 A 11356.338232581731 11356.338232581731 0 0 0 393 642"
        stroke="#777777" 
        stroke-width="2"
        opacity="1"
        fill="none"
        stroke-linecap="round" />
  <path id="segment-153-154"
        d="M 393 642 A 37.39723710714559 37.39723710714559 0 0 0 373 712"
        stroke="#777777" 
        stroke-width="2"
        opacity="1"
        fill="none"
        stroke-linecap="round" />
  <path id="segment-154-155"
        d="M 373 712 L 1136 994"
        stroke="#777777" 
        stroke-width="2"
        opacity="1"
        fill="none"
        stroke-linecap="round" />
  <path id="segment-155-156"
        d="M 1136 994 A 849.1364290489944 849.1364290489944 0 0 1 370 2322"
        stroke="#777777" 
        stroke-width="2"
        opacity="1"
        fill="none"
        stroke-linecap="round" />
  <path id="segment-156-157"
        d="M 370 2322 L -421 879"
        stroke="#777777" 
        stroke-width="2"
        opacity="1"
        fill="none"
        stroke-linecap="round" />
  <path id="segment-157-158"
        d="M -421 879 A 204.05646966293347 204.05646966293347 0 0 0 -695 860"
        stroke="#777777" 
        stroke-width="2"
        opacity="1"
        fill="none"
        stroke-linecap="round" />
  <path id="segment-158-159"
        d="M -695 860 A 860.8359607009676 860.8359607009676 0 0 1 -2288 291"
        stroke="#777777" 
        stroke-width="2"
        opacity="1"
        fill="none"
        stroke-linecap="round" />
  <path id="segment-159-160"
        d="M -2288 291 A 1909.2959463335362 1909.2959463335362 0 0 0 -1543 332"
        stroke="#777777" 
        stroke-width="2"
        opacity="1"
        fill="none"
        stroke-linecap="round" />
  <path id="segment-160-161"
        d="M -1543 332 L 1504 47"
        stroke="#777777" 
        stroke-width="2"
        opacity="1"
        fill="none"
        stroke-linecap="round" />
  <path id="segment-138-161"
        d="M 1502 1 A 23.119231198513106 23.119231198513106 0 0 1 1504 47"
        stroke="#777777" 
        stroke-width="2"
        opacity="1"
        fill="none"
        stroke-linecap="round" />
  <path id="segment-95-162"
        d="M 133 -345 L -1150 -188"
        stroke="#777777" 
        stroke-width="2"
        opacity="1"
        fill="none"
        stroke-linecap="round" />
  <path id="segment-162-163"
        d="M -1150 -188 L -2347 -185"
        stroke="#777777" 
        stroke-width="2"
        opacity="1"
        fill="none"
        stroke-linecap="round" />
  <path id="segment-164-165"
        d="M -1995 -186 A 348.69404518745495 348.69404518745495 0 0 0 -1659 -669"
        stroke="#777777" 
        stroke-width="2"
        opacity="1"
        fill="none"
        stroke-linecap="round" />
  <path id="segment-165-166"
        d="M -1659 -669 A 509.47964454866275 509.47964454866275 0 0 1 -1829 -1372"
        stroke="#777777" 
        stroke-width="2"
        opacity="1"
        fill="none"
        stroke-linecap="round" />
  <path id="segment-166-167"
        d="M -1829 -1372 A 1078.233883612025 1078.233883612025 0 0 1 -1492 -1682"
        stroke="#777777" 
        stroke-width="2"
        opacity="1"
        fill="none"
        stroke-linecap="round" />
  <path id="segment-167-168"
        d="M -1492 -1682 L -109 -1904"
        stroke="#777777" 
        stroke-width="2"
        opacity="1"
        fill="none"
        stroke-linecap="round" />
  <path id="segment-168-169"
        d="M -109 -1904 A 291.1691154714452 291.1691154714452 0 0 1 234 -1652"
        stroke="#777777" 
        stroke-width="2"
        opacity="1"
        fill="none"
        stroke-linecap="round" />
  <path id="segment-169-170"
        d="M 234 -1652 L 293 -407"
        stroke="#777777" 
        stroke-width="2"
        opacity="1"
        fill="none"
        stroke-linecap="round" />
  <path id="segment-170-171"
        d="M 293 -407 L 1504 -435"
        stroke="#777777" 
        stroke-width="2"
        opacity="1"
        fill="none"
        stroke-linecap="round" />
  <path id="segment-171-172"
        d="M 1504 -435 A 577.634301562682 577.634301562682 0 0 1 2060 318"
        stroke="#777777" 
        stroke-width="2"
        opacity="1"
        fill="none"
        stroke-linecap="round" />
  <path id="segment-172-173"
        d="M 2060 318 L -84 466"
        stroke="#777777" 
        stroke-width="2"
        opacity="1"
        fill="none"
        stroke-linecap="round" />
  <path id="segment-173-174"
        d="M -84 466 A 637.2679564575989 637.2679564575989 0 0 0 721 1090"
        stroke="#777777" 
        stroke-width="2"
        opacity="1"
        fill="none"
        stroke-linecap="round" />
  <path id="segment-174-175"
        d="M 721 1090 A 134.97828671907496 134.97828671907496 0 0 1 814 1221"
        stroke="#777777" 
        stroke-width="2"
        opacity="1"
        fill="none"
        stroke-linecap="round" />
  <path id="segment-175-176"
        d="M 814 1221 A 817.2333548404699 817.2333548404699 0 0 1 624 1771"
        stroke="#777777" 
        stroke-width="2"
        opacity="1"
        fill="none"
        stroke-linecap="round" />
  <path id="segment-176-177"
        d="M 624 1771 A 69.25724452392406 69.25724452392406 0 0 1 517 1783"
        stroke="#777777" 
        stroke-width="2"
        opacity="1"
        fill="none"
        stroke-linecap="round" />
  <path id="segment-177-178"
        d="M 517 1783 L -390 455"
        stroke="#777777" 
        stroke-width="2"
        opacity="1"
        fill="none"
        stroke-linecap="round" />
  <path id="segment-178-179"
        d="M -390 455 A 2431.319144622538 2431.319144622538 0 0 0 -1428 823"
        stroke="#777777" 
        stroke-width="2"
        opacity="1"
        fill="none"
        stroke-linecap="round" />
  <path id="segment-179-180"
        d="M -1428 823 A 365.646557493097 365.646557493097 0 0 1 -2002 621"
        stroke="#777777" 
        stroke-width="2"
        opacity="1"
        fill="none"
        stroke-linecap="round" />
  <path id="segment-180-178"
        d="M -2002 621 L -390 455"
        stroke="#777777" 
        stroke-width="2"
        opacity="1"
        fill="none"
        stroke-linecap="round" />
  <path id="segment-95-170"
        d="M 133 -345 L 293 -407"
        stroke="#777777" 
        stroke-width="2"
        opacity="1"
        fill="none"
        stroke-linecap="round" />
  <path id="segment-178-173"
        d="M -390 455 L -84 466"
        stroke="#777777" 
        stroke-width="2"
        opacity="1"
        fill="none"
        stroke-linecap="round" />
  <path id="segment-181-182"
        d="M -219 -183 L 1637 -183"
        stroke="#777777" 
        stroke-width="2"
        opacity="1"
        fill="none"
        stroke-linecap="round" />
  <path id="segment-183-184"
        d="M 1246 -197 L 1525 -257"
        stroke="#777777" 
        stroke-width="2"
        opacity="1"
        fill="none"
        stroke-linecap="round" />
  <path id="segment-184-182"
        d="M 1525 -257 A 92.28228556561916 92.28228556561916 0 0 1 1637 -183"
        stroke="#777777" 
        stroke-width="2"
        opacity="1"
        fill="none"
        stroke-linecap="round" />
  <path id="segment-186-187"
        d="M -1439 -138 L -653 -138"
        stroke="#ffffff" 
        stroke-width="2"
        opacity="1"
        fill="none"
        stroke-linecap="round" />
  <path id="segment-187-92"
        d="M -653 -138 A 719.2875366693372 719.2875366693372 0 0 0 -417 -176"
        stroke="#ffffff" 
        stroke-width="2"
        opacity="1"
        fill="none"
        stroke-linecap="round" />
  <path id="segment-56-55"
        d="M 1525 -176 A 204.39923902726107 204.39923902726107 0 0 1 1563.9426369554 229.54564920831"
        stroke="#ffffff" 
        stroke-width="2"
        opacity="1"
        fill="none"
        stroke-linecap="round" />
  <path id="segment-188-189"
        d="M -1105 -176 L -1073 -176"
        stroke="#ffffff" 
        stroke-width="2"
        opacity="1"
        fill="none"
        stroke-linecap="round" />
  <path id="segment-190-191"
        d="M -1034 -176 L -1002 -176"
        stroke="#ffffff" 
        stroke-width="2"
        opacity="1"
        fill="none"
        stroke-linecap="round" />
  <path id="segment-192-193"
        d="M -961 -176 L -929 -176"
        stroke="#ffffff" 
        stroke-width="2"
        opacity="1"
        fill="none"
        stroke-linecap="round" />
  <path id="segment-194-195"
        d="M -886 -176 L -854 -176"
        stroke="#ffffff" 
        stroke-width="2"
        opacity="1"
        fill="none"
        stroke-linecap="round" />
  <path id="segment-196-197"
        d="M -813 -176 L -781 -176"
        stroke="#ffffff" 
        stroke-width="2"
        opacity="1"
        fill="none"
        stroke-linecap="round" />
  <path id="segment-198-199"
        d="M -737 -176 L -705 -176"
        stroke="#ffffff" 
        stroke-width="2"
        opacity="1"
        fill="none"
        stroke-linecap="round" />
  <path id="segment-200-201"
        d="M -666 -176 L -634 -176"
        stroke="#ffffff" 
        stroke-width="2"
        opacity="1"
        fill="none"
        stroke-linecap="round" />
  <path id="segment-202-203"
        d="M -595 -176 L -563 -176"
        stroke="#ffffff" 
        stroke-width="2"
        opacity="1"
        fill="none"
        stroke-linecap="round" />
  <path id="segment-204-205"
        d="M -517 -176 L -485 -176"
        stroke="#ffffff" 
        stroke-width="2"
        opacity="1"
        fill="none"
        stroke-linecap="round" />
  <path id="segment-206-207"
        d="M 677 441 L 691 603"
        stroke="#ffffff" 
        stroke-width="2"
        opacity="1"
        fill="none"
        stroke-linecap="round" />
  
</svg>