<?xml version="1.0" encoding="UTF-8"?>
<svg xmlns="http://www.w3.org/2000/svg" 
     viewBox="-2819.6 -2602.4 5815.2 5212.8"
     width="5815.2" 
     height="5212.8"
     style="background-color: transparent;">
  
  <!-- Metadata -->
  <title>Shanghai International Circuit - By Ximb - NewgenV3 - Haxball Map</title>
  <desc>Generated from Haxball map file</desc>
  
  <!-- Coordinate metadata for frontend -->
  <metadata>
    <coordinates>{"viewBox":"-2819.6 -2602.4 5815.2 5212.8","bounds":{"minX":-2335,"maxX":2511,"minY":-2168,"maxY":2176},"padding":0.1,"generated":"2026-06-25T02:06:58.095Z"}</coordinates>
  </metadata>
  
  <!-- Definitions -->
  <defs>
    
    <!-- Arrow marker for direction -->
    <marker id="arrowhead" markerWidth="10" markerHeight="7" 
            refX="9" refY="3.5" orient="auto">
      <polygon points="0 0, 10 3.5, 0 7" fill="rgba(255,255,255,0.5)" />
    </marker>
  </defs>
  
  <!-- Background grid -->
  
  
  <!-- Map segments -->
  <path id="segment-2-1"
        d="M -965 -1450 L -965 855"
        stroke="#ffffff" 
        stroke-width="2"
        opacity="1"
        fill="none"
        stroke-linecap="round" />
  <path id="segment-5-4"
        d="M -966 -526 L -816 -526"
        stroke="#ffffff" 
        stroke-width="2"
        opacity="1"
        fill="none"
        stroke-linecap="round" />
  <path id="segment-6-7"
        d="M -934 -475 A 15 15 0 0 1 -904 -475"
        stroke="#df2407" 
        stroke-width="2"
        opacity="1"
        fill="none"
        stroke-linecap="round" />
  <path id="segment-12-13"
        d="M -874 -385 A 15 15 0 0 1 -844 -385"
        stroke="#ffffff" 
        stroke-width="2"
        opacity="1"
        fill="none"
        stroke-linecap="round" />
  <path id="segment-1-31"
        d="M -965 855 A 118.51244660372144 118.51244660372144 0 0 1 -1053 961"
        stroke="#df2407" 
        stroke-width="2"
        opacity="1"
        fill="none"
        stroke-linecap="round" />
  <path id="segment-31-32"
        d="M -1053 961 L -1520 1134"
        stroke="#ffffff" 
        stroke-width="2"
        opacity="1"
        fill="none"
        stroke-linecap="round" />
  <path id="segment-33-34"
        d="M -919 1075 L -1503 1284"
        stroke="#ffffff" 
        stroke-width="2"
        opacity="1"
        fill="none"
        stroke-linecap="round" />
  <path id="segment-34-35"
        d="M -1503 1284 A 734.6124118705699 734.6124118705699 0 0 0 -1788 1485"
        stroke="#df2407" 
        stroke-width="2"
        opacity="1"
        fill="none"
        stroke-linecap="round" />
  <path id="segment-35-36"
        d="M -1788 1485 L -2061 1792"
        stroke="#ffffff" 
        stroke-width="2"
        opacity="1"
        fill="none"
        stroke-linecap="round" />
  <path id="segment-37-38"
        d="M -1860 1377 L -2156.5 1708"
        stroke="#ffffff" 
        stroke-width="2"
        opacity="1"
        fill="none"
        stroke-linecap="round" />
  <path id="segment-32-37"
        d="M -1520 1134 A 920.2449283380315 920.2449283380315 0 0 0 -1860 1377"
        stroke="#ffffff" 
        stroke-width="2"
        opacity="1"
        fill="none"
        stroke-linecap="round" />
  <path id="segment-39-30"
        d="M -2005 1875 L 1917 319"
        stroke="#ffffff" 
        stroke-width="2"
        opacity="1"
        fill="none"
        stroke-linecap="round" />
  <path id="segment-41-40"
        d="M -1958 2000 L 2049.5 420.5"
        stroke="#ffffff" 
        stroke-width="2"
        opacity="1"
        fill="none"
        stroke-linecap="round" />
  <path id="segment-42-3"
        d="M -815 -916 L -815 904"
        stroke="#ffffff" 
        stroke-width="2"
        opacity="1"
        fill="none"
        stroke-linecap="round" />
  <path id="segment-43-0"
        d="M -815 -1110 L -815 -1450"
        stroke="#ffffff" 
        stroke-width="2"
        opacity="1"
        fill="none"
        stroke-linecap="round" />
  <path id="segment-0-44"
        d="M -815 -1450 A 386.8520719333113 386.8520719333113 0 0 1 -216 -1784"
        stroke="#df2407" 
        stroke-width="2"
        opacity="1"
        fill="none"
        stroke-linecap="round" />
  <path id="segment-44-45"
        d="M -216 -1784 A 305.19443991437544 305.19443991437544 0 0 1 -251 -1267"
        stroke="#df2407" 
        stroke-width="2"
        opacity="1"
        fill="none"
        stroke-linecap="round" />
  <path id="segment-45-46"
        d="M -251 -1267 A 136.5090437202349 136.5090437202349 0 0 1 -447 -1359"
        stroke="#df2407" 
        stroke-width="2"
        opacity="1"
        fill="none"
        stroke-linecap="round" />
  <path id="segment-47-48"
        d="M -399 -1158 A 224.2734207826563 224.2734207826563 0 0 1 -534 -1307"
        stroke="#ffffff" 
        stroke-width="2"
        opacity="1"
        fill="none"
        stroke-linecap="round" />
  <path id="segment-50-51"
        d="M -748 -1149 A 623.212232374377 623.212232374377 0 0 0 -420 -846"
        stroke="#ffffff" 
        stroke-width="2"
        opacity="1"
        fill="none"
        stroke-linecap="round" />
  <path id="segment-46-52"
        d="M -447 -1359 A 154.9958271705767 154.9958271705767 0 0 0 -700 -1416"
        stroke="#ffffff" 
        stroke-width="2"
        opacity="1"
        fill="none"
        stroke-linecap="round" />
  <path id="segment-47-53"
        d="M -399 -1158 A 234.39872245493515 234.39872245493515 0 0 0 -205 -1161"
        stroke="#ffffff" 
        stroke-width="2"
        opacity="1"
        fill="none"
        stroke-linecap="round" />
  <path id="segment-49-54"
        d="M -409 -976 A 246.37229755747222 246.37229755747222 0 0 0 -184 -999"
        stroke="#df2407" 
        stroke-width="2"
        opacity="1"
        fill="none"
        stroke-linecap="round" />
  <path id="segment-54-55"
        d="M -184 -999 L 640 -1637"
        stroke="#ffffff" 
        stroke-width="2"
        opacity="1"
        fill="none"
        stroke-linecap="round" />
  <path id="segment-56-57"
        d="M -131 -886 L 699 -1525"
        stroke="#ffffff" 
        stroke-width="2"
        opacity="1"
        fill="none"
        stroke-linecap="round" />
  <path id="segment-51-56"
        d="M -420 -846 A 314.1262534364393 314.1262534364393 0 0 0 -131 -886"
        stroke="#ffffff" 
        stroke-width="2"
        opacity="1"
        fill="none"
        stroke-linecap="round" />
  <path id="segment-57-58"
        d="M 699 -1525 A 313.4838170419105 313.4838170419105 0 0 1 877 -1588"
        stroke="#df2407" 
        stroke-width="2"
        opacity="1"
        fill="none"
        stroke-linecap="round" />
  <path id="segment-58-59"
        d="M 877 -1588 L 1432 -1572"
        stroke="#ffffff" 
        stroke-width="2"
        opacity="1"
        fill="none"
        stroke-linecap="round" />
  <path id="segment-60-61"
        d="M 894 -1726 L 1430 -1706"
        stroke="#ffffff" 
        stroke-width="2"
        opacity="1"
        fill="none"
        stroke-linecap="round" />
  <path id="segment-55-60"
        d="M 640 -1637 A 421.16288459790263 421.16288459790263 0 0 1 894 -1726"
        stroke="#ffffff" 
        stroke-width="2"
        opacity="1"
        fill="none"
        stroke-linecap="round" />
  <path id="segment-62-63"
        d="M 1469 -1469 A 793.3153026661734 793.3153026661734 0 0 1 1199 -1319"
        stroke="#df2407" 
        stroke-width="2"
        opacity="1"
        fill="none"
        stroke-linecap="round" />
  <path id="segment-63-64"
        d="M 1199 -1319 L 790 -1202"
        stroke="#ffffff" 
        stroke-width="2"
        opacity="1"
        fill="none"
        stroke-linecap="round" />
  <path id="segment-65-66"
        d="M 1222 -1193 L 816 -1072"
        stroke="#ffffff" 
        stroke-width="2"
        opacity="1"
        fill="none"
        stroke-linecap="round" />
  <path id="segment-65-67"
        d="M 1222 -1193 A 912.7505406910461 912.7505406910461 0 0 0 1558 -1376"
        stroke="#ffffff" 
        stroke-width="2"
        opacity="1"
        fill="none"
        stroke-linecap="round" />
  <path id="segment-66-68"
        d="M 816 -1072 A 299.2852867556237 299.2852867556237 0 0 0 788 -529"
        stroke="#df2407" 
        stroke-width="2"
        opacity="1"
        fill="none"
        stroke-linecap="round" />
  <path id="segment-68-69"
        d="M 788 -529 L 958 -453.5"
        stroke="#ffffff" 
        stroke-width="2"
        opacity="1"
        fill="none"
        stroke-linecap="round" />
  <path id="segment-70-71"
        d="M 734 -413 L 907 -336"
        stroke="#ffffff" 
        stroke-width="2"
        opacity="1"
        fill="none"
        stroke-linecap="round" />
  <path id="segment-73-74"
        d="M 2091 -362 A 388.8457018747599 388.8457018747599 0 0 0 1743 -440"
        stroke="#df2407" 
        stroke-width="2"
        opacity="1"
        fill="none"
        stroke-linecap="round" />
  <path id="segment-74-75"
        d="M 1743 -440 A 196.74913063454176 196.74913063454176 0 0 0 1611 -232"
        stroke="#df2407" 
        stroke-width="2"
        opacity="1"
        fill="none"
        stroke-linecap="round" />
  <path id="segment-75-76"
        d="M 1611 -232 A 289.1449652756743 289.1449652756743 0 0 0 1727 -46"
        stroke="#df2407" 
        stroke-width="2"
        opacity="1"
        fill="none"
        stroke-linecap="round" />
  <path id="segment-77-78"
        d="M 1503 -214 A 390.45110578738394 390.45110578738394 0 0 0 1655 31"
        stroke="#ffffff" 
        stroke-width="2"
        opacity="1"
        fill="none"
        stroke-linecap="round" />
  <path id="segment-80-79"
        d="M 784 655 L 1701.5 280.5"
        stroke="#ffffff" 
        stroke-width="2"
        opacity="1"
        fill="none"
        stroke-linecap="round" />
  <path id="segment-82-81"
        d="M 733 517 L 1638 150"
        stroke="#ffffff" 
        stroke-width="2"
        opacity="1"
        fill="none"
        stroke-linecap="round" />
  <path id="segment-72-83"
        d="M 792 103 A 999.8549400531545 999.8549400531545 0 0 1 574 42"
        stroke="#ffffff" 
        stroke-width="2"
        opacity="1"
        fill="none"
        stroke-linecap="round" />
  <path id="segment-84-85"
        d="M 787 233 A 961.8786146798477 961.8786146798477 0 0 1 569 169"
        stroke="#ffffff" 
        stroke-width="2"
        opacity="1"
        fill="none"
        stroke-linecap="round" />
  <path id="segment-85-86"
        d="M 569 169 A 53.6813088970247 53.6813088970247 0 0 0 506 245"
        stroke="#df2407" 
        stroke-width="2"
        opacity="1"
        fill="none"
        stroke-linecap="round" />
  <path id="segment-86-87"
        d="M 506 245 L 662 496"
        stroke="#ffffff" 
        stroke-width="2"
        opacity="1"
        fill="none"
        stroke-linecap="round" />
  <path id="segment-87-82"
        d="M 662 496 A 57.21747661653557 57.21747661653557 0 0 0 733 517"
        stroke="#df2407" 
        stroke-width="2"
        opacity="1"
        fill="none"
        stroke-linecap="round" />
  <path id="segment-88-89"
        d="M 377.5 284.5 L 536 556"
        stroke="#ffffff" 
        stroke-width="2"
        opacity="1"
        fill="none"
        stroke-linecap="round" />
  <path id="segment-83-88"
        d="M 574 42 A 163.14658975852035 163.14658975852035 0 0 0 377.5 284.5"
        stroke="#ffffff" 
        stroke-width="2"
        opacity="1"
        fill="none"
        stroke-linecap="round" />
  <path id="segment-89-80"
        d="M 536 556 A 199.01352673802228 199.01352673802228 0 0 0 784 655"
        stroke="#ffffff" 
        stroke-width="2"
        opacity="1"
        fill="none"
        stroke-linecap="round" />
  <path id="segment-81-78"
        d="M 1638 150 A 71.8333195034783 71.8333195034783 0 0 0 1655 31"
        stroke="#df2407" 
        stroke-width="2"
        opacity="1"
        fill="none"
        stroke-linecap="round" />
  <path id="segment-79-76"
        d="M 1701.5 280.5 A 188.23433227167382 188.23433227167382 0 0 0 1727 -46"
        stroke="#ffffff" 
        stroke-width="2"
        opacity="1"
        fill="none"
        stroke-linecap="round" />
  <path id="segment-90-91"
        d="M 2201 -462 A 483.1514803330364 483.1514803330364 0 0 0 1732 -567"
        stroke="#ffffff" 
        stroke-width="2"
        opacity="1"
        fill="none"
        stroke-linecap="round" />
  <path id="segment-91-77"
        d="M 1732 -567 A 316.25965811318235 316.25965811318235 0 0 0 1503 -214"
        stroke="#ffffff" 
        stroke-width="2"
        opacity="1"
        fill="none"
        stroke-linecap="round" />
  <path id="segment-36-39"
        d="M -2061 1792 A 53.32514690555492 53.32514690555492 0 0 0 -2005 1875"
        stroke="#df2407" 
        stroke-width="2"
        opacity="1"
        fill="none"
        stroke-linecap="round" />
  <path id="segment-9-8"
        d="M -874 -445 A 15 15 0 0 1 -844 -445"
        stroke="#ffffff" 
        stroke-width="2"
        opacity="1"
        fill="none"
        stroke-linecap="round" />
  <path id="segment-10-11"
        d="M -934 -415 A 15 15 0 0 1 -904 -415"
        stroke="#ffffff" 
        stroke-width="2"
        opacity="1"
        fill="none"
        stroke-linecap="round" />
  <path id="segment-14-15"
        d="M -934 -359 A 15 15 0 0 1 -904 -359"
        stroke="#ffffff" 
        stroke-width="2"
        opacity="1"
        fill="none"
        stroke-linecap="round" />
  <path id="segment-17-16"
        d="M -874 -329 A 15 15 0 0 1 -844 -329"
        stroke="#ffdf00" 
        stroke-width="2"
        opacity="1"
        fill="none"
        stroke-linecap="round" />
  <path id="segment-18-19"
        d="M -934 -300 A 15 15 0 0 1 -904 -300"
        stroke="#ffdf00" 
        stroke-width="2"
        opacity="1"
        fill="none"
        stroke-linecap="round" />
  <path id="segment-21-20"
        d="M -874 -270 A 15 15 0 0 1 -844 -270"
        stroke="#ffdf00" 
        stroke-width="2"
        opacity="1"
        fill="none"
        stroke-linecap="round" />
  <path id="segment-22-23"
        d="M -934 -239 A 15 15 0 0 1 -904 -239"
        stroke="#ffdf00" 
        stroke-width="2"
        opacity="1"
        fill="none"
        stroke-linecap="round" />
  <path id="segment-25-24"
        d="M -874 -209 A 15 15 0 0 1 -844 -209"
        stroke="#ffdf00" 
        stroke-width="2"
        opacity="1"
        fill="none"
        stroke-linecap="round" />
  <path id="segment-29-28"
        d="M -874 -149 A 15 15 0 0 1 -844 -149"
        stroke="#ffdf00" 
        stroke-width="2"
        opacity="1"
        fill="none"
        stroke-linecap="round" />
  <path id="segment-26-27"
        d="M -934 -179 A 15 15 0 0 1 -904 -179"
        stroke="#ffdf00" 
        stroke-width="2"
        opacity="1"
        fill="none"
        stroke-linecap="round" />
  <path id="segment-93-92"
        d="M -874 -329 A 15 15 0 0 1 -844 -329"
        stroke="#ffffff" 
        stroke-width="2"
        opacity="1"
        fill="none"
        stroke-linecap="round" />
  <path id="segment-94-95"
        d="M -934 -300 A 15 15 0 0 1 -904 -300"
        stroke="#ffffff" 
        stroke-width="2"
        opacity="1"
        fill="none"
        stroke-linecap="round" />
  <path id="segment-97-96"
        d="M -874 -270 A 15 15 0 0 1 -844 -270"
        stroke="#ffffff" 
        stroke-width="2"
        opacity="1"
        fill="none"
        stroke-linecap="round" />
  <path id="segment-98-99"
        d="M -934 -239 A 15 15 0 0 1 -904 -239"
        stroke="#ffffff" 
        stroke-width="2"
        opacity="1"
        fill="none"
        stroke-linecap="round" />
  <path id="segment-101-100"
        d="M -874 -209 A 15 15 0 0 1 -844 -209"
        stroke="#ffffff" 
        stroke-width="2"
        opacity="1"
        fill="none"
        stroke-linecap="round" />
  <path id="segment-105-104"
        d="M -874 -149 A 15 15 0 0 1 -844 -149"
        stroke="#ffffff" 
        stroke-width="2"
        opacity="1"
        fill="none"
        stroke-linecap="round" />
  <path id="segment-102-103"
        d="M -934 -179 A 15 15 0 0 1 -904 -179"
        stroke="#ffffff" 
        stroke-width="2"
        opacity="1"
        fill="none"
        stroke-linecap="round" />
  <path id="segment-106-107"
        d="M -933 -122 A 15 15 0 0 1 -903 -122"
        stroke="#ffffff" 
        stroke-width="2"
        opacity="1"
        fill="none"
        stroke-linecap="round" />
  <path id="segment-109-108"
        d="M -873 -92 A 15 15 0 0 1 -843 -92"
        stroke="#ffdf00" 
        stroke-width="2"
        opacity="1"
        fill="none"
        stroke-linecap="round" />
  <path id="segment-110-111"
        d="M -934 -65 A 15 15 0 0 1 -904 -65"
        stroke="#ffdf00" 
        stroke-width="2"
        opacity="1"
        fill="none"
        stroke-linecap="round" />
  <path id="segment-113-112"
        d="M -874 -35 A 15 15 0 0 1 -844 -35"
        stroke="#ffdf00" 
        stroke-width="2"
        opacity="1"
        fill="none"
        stroke-linecap="round" />
  <path id="segment-114-115"
        d="M -933 -4 A 15 15 0 0 1 -903 -4"
        stroke="#ffdf00" 
        stroke-width="2"
        opacity="1"
        fill="none"
        stroke-linecap="round" />
  <path id="segment-117-116"
        d="M -873 26 A 15 15 0 0 1 -843 26"
        stroke="#ffdf00" 
        stroke-width="2"
        opacity="1"
        fill="none"
        stroke-linecap="round" />
  <path id="segment-118-119"
        d="M -933 57 A 15 15 0 0 1 -903 57"
        stroke="#ffdf00" 
        stroke-width="2"
        opacity="1"
        fill="none"
        stroke-linecap="round" />
  <path id="segment-121-120"
        d="M -873 -92 A 15 15 0 0 1 -843 -92"
        stroke="#ffffff" 
        stroke-width="2"
        opacity="1"
        fill="none"
        stroke-linecap="round" />
  <path id="segment-122-123"
        d="M -934 -65 A 15 15 0 0 1 -904 -65"
        stroke="#ffffff" 
        stroke-width="2"
        opacity="1"
        fill="none"
        stroke-linecap="round" />
  <path id="segment-125-124"
        d="M -874 -35 A 15 15 0 0 1 -844 -35"
        stroke="#ffffff" 
        stroke-width="2"
        opacity="1"
        fill="none"
        stroke-linecap="round" />
  <path id="segment-126-127"
        d="M -933 -4 A 15 15 0 0 1 -903 -4"
        stroke="#ffffff" 
        stroke-width="2"
        opacity="1"
        fill="none"
        stroke-linecap="round" />
  <path id="segment-129-128"
        d="M -873 26 A 15 15 0 0 1 -843 26"
        stroke="#ffffff" 
        stroke-width="2"
        opacity="1"
        fill="none"
        stroke-linecap="round" />
  <path id="segment-130-131"
        d="M -933 57 A 15 15 0 0 1 -903 57"
        stroke="#ffffff" 
        stroke-width="2"
        opacity="1"
        fill="none"
        stroke-linecap="round" />
  <path id="segment-133-132"
        d="M -876 91 A 15 15 0 0 1 -846 91"
        stroke="#ffdf00" 
        stroke-width="2"
        opacity="1"
        fill="none"
        stroke-linecap="round" />
  <path id="segment-135-134"
        d="M -876 91 A 15 15 0 0 1 -846 91"
        stroke="#ffffff" 
        stroke-width="2"
        opacity="1"
        fill="none"
        stroke-linecap="round" />
  <path id="segment-136-137"
        d="M -994 667 L -994 -2168"
        stroke="#fae03c" 
        stroke-width="2"
        opacity="1"
        fill="none"
        stroke-linecap="round" />
  <path id="segment-52-50"
        d="M -700 -1416 A 235.05534057431916 235.05534057431916 0 0 0 -748 -1149"
        stroke="#ffffff" 
        stroke-width="2"
        opacity="1"
        fill="none"
        stroke-linecap="round" />
  <path id="segment-138-139"
        d="M 1701 -1803 A 279.3329465930752 279.3329465930752 0 0 1 1726 -1246"
        stroke="#fae03c" 
        stroke-width="2"
        opacity="1"
        fill="none"
        stroke-linecap="round" />
  <path id="segment-139-140"
        d="M 1726 -1246 A 5300.0180523308645 5300.0180523308645 0 0 0 822 -1055.5"
        stroke="#ff8800" 
        stroke-width="2"
        opacity="1"
        fill="none"
        stroke-linecap="round" />
  <path id="segment-140-141"
        d="M 822 -1055.5 A 281.23509338745777 281.23509338745777 0 0 0 799 -545"
        stroke="#fae03c" 
        stroke-width="2"
        opacity="1"
        fill="none"
        stroke-linecap="round" />
  <path id="segment-141-142"
        d="M 799 -545 A 13732.143041624091 13732.143041624091 0 0 1 1107 -414"
        stroke="#fae03c" 
        stroke-width="2"
        opacity="1"
        fill="none"
        stroke-linecap="round" />
  <path id="segment-145-146"
        d="M 574.5 191.5 A 36.67058414551142 36.67058414551142 0 0 0 519.5 237"
        stroke="#fae03c" 
        stroke-width="2"
        opacity="1"
        fill="none"
        stroke-linecap="round" />
  <path id="segment-146-144"
        d="M 519.5 237 L 646 413.5"
        stroke="#fae03c" 
        stroke-width="2"
        opacity="1"
        fill="none"
        stroke-linecap="round" />
  <path id="segment-143-147"
        d="M 795 457 L 1485 158"
        stroke="#fae03c" 
        stroke-width="2"
        opacity="1"
        fill="none"
        stroke-linecap="round" />
  <path id="segment-64-70"
        d="M 790 -1202 A 421.40328539753176 421.40328539753176 0 0 0 734 -413"
        stroke="#ffffff" 
        stroke-width="2"
        opacity="1"
        fill="none"
        stroke-linecap="round" />
  <path id="segment-59-62"
        d="M 1432 -1572 A 59.2861534796532 59.2861534796532 0 0 1 1469 -1469"
        stroke="#df2407" 
        stroke-width="2"
        opacity="1"
        fill="none"
        stroke-linecap="round" />
  <path id="segment-67-61"
        d="M 1558 -1376 A 193.78305165192745 193.78305165192745 0 0 0 1430 -1706"
        stroke="#ffffff" 
        stroke-width="2"
        opacity="1"
        fill="none"
        stroke-linecap="round" />
  <path id="segment-90-40"
        d="M 2201 -462 A 547.4833875049941 547.4833875049941 0 0 1 2049.5 420.5"
        stroke="#ffffff" 
        stroke-width="2"
        opacity="1"
        fill="none"
        stroke-linecap="round" />
  <path id="segment-38-41"
        d="M -2156.5 1708 A 180.12291228406826 180.12291228406826 0 0 0 -1958 2000"
        stroke="#ffffff" 
        stroke-width="2"
        opacity="1"
        fill="none"
        stroke-linecap="round" />
  <path id="segment-148-149"
        d="M 1468 -607 A 645.0249006183872 645.0249006183872 0 0 1 2511 -159"
        stroke="#fae03c" 
        stroke-width="2"
        opacity="1"
        fill="none"
        stroke-linecap="round" />
  <path id="segment-149-150"
        d="M 2511 -159 A 562.666763601895 562.666763601895 0 0 1 2214 383"
        stroke="#fae03c" 
        stroke-width="2"
        opacity="1"
        fill="none"
        stroke-linecap="round" />
  <path id="segment-150-151"
        d="M 2214 383 L -2335 2176"
        stroke="#ff8800" 
        stroke-width="2"
        opacity="1"
        fill="none"
        stroke-linecap="round" />
  <path id="segment-151-152"
        d="M -2335 2176 A 565.1201001459826 565.1201001459826 0 0 1 -2132 1316"
        stroke="#fae03c" 
        stroke-width="2"
        opacity="1"
        fill="none"
        stroke-linecap="round" />
  <path id="segment-152-153"
        d="M -2132 1316 L -1164 890"
        stroke="#fae03c" 
        stroke-width="2"
        opacity="1"
        fill="none"
        stroke-linecap="round" />
  <path id="segment-136-153"
        d="M -994 667 A 259.1812716599004 259.1812716599004 0 0 1 -1164 890"
        stroke="#fae03c" 
        stroke-width="2"
        opacity="1"
        fill="none"
        stroke-linecap="round" />
  <path id="segment-155-156"
        d="M -777 -813 L -777 629"
        stroke="#ffffff" 
        stroke-width="2"
        opacity="1"
        fill="none"
        stroke-linecap="round" />
  <path id="segment-157-154"
        d="M -714 626 L -714 -811"
        stroke="#ffffff" 
        stroke-width="2"
        opacity="1"
        fill="none"
        stroke-linecap="round" />
  <path id="segment-159-160"
        d="M -800 -1115 L -800 -1448"
        stroke="#ff8800" 
        stroke-width="2"
        opacity="1"
        fill="none"
        stroke-linecap="round" />
  <path id="segment-161-162"
        d="M 1129 -1559.5 L 1434 -1556"
        stroke="#ff8800" 
        stroke-width="2"
        opacity="1"
        fill="none"
        stroke-linecap="round" />
  <path id="segment-162-163"
        d="M 1434 -1556 A 40.14828349758298 40.14828349758298 0 0 1 1449 -1478.5"
        stroke="#fae03c" 
        stroke-width="2"
        opacity="1"
        fill="none"
        stroke-linecap="round" />
  <path id="segment-163-164"
        d="M 1449 -1478.5 A 3044.098751378222 3044.098751378222 0 0 1 570 -1225"
        stroke="#fae03c" 
        stroke-width="2"
        opacity="1"
        fill="none"
        stroke-linecap="round" />
  <path id="segment-165-166"
        d="M 736 2 A 328.058621015176 328.058621015176 0 0 0 263 135"
        stroke="#fae03c" 
        stroke-width="2"
        opacity="1"
        fill="none"
        stroke-linecap="round" />
  <path id="segment-166-167"
        d="M 263 135 L -217 1143"
        stroke="#fae03c" 
        stroke-width="2"
        opacity="1"
        fill="none"
        stroke-linecap="round" />
  <path id="segment-167-168"
        d="M -217 1143 L 1711.5 301.5"
        stroke="#ff8800" 
        stroke-width="2"
        opacity="1"
        fill="none"
        stroke-linecap="round" />
  <path id="segment-170-169"
        d="M -1034.5 1129.5 A 2738.8713995122466 2738.8713995122466 0 0 0 -1971 1720"
        stroke="#fae03c" 
        stroke-width="2"
        opacity="1"
        fill="none"
        stroke-linecap="round" />
  <path id="segment-171-172"
        d="M -792 843 L -792 -817"
        stroke="#ff8800" 
        stroke-width="2"
        opacity="1"
        fill="none"
        stroke-linecap="round" />
  <path id="segment-0-2"
        d="M -815 -1450 L -965 -1450"
        stroke="#ffffff" 
        stroke-width="2"
        opacity="1"
        fill="none"
        stroke-linecap="round" />
  <path id="segment-173-174"
        d="M -888 -1102 L -888 -1450"
        stroke="#ffffff" 
        stroke-width="2"
        opacity="1"
        fill="none"
        stroke-linecap="round" />
  <path id="segment-3-33"
        d="M -815 904 A 177.0783529007123 177.0783529007123 0 0 1 -919 1075"
        stroke="#ffffff" 
        stroke-width="2"
        opacity="1"
        fill="none"
        stroke-linecap="round" />
  <path id="segment-176-177"
        d="M -714 -526 L -639 -526"
        stroke="#222222" 
        stroke-width="2"
        opacity="1"
        fill="none"
        stroke-linecap="round" />
  <path id="segment-178-179"
        d="M -714 474 L -639 474"
        stroke="#222222" 
        stroke-width="2"
        opacity="1"
        fill="none"
        stroke-linecap="round" />
  <path id="segment-156-180"
        d="M -777 629 A 194.06005768729335 194.06005768729335 0 0 0 -635 804"
        stroke="#fae03c" 
        stroke-width="2"
        opacity="1"
        fill="none"
        stroke-linecap="round" />
  <path id="segment-180-175"
        d="M -635 804 A 49.84924587242605 49.84924587242605 0 0 1 -634 899"
        stroke="#fae03c" 
        stroke-width="2"
        opacity="1"
        fill="none"
        stroke-linecap="round" />
  <path id="segment-157-181"
        d="M -714 626 A 120.99717461681217 120.99717461681217 0 0 0 -630 740"
        stroke="#fae03c" 
        stroke-width="2"
        opacity="1"
        fill="none"
        stroke-linecap="round" />
  <path id="segment-181-182"
        d="M -630 740 A 118.20559741295169 118.20559741295169 0 0 1 -613 964"
        stroke="#fae03c" 
        stroke-width="2"
        opacity="1"
        fill="none"
        stroke-linecap="round" />
  <path id="segment-182-33"
        d="M -613 964 A 13402.050869056771 13402.050869056771 0 0 1 -919 1075"
        stroke="#ffffff" 
        stroke-width="2"
        opacity="1"
        fill="none"
        stroke-linecap="round" />
  <path id="segment-177-158"
        d="M -639 -526 L -652 -775"
        stroke="#fae03c" 
        stroke-width="2"
        opacity="1"
        fill="none"
        stroke-linecap="round" />
  <path id="segment-154-183"
        d="M -714 -811 A 260.15935960486206 260.15935960486206 0 0 0 -737 -897"
        stroke="#ffffff" 
        stroke-width="2"
        opacity="1"
        fill="none"
        stroke-linecap="round" />
  <path id="segment-183-184"
        d="M -737 -897 L -805 -1040"
        stroke="#ffffff" 
        stroke-width="2"
        opacity="1"
        fill="none"
        stroke-linecap="round" />
  <path id="segment-184-43"
        d="M -805 -1040 A 229.93894468434107 229.93894468434107 0 0 1 -815 -1110"
        stroke="#ffffff" 
        stroke-width="2"
        opacity="1"
        fill="none"
        stroke-linecap="round" />
  <path id="segment-173-185"
        d="M -888 -1102 A 180.4159776335389 180.4159776335389 0 0 0 -865 -1015"
        stroke="#ffffff" 
        stroke-width="2"
        opacity="1"
        fill="none"
        stroke-linecap="round" />
  <path id="segment-185-186"
        d="M -865 -1015 L -789 -863"
        stroke="#ffffff" 
        stroke-width="2"
        opacity="1"
        fill="none"
        stroke-linecap="round" />
  <path id="segment-186-155"
        d="M -789 -863 A 92.38999139455282 92.38999139455282 0 0 1 -777 -813"
        stroke="#ffffff" 
        stroke-width="2"
        opacity="1"
        fill="none"
        stroke-linecap="round" />
  <path id="segment-2-187"
        d="M -965 -1450 A 523.5543676125245 523.5543676125245 0 0 1 -151 -1896"
        stroke="#ffffff" 
        stroke-width="2"
        opacity="1"
        fill="none"
        stroke-linecap="round" />
  <path id="segment-187-53"
        d="M -151 -1896 A 438.885340652616 438.885340652616 0 0 1 -205 -1161"
        stroke="#ffffff" 
        stroke-width="2"
        opacity="1"
        fill="none"
        stroke-linecap="round" />
  <path id="segment-48-188"
        d="M -534 -1307 A 56.28761761555613 56.28761761555613 0 0 0 -630 -1330"
        stroke="#df2407" 
        stroke-width="2"
        opacity="1"
        fill="none"
        stroke-linecap="round" />
  <path id="segment-188-189"
        d="M -630 -1330 A 122.96786366507138 122.96786366507138 0 0 0 -642 -1187"
        stroke="#df2407" 
        stroke-width="2"
        opacity="1"
        fill="none"
        stroke-linecap="round" />
  <path id="segment-189-49"
        d="M -642 -1187 A 482.0769144529755 482.0769144529755 0 0 0 -409 -976"
        stroke="#ffffff" 
        stroke-width="2"
        opacity="1"
        fill="none"
        stroke-linecap="round" />
  <path id="segment-71-190"
        d="M 907 -336 A 215.9812285352876 215.9812285352876 0 0 1 982 -6"
        stroke="#df2407" 
        stroke-width="2"
        opacity="1"
        fill="none"
        stroke-linecap="round" />
  <path id="segment-190-191"
        d="M 982 -6 L 930 57"
        stroke="#ffffff" 
        stroke-width="2"
        opacity="1"
        fill="none"
        stroke-linecap="round" />
  <path id="segment-191-72"
        d="M 930 57 A 142.49780700066924 142.49780700066924 0 0 1 792 103"
        stroke="#df2407" 
        stroke-width="2"
        opacity="1"
        fill="none"
        stroke-linecap="round" />
  <path id="segment-69-192"
        d="M 958 -453.5 A 357.27023457332575 357.27023457332575 0 0 1 1101.5 74.5"
        stroke="#ffffff" 
        stroke-width="2"
        opacity="1"
        fill="none"
        stroke-linecap="round" />
  <path id="segment-192-193"
        d="M 1101.5 74.5 L 1048.5 140.5"
        stroke="#ffffff" 
        stroke-width="2"
        opacity="1"
        fill="none"
        stroke-linecap="round" />
  <path id="segment-193-84"
        d="M 1048.5 140.5 A 307.7539044634637 307.7539044634637 0 0 1 787 233"
        stroke="#ffffff" 
        stroke-width="2"
        opacity="1"
        fill="none"
        stroke-linecap="round" />
  <path id="segment-30-194"
        d="M 1917 319 A 444.9295493569513 444.9295493569513 0 0 0 2211 -96"
        stroke="#df2407" 
        stroke-width="2"
        opacity="1"
        fill="none"
        stroke-linecap="round" />
  <path id="segment-194-73"
        d="M 2211 -96 A 391.6684443881069 391.6684443881069 0 0 0 2091 -362"
        stroke="#df2407" 
        stroke-width="2"
        opacity="1"
        fill="none"
        stroke-linecap="round" />
  <path id="segment-195-196"
        d="M -933 118 A 15 15 0 0 1 -903 118"
        stroke="#ffdf00" 
        stroke-width="2"
        opacity="1"
        fill="none"
        stroke-linecap="round" />
  <path id="segment-197-198"
        d="M -933 118 A 15 15 0 0 1 -903 118"
        stroke="#ffffff" 
        stroke-width="2"
        opacity="1"
        fill="none"
        stroke-linecap="round" />
  <path id="segment-200-199"
        d="M -876 152 A 15 15 0 0 1 -846 152"
        stroke="#ffdf00" 
        stroke-width="2"
        opacity="1"
        fill="none"
        stroke-linecap="round" />
  <path id="segment-202-201"
        d="M -876 152 A 15 15 0 0 1 -846 152"
        stroke="#ffffff" 
        stroke-width="2"
        opacity="1"
        fill="none"
        stroke-linecap="round" />
  <path id="segment-160-203"
        d="M -800 -1448 A 373.2234013649027 373.2234013649027 0 0 1 -223 -1774"
        stroke="#fae03c" 
        stroke-width="2"
        opacity="1"
        fill="none"
        stroke-linecap="round" />
  <path id="segment-203-204"
        d="M -223 -1774 A 301.71370237133044 301.71370237133044 0 0 1 -252 -1279"
        stroke="#fae03c" 
        stroke-width="2"
        opacity="1"
        fill="none"
        stroke-linecap="round" />
  <path id="segment-205-206"
        d="M -553 -1299 A 39.66446515603328 39.66446515603328 0 0 0 -624 -1306.5"
        stroke="#fae03c" 
        stroke-width="2"
        opacity="1"
        fill="none"
        stroke-linecap="round" />
  <path id="segment-206-207"
        d="M -624 -1306.5 A 109.29386171900555 109.29386171900555 0 0 0 -617 -1195"
        stroke="#fae03c" 
        stroke-width="2"
        opacity="1"
        fill="none"
        stroke-linecap="round" />
  <path id="segment-207-208"
        d="M -617 -1195 A 510.1413208638368 510.1413208638368 0 0 0 -399 -994"
        stroke="#fae03c" 
        stroke-width="2"
        opacity="1"
        fill="none"
        stroke-linecap="round" />
  <path id="segment-208-209"
        d="M -399 -994 A 189.301948078704 189.301948078704 0 0 0 -200 -1016"
        stroke="#fae03c" 
        stroke-width="2"
        opacity="1"
        fill="none"
        stroke-linecap="round" />
  <path id="segment-212-213"
        d="M 899 -324.5 A 201.61878019359094 201.61878019359094 0 0 1 970 -14.5"
        stroke="#fae03c" 
        stroke-width="2"
        opacity="1"
        fill="none"
        stroke-linecap="round" />
  <path id="segment-214-215"
        d="M 1738.5 -61.5 A 264.4447560298834 264.4447560298834 0 0 1 1625.5 -232.5"
        stroke="#fae03c" 
        stroke-width="2"
        opacity="1"
        fill="none"
        stroke-linecap="round" />
  <path id="segment-215-216"
        d="M 1625.5 -232.5 A 182.88917654936844 182.88917654936844 0 0 1 1747 -426.5"
        stroke="#fae03c" 
        stroke-width="2"
        opacity="1"
        fill="none"
        stroke-linecap="round" />
  <path id="segment-216-217"
        d="M 1747 -426.5 A 344.4505745688585 344.4505745688585 0 0 1 2082 -349.5"
        stroke="#fae03c" 
        stroke-width="2"
        opacity="1"
        fill="none"
        stroke-linecap="round" />
  <path id="segment-217-218"
        d="M 2082 -349.5 A 384.31282402770506 384.31282402770506 0 0 1 2196 -100.5"
        stroke="#fae03c" 
        stroke-width="2"
        opacity="1"
        fill="none"
        stroke-linecap="round" />
  <path id="segment-218-219"
        d="M 2196 -100.5 A 433.1337564105476 433.1337564105476 0 0 1 1913.5 305"
        stroke="#fae03c" 
        stroke-width="2"
        opacity="1"
        fill="none"
        stroke-linecap="round" />
  <path id="segment-220-221"
        d="M -2049 1802 A 37.52087394764526 37.52087394764526 0 0 0 -2010.5 1861"
        stroke="#fae03c" 
        stroke-width="2"
        opacity="1"
        fill="none"
        stroke-linecap="round" />
  <path id="segment-220-169"
        d="M -2049 1802 L -1971 1720"
        stroke="#fae03c" 
        stroke-width="2"
        opacity="1"
        fill="none"
        stroke-linecap="round" />
  <path id="segment-211-222"
        d="M -189 -1104 L 598 -1694"
        stroke="#fae03c" 
        stroke-width="2"
        opacity="1"
        fill="none"
        stroke-linecap="round" />
  <path id="segment-222-223"
        d="M 598 -1694 A 596.1734157193235 596.1734157193235 0 0 1 865 -1798"
        stroke="#fae03c" 
        stroke-width="2"
        opacity="1"
        fill="none"
        stroke-linecap="round" />
  <path id="segment-223-138"
        d="M 865 -1798 L 1701 -1803"
        stroke="#fae03c" 
        stroke-width="2"
        opacity="1"
        fill="none"
        stroke-linecap="round" />
  <path id="segment-223-224"
        d="M 865 -1798 A 1367.0772537033063 1367.0772537033063 0 0 1 137 -1967"
        stroke="#fae03c" 
        stroke-width="2"
        opacity="1"
        fill="none"
        stroke-linecap="round" />
  <path id="segment-137-224"
        d="M -994 -2168 A 1975.345469306237 1975.345469306237 0 0 1 137 -1967"
        stroke="#fae03c" 
        stroke-width="2"
        opacity="1"
        fill="none"
        stroke-linecap="round" />
  <path id="segment-225-203"
        d="M -302 -1533 A 138.61313159866614 138.61313159866614 0 0 0 -223 -1774"
        stroke="#fae03c" 
        stroke-width="2"
        opacity="1"
        fill="none"
        stroke-linecap="round" />
  <path id="segment-204-225"
        d="M -252 -1279 A 132.93155138937814 132.93155138937814 0 0 1 -302 -1533"
        stroke="#fae03c" 
        stroke-width="2"
        opacity="1"
        fill="none"
        stroke-linecap="round" />
  <path id="segment-226-161"
        d="M 535 -1375 A 1017.1728971272732 1017.1728971272732 0 0 1 1129 -1559.5"
        stroke="#fae03c" 
        stroke-width="2"
        opacity="1"
        fill="none"
        stroke-linecap="round" />
  <path id="segment-212-227"
        d="M 899 -324.5 L 451 -515"
        stroke="#ff8800" 
        stroke-width="2"
        opacity="1"
        fill="none"
        stroke-linecap="round" />
  <path id="segment-227-164"
        d="M 451 -515 A 377.17106171158775 377.17106171158775 0 0 1 570 -1225"
        stroke="#fae03c" 
        stroke-width="2"
        opacity="1"
        fill="none"
        stroke-linecap="round" />
  <path id="segment-165-213"
        d="M 736 2 A 175.05385868870718 175.05385868870718 0 0 0 970 -14.5"
        stroke="#fae03c" 
        stroke-width="2"
        opacity="1"
        fill="none"
        stroke-linecap="round" />
  <path id="segment-142-228"
        d="M 1107 -414 A 373.908517811683 373.908517811683 0 0 1 969 291"
        stroke="#fae03c" 
        stroke-width="2"
        opacity="1"
        fill="none"
        stroke-linecap="round" />
  <path id="segment-145-228"
        d="M 574.5 191.5 A 679.21299161596 679.21299161596 0 0 0 969 291"
        stroke="#ff8800" 
        stroke-width="2"
        opacity="1"
        fill="none"
        stroke-linecap="round" />
  <path id="segment-144-143"
        d="M 646 413.5 A 132.56699014014515 132.56699014014515 0 0 0 795 457"
        stroke="#fae03c" 
        stroke-width="2"
        opacity="1"
        fill="none"
        stroke-linecap="round" />
  <path id="segment-147-229"
        d="M 1485 158 A 32.49710064004759 32.49710064004759 0 0 0 1493 102"
        stroke="#fae03c" 
        stroke-width="2"
        opacity="1"
        fill="none"
        stroke-linecap="round" />
  <path id="segment-229-148"
        d="M 1493 102 A 456.2175356979963 456.2175356979963 0 0 1 1468 -607"
        stroke="#fae03c" 
        stroke-width="2"
        opacity="1"
        fill="none"
        stroke-linecap="round" />
  <path id="segment-168-230"
        d="M 1711.5 301.5 A 161.03262438561072 161.03262438561072 0 0 1 1821 305"
        stroke="#fae03c" 
        stroke-width="2"
        opacity="1"
        fill="none"
        stroke-linecap="round" />
  <path id="segment-230-219"
        d="M 1821 305 A 124.09683482693059 124.09683482693059 0 0 0 1913.5 305"
        stroke="#fae03c" 
        stroke-width="2"
        opacity="1"
        fill="none"
        stroke-linecap="round" />
  <path id="segment-214-168"
        d="M 1738.5 -61.5 A 196.7466930935133 196.7466930935133 0 0 1 1711.5 301.5"
        stroke="#ff8800" 
        stroke-width="2"
        opacity="1"
        fill="none"
        stroke-linecap="round" />
  <path id="segment-167-221"
        d="M -217 1143 L -2010.5 1861"
        stroke="#ff8800" 
        stroke-width="2"
        opacity="1"
        fill="none"
        stroke-linecap="round" />
  <path id="segment-159-231"
        d="M -800 -1115 A 117.00416408466654 117.00416408466654 0 0 0 -771 -1050"
        stroke="#fae03c" 
        stroke-width="2"
        opacity="1"
        fill="none"
        stroke-linecap="round" />
  <path id="segment-231-158"
        d="M -771 -1050 A 430.55134361510585 430.55134361510585 0 0 1 -652 -775"
        stroke="#fae03c" 
        stroke-width="2"
        opacity="1"
        fill="none"
        stroke-linecap="round" />
  <path id="segment-175-232"
        d="M -634 899 A 8322.636577039633 8322.636577039633 0 0 1 -824 968"
        stroke="#ffffff" 
        stroke-width="2"
        opacity="1"
        fill="none"
        stroke-linecap="round" />
  <path id="segment-179-157"
        d="M -639 474 A 195.51721907959666 195.51721907959666 0 0 0 -714 626"
        stroke="#fae03c" 
        stroke-width="2"
        opacity="1"
        fill="none"
        stroke-linecap="round" />
  <path id="segment-171-233"
        d="M -792 843 A 62.38884779439127 62.38884779439127 0 0 0 -753 900"
        stroke="#fae03c" 
        stroke-width="2"
        opacity="1"
        fill="none"
        stroke-linecap="round" />
  <path id="segment-233-175"
        d="M -753 900 A 209.39185280477855 209.39185280477855 0 0 0 -634 899"
        stroke="#fae03c" 
        stroke-width="2"
        opacity="1"
        fill="none"
        stroke-linecap="round" />
  <path id="segment-234-235"
        d="M -714 -435.0909091 L -639 -435.0909091"
        stroke="#222222" 
        stroke-width="2"
        opacity="1"
        fill="none"
        stroke-linecap="round" />
  <path id="segment-236-237"
        d="M -714 -344.18181819999995 L -639 -344.18181819999995"
        stroke="#222222" 
        stroke-width="2"
        opacity="1"
        fill="none"
        stroke-linecap="round" />
  <path id="segment-238-239"
        d="M -714 -253.27272730000004 L -639 -253.27272730000004"
        stroke="#222222" 
        stroke-width="2"
        opacity="1"
        fill="none"
        stroke-linecap="round" />
  <path id="segment-240-241"
        d="M -714 -162.36363640000002 L -639 -162.36363640000002"
        stroke="#222222" 
        stroke-width="2"
        opacity="1"
        fill="none"
        stroke-linecap="round" />
  <path id="segment-242-243"
        d="M -714 -71.4545455 L -639 -71.4545455"
        stroke="#222222" 
        stroke-width="2"
        opacity="1"
        fill="none"
        stroke-linecap="round" />
  <path id="segment-244-245"
        d="M -714 19.454545000000053 L -639 19.454545000000053"
        stroke="#222222" 
        stroke-width="2"
        opacity="1"
        fill="none"
        stroke-linecap="round" />
  <path id="segment-246-247"
        d="M -714 110.36363600000004 L -639 110.36363600000004"
        stroke="#222222" 
        stroke-width="2"
        opacity="1"
        fill="none"
        stroke-linecap="round" />
  <path id="segment-248-249"
        d="M -714 201.27272700000003 L -639 201.27272700000003"
        stroke="#222222" 
        stroke-width="2"
        opacity="1"
        fill="none"
        stroke-linecap="round" />
  <path id="segment-250-251"
        d="M -714 292.181818 L -639 292.181818"
        stroke="#222222" 
        stroke-width="2"
        opacity="1"
        fill="none"
        stroke-linecap="round" />
  <path id="segment-252-253"
        d="M -714 383.090909 L -639 383.090909"
        stroke="#222222" 
        stroke-width="2"
        opacity="1"
        fill="none"
        stroke-linecap="round" />
  <path id="segment-170-182"
        d="M -1034.5 1129.5 L -613 964"
        stroke="#fae03c" 
        stroke-width="2"
        opacity="1"
        fill="none"
        stroke-linecap="round" />
  <path id="segment-211-210"
        d="M -189 -1104 A 262.01681254090477 262.01681254090477 0 0 1 -564 -1219"
        stroke="#fae03c" 
        stroke-width="2"
        opacity="1"
        fill="none"
        stroke-linecap="round" />
  <path id="segment-235-226"
        d="M -639 -435.0909091 L 535 -1375"
        stroke="#ff8800" 
        stroke-width="2"
        opacity="1"
        fill="none"
        stroke-linecap="round" />
  <path id="segment-177-235"
        d="M -639 -526 L -639 -435.0909091"
        stroke="#998500" 
        stroke-width="2"
        opacity="1"
        fill="none"
        stroke-linecap="round" />
  <path id="segment-235-237"
        d="M -639 -435.0909091 L -639 -344.18181819999995"
        stroke="#9524FF" 
        stroke-width="2"
        opacity="1"
        fill="none"
        stroke-linecap="round" />
  <path id="segment-237-239"
        d="M -639 -344.18181819999995 L -639 -253.27272730000004"
        stroke="#B45568" 
        stroke-width="2"
        opacity="1"
        fill="none"
        stroke-linecap="round" />
  <path id="segment-239-241"
        d="M -639 -253.27272730000004 L -639 -162.36363640000002"
        stroke="#E8D1A1" 
        stroke-width="2"
        opacity="1"
        fill="none"
        stroke-linecap="round" />
  <path id="segment-241-243"
        d="M -639 -162.36363640000002 L -639 -71.4545455"
        stroke="#C4FF00" 
        stroke-width="2"
        opacity="1"
        fill="none"
        stroke-linecap="round" />
  <path id="segment-243-245"
        d="M -639 -71.4545455 L -639 19.454545000000053"
        stroke="#004AC2" 
        stroke-width="2"
        opacity="1"
        fill="none"
        stroke-linecap="round" />
  <path id="segment-245-247"
        d="M -639 19.454545000000053 L -639 110.36363600000004"
        stroke="#FFBB00" 
        stroke-width="2"
        opacity="1"
        fill="none"
        stroke-linecap="round" />
  <path id="segment-247-249"
        d="M -639 110.36363600000004 L -639 201.27272700000003"
        stroke="#E4002B" 
        stroke-width="2"
        opacity="1"
        fill="none"
        stroke-linecap="round" />
  <path id="segment-249-251"
        d="M -639 201.27272700000003 L -639 292.181818"
        stroke="#E0E0E0" 
        stroke-width="2"
        opacity="1"
        fill="none"
        stroke-linecap="round" />
  <path id="segment-251-253"
        d="M -639 292.181818 L -639 383.090909"
        stroke="#52C4DA" 
        stroke-width="2"
        opacity="1"
        fill="none"
        stroke-linecap="round" />
  <path id="segment-253-179"
        d="M -639 383.090909 L -639 474"
        stroke="#059988" 
        stroke-width="2"
        opacity="1"
        fill="none"
        stroke-linecap="round" />
  
</svg>