<?xml version="1.0" encoding="UTF-8"?>
<svg xmlns="http://www.w3.org/2000/svg" 
     viewBox="-3697.3250819690347 -1349.2 7804.718271238946 3254.4"
     width="7804.718271238946" 
     height="3254.4">
  
  <!-- Metadata -->
  <title>Suzuka International Circuit - By Ximb - Haxball Map</title>
  <desc>Generated from Haxball map file</desc>
  
  <!-- Coordinate metadata for frontend -->
  <metadata>
    <coordinates>{"viewBox":"-3697.3250819690347 -1349.2 7804.718271238946 3254.4","bounds":{"minX":-3046.9318926991223,"maxX":3457,"minY":-1078,"maxY":1634},"padding":0.1,"generated":"2026-05-13T20:16:58.464Z"}</coordinates>
  </metadata>
  
  <!-- Definitions -->
  <defs>
    
    <!-- Arrow marker for direction -->
    <marker id="arrowhead" markerWidth="10" markerHeight="7" 
            refX="9" refY="3.5" orient="auto">
      <polygon points="0 0, 10 3.5, 0 7" fill="rgba(255,255,255,0.5)" />
    </marker>
  </defs>
  
  <!-- Background grid -->
  
  
  <!-- Map segments -->
  <path id="segment-3-4"
        d="M 1973 -896 L 1973 -1046"
        stroke="#df002b" 
        stroke-width="2"
        opacity="1"
        fill="none"
        stroke-linecap="round" />
  <path id="segment-5-6"
        d="M 1924 -1016 A 15 15 0 0 1 1924 -986"
        stroke="#ffffff" 
        stroke-width="2"
        opacity="1"
        fill="none"
        stroke-linecap="round" />
  <path id="segment-7-8"
        d="M 1894 -956 A 15 15 0 0 1 1894 -926"
        stroke="#df002b" 
        stroke-width="2"
        opacity="1"
        fill="none"
        stroke-linecap="round" />
  <path id="segment-9-10"
        d="M 1864 -1016 A 15 15 0 0 1 1864 -986"
        stroke="#df002b" 
        stroke-width="2"
        opacity="1"
        fill="none"
        stroke-linecap="round" />
  <path id="segment-11-12"
        d="M 1834 -956 A 15 15 0 0 1 1834 -926"
        stroke="#df002b" 
        stroke-width="2"
        opacity="1"
        fill="none"
        stroke-linecap="round" />
  <path id="segment-13-14"
        d="M 1804 -1016 A 15 15 0 0 1 1804 -986"
        stroke="#df002b" 
        stroke-width="2"
        opacity="1"
        fill="none"
        stroke-linecap="round" />
  <path id="segment-15-16"
        d="M 1774 -956 A 15 15 0 0 1 1774 -926"
        stroke="#df002b" 
        stroke-width="2"
        opacity="1"
        fill="none"
        stroke-linecap="round" />
  <path id="segment-17-18"
        d="M 1744 -1016 A 15 15 0 0 1 1744 -986"
        stroke="#df002b" 
        stroke-width="2"
        opacity="1"
        fill="none"
        stroke-linecap="round" />
  <path id="segment-19-20"
        d="M 1714 -956 A 15 15 0 0 1 1714 -926"
        stroke="#df002b" 
        stroke-width="2"
        opacity="1"
        fill="none"
        stroke-linecap="round" />
  <path id="segment-21-22"
        d="M 1684 -1016 A 15 15 0 0 1 1684 -986"
        stroke="#df002b" 
        stroke-width="2"
        opacity="1"
        fill="none"
        stroke-linecap="round" />
  <path id="segment-23-24"
        d="M 1654 -956 A 15 15 0 0 1 1654 -926"
        stroke="#df002b" 
        stroke-width="2"
        opacity="1"
        fill="none"
        stroke-linecap="round" />
  <path id="segment-25-26"
        d="M 1624 -1016 A 15 15 0 0 1 1624 -986"
        stroke="#df002b" 
        stroke-width="2"
        opacity="1"
        fill="none"
        stroke-linecap="round" />
  <path id="segment-30-31"
        d="M 184 -398 A 49.61210805269312 49.61210805269312 0 0 1 128 -360"
        stroke="#df002b" 
        stroke-width="2"
        opacity="1"
        fill="none"
        stroke-linecap="round" />
  <path id="segment-31-32"
        d="M 128 -360 L -37 -402"
        stroke="#ffffff" 
        stroke-width="2"
        opacity="1"
        fill="none"
        stroke-linecap="round" />
  <path id="segment-33-34"
        d="M 164 -245 L 12 -284"
        stroke="#ffffff" 
        stroke-width="2"
        opacity="1"
        fill="none"
        stroke-linecap="round" />
  <path id="segment-33-28"
        d="M 164 -245 A 134.89184992753286 134.89184992753286 0 0 0 317 -370"
        stroke="#ffffff" 
        stroke-width="2"
        opacity="1"
        fill="none"
        stroke-linecap="round" />
  <path id="segment-34-35"
        d="M 12 -284 A 22.935110215507358 22.935110215507358 0 0 0 -19 -261"
        stroke="#df002b" 
        stroke-width="2"
        opacity="1"
        fill="none"
        stroke-linecap="round" />
  <path id="segment-35-36"
        d="M -19 -261 L -40 369"
        stroke="#ffffff" 
        stroke-width="2"
        opacity="1"
        fill="none"
        stroke-linecap="round" />
  <path id="segment-37-38"
        d="M -155 -310 L -174 364"
        stroke="#ffffff" 
        stroke-width="2"
        opacity="1"
        fill="none"
        stroke-linecap="round" />
  <path id="segment-43-44"
        d="M -2860.9135582838107 1463.1334603156317 A 157.58967573818651 157.58967573818651 0 0 1 -2941.6819131683515 1242.8570157604522"
        stroke="#df002b" 
        stroke-width="2"
        opacity="1"
        fill="none"
        stroke-linecap="round" />
  <path id="segment-44-45"
        d="M -2941.6819131683515 1242.8570157604522 L -2822.785114631502 1025.4162485521447"
        stroke="#ffffff" 
        stroke-width="2"
        opacity="1"
        fill="none"
        stroke-linecap="round" />
  <path id="segment-46-47"
        d="M -3046.9318926991223 1212.9661437198852 L -2912.7438286368965 974.674628867497"
        stroke="#df002b" 
        stroke-width="2"
        opacity="1"
        fill="none"
        stroke-linecap="round" />
  <path id="segment-45-49"
        d="M -2822.785114631502 1025.4162485521447 A 144.15951684535062 144.15951684535062 0 0 1 -2645.996322143992 969.2313430595198"
        stroke="#df002b" 
        stroke-width="2"
        opacity="1"
        fill="none"
        stroke-linecap="round" />
  <path id="segment-49-50"
        d="M -2645.996322143992 969.2313430595198 L -2400.646775227574 1105.733992785876"
        stroke="#ffffff" 
        stroke-width="2"
        opacity="1"
        fill="none"
        stroke-linecap="round" />
  <path id="segment-51-52"
        d="M -2549.4659781868686 884.3150869087438 L -2331.3710321825642 1015.0397708235512"
        stroke="#ffffff" 
        stroke-width="2"
        opacity="1"
        fill="none"
        stroke-linecap="round" />
  <path id="segment-47-51"
        d="M -2912.7438286368965 974.674628867497 A 256.9214406394276 256.9214406394276 0 0 1 -2549.4659781868686 884.3150869087438"
        stroke="#ffffff" 
        stroke-width="2"
        opacity="1"
        fill="none"
        stroke-linecap="round" />
  <path id="segment-53-54"
        d="M -1200.0877720628168 470.3017088254327 L -1202.2950836955 136.21061999063102"
        stroke="#df002b" 
        stroke-width="2"
        opacity="1"
        fill="none"
        stroke-linecap="round" />
  <path id="segment-55-56"
        d="M -1088.3750971277584 473.6823315151786 L -1092.0299981675228 136.21548634602584"
        stroke="#ffffff" 
        stroke-width="2"
        opacity="1"
        fill="none"
        stroke-linecap="round" />
  <path id="segment-57-58"
        d="M -866.71982893827 395.20451135317603 L -897.5405736411863 118.3068855525546"
        stroke="#ffffff" 
        stroke-width="2"
        opacity="1"
        fill="none"
        stroke-linecap="round" />
  <path id="segment-59-60"
        d="M -977.2610765410451 414.0582478674186 L -1008.767627942557 128.96110678566424"
        stroke="#ffffff" 
        stroke-width="2"
        opacity="1"
        fill="none"
        stroke-linecap="round" />
  <path id="segment-1-61"
        d="M 2664 -896 A 467.58588760051526 467.58588760051526 0 0 1 2930 -776"
        stroke="#df002b" 
        stroke-width="2"
        opacity="1"
        fill="none"
        stroke-linecap="round" />
  <path id="segment-61-62"
        d="M 2930 -776 L 3242 -502"
        stroke="#ffffff" 
        stroke-width="2"
        opacity="1"
        fill="none"
        stroke-linecap="round" />
  <path id="segment-63-64"
        d="M 3063 -865 L 3366 -573"
        stroke="#df002b" 
        stroke-width="2"
        opacity="1"
        fill="none"
        stroke-linecap="round" />
  <path id="segment-62-65"
        d="M 3242 -502 A 141.11035469481538 141.11035469481538 0 0 1 3137 -260"
        stroke="#df002b" 
        stroke-width="2"
        opacity="1"
        fill="none"
        stroke-linecap="round" />
  <path id="segment-65-66"
        d="M 3137 -260 L 2745 -331"
        stroke="#ffffff" 
        stroke-width="2"
        opacity="1"
        fill="none"
        stroke-linecap="round" />
  <path id="segment-67-68"
        d="M 3133 -129 L 2735 -217"
        stroke="#ffffff" 
        stroke-width="2"
        opacity="1"
        fill="none"
        stroke-linecap="round" />
  <path id="segment-69-70"
        d="M 206 1117 L 501 916"
        stroke="#ffffff" 
        stroke-width="2"
        opacity="1"
        fill="none"
        stroke-linecap="round" />
  <path id="segment-71-72"
        d="M 282 1208 L 603 984"
        stroke="#df002b" 
        stroke-width="2"
        opacity="1"
        fill="none"
        stroke-linecap="round" />
  <path id="segment-70-73"
        d="M 501 916 A 51.136391597629625 51.136391597629625 0 0 0 521 861"
        stroke="#df002b" 
        stroke-width="2"
        opacity="1"
        fill="none"
        stroke-linecap="round" />
  <path id="segment-73-74"
        d="M 521 861 L 397 312"
        stroke="#ffffff" 
        stroke-width="2"
        opacity="1"
        fill="none"
        stroke-linecap="round" />
  <path id="segment-75-76"
        d="M 654 850 L 540 297"
        stroke="#ffffff" 
        stroke-width="2"
        opacity="1"
        fill="none"
        stroke-linecap="round" />
  <path id="segment-72-75"
        d="M 603 984 A 136.68680219564612 136.68680219564612 0 0 0 654 850"
        stroke="#ffffff" 
        stroke-width="2"
        opacity="1"
        fill="none"
        stroke-linecap="round" />
  <path id="segment-76-77"
        d="M 540 297 A 363.0253825166672 363.0253825166672 0 0 1 755 -107"
        stroke="#df002b" 
        stroke-width="2"
        opacity="1"
        fill="none"
        stroke-linecap="round" />
  <path id="segment-77-78"
        d="M 755 -107 L 1010 -197"
        stroke="#ffffff" 
        stroke-width="2"
        opacity="1"
        fill="none"
        stroke-linecap="round" />
  <path id="segment-79-80"
        d="M 690 -230 L 965 -325"
        stroke="#df002b" 
        stroke-width="2"
        opacity="1"
        fill="none"
        stroke-linecap="round" />
  <path id="segment-68-81"
        d="M 2735 -217 A 108.80878383495025 108.80878383495025 0 0 0 2600 -150"
        stroke="#df002b" 
        stroke-width="2"
        opacity="1"
        fill="none"
        stroke-linecap="round" />
  <path id="segment-81-82"
        d="M 2600 -150 L 2536 67"
        stroke="#ffffff" 
        stroke-width="2"
        opacity="1"
        fill="none"
        stroke-linecap="round" />
  <path id="segment-83-84"
        d="M 2486 -171 L 2428 29"
        stroke="#ffffff" 
        stroke-width="2"
        opacity="1"
        fill="none"
        stroke-linecap="round" />
  <path id="segment-83-66"
        d="M 2486 -171 A 216.64697462558397 216.64697462558397 0 0 1 2745 -331"
        stroke="#ffffff" 
        stroke-width="2"
        opacity="1"
        fill="none"
        stroke-linecap="round" />
  <path id="segment-84-85"
        d="M 2428 29 A 64.60368632400058 64.60368632400058 0 0 1 2334 63"
        stroke="#df002b" 
        stroke-width="2"
        opacity="1"
        fill="none"
        stroke-linecap="round" />
  <path id="segment-85-86"
        d="M 2334 63 L 2116 -105"
        stroke="#ffffff" 
        stroke-width="2"
        opacity="1"
        fill="none"
        stroke-linecap="round" />
  <path id="segment-78-87"
        d="M 1010 -197 A 179.02718385491661 179.02718385491661 0 0 1 1229 -91"
        stroke="#df002b" 
        stroke-width="2"
        opacity="1"
        fill="none"
        stroke-linecap="round" />
  <path id="segment-87-88"
        d="M 1229 -91 L 1325 166"
        stroke="#ffffff" 
        stroke-width="2"
        opacity="1"
        fill="none"
        stroke-linecap="round" />
  <path id="segment-89-90"
        d="M 1341 -124 L 1424 99"
        stroke="#ffffff" 
        stroke-width="2"
        opacity="1"
        fill="none"
        stroke-linecap="round" />
  <path id="segment-80-89"
        d="M 965 -325 A 305.05757979740395 305.05757979740395 0 0 1 1341 -124"
        stroke="#ffffff" 
        stroke-width="2"
        opacity="1"
        fill="none"
        stroke-linecap="round" />
  <path id="segment-91-92"
        d="M 2263 154 L 2026 -32"
        stroke="#ffffff" 
        stroke-width="2"
        opacity="1"
        fill="none"
        stroke-linecap="round" />
  <path id="segment-91-82"
        d="M 2263 154 A 179.3642179893414 179.3642179893414 0 0 0 2536 67"
        stroke="#ffffff" 
        stroke-width="2"
        opacity="1"
        fill="none"
        stroke-linecap="round" />
  <path id="segment-92-93"
        d="M 2026 -32 A 100.16247525454447 100.16247525454447 0 0 0 1876 2"
        stroke="#df002b" 
        stroke-width="2"
        opacity="1"
        fill="none"
        stroke-linecap="round" />
  <path id="segment-93-94"
        d="M 1876 2 L 1776 185"
        stroke="#ffffff" 
        stroke-width="2"
        opacity="1"
        fill="none"
        stroke-linecap="round" />
  <path id="segment-95-96"
        d="M 1769 -45 L 1679 116"
        stroke="#ffffff" 
        stroke-width="2"
        opacity="1"
        fill="none"
        stroke-linecap="round" />
  <path id="segment-90-96"
        d="M 1424 99 A 138.15765930032373 138.15765930032373 0 0 0 1679 116"
        stroke="#df002b" 
        stroke-width="2"
        opacity="1"
        fill="none"
        stroke-linecap="round" />
  <path id="segment-86-95"
        d="M 2116 -105 A 230.52820985465755 230.52820985465755 0 0 0 1769 -45"
        stroke="#ffffff" 
        stroke-width="2"
        opacity="1"
        fill="none"
        stroke-linecap="round" />
  <path id="segment-88-94"
        d="M 1325 166 A 246.86898883656454 246.86898883656454 0 0 0 1776 185"
        stroke="#ffffff" 
        stroke-width="2"
        opacity="1"
        fill="none"
        stroke-linecap="round" />
  <path id="segment-97-98"
        d="M 1595 -957 A 15 15 0 0 1 1595 -927"
        stroke="#df002b" 
        stroke-width="2"
        opacity="1"
        fill="none"
        stroke-linecap="round" />
  <path id="segment-99-100"
        d="M 1565 -1017 A 15 15 0 0 1 1565 -987"
        stroke="#df002b" 
        stroke-width="2"
        opacity="1"
        fill="none"
        stroke-linecap="round" />
  <path id="segment-101-102"
        d="M 1535 -957 A 15 15 0 0 1 1535 -927"
        stroke="#df002b" 
        stroke-width="2"
        opacity="1"
        fill="none"
        stroke-linecap="round" />
  <path id="segment-103-104"
        d="M 1505 -1017 A 15 15 0 0 1 1505 -987"
        stroke="#df002b" 
        stroke-width="2"
        opacity="1"
        fill="none"
        stroke-linecap="round" />
  <path id="segment-105-106"
        d="M 1475 -957 A 15 15 0 0 1 1475 -927"
        stroke="#df002b" 
        stroke-width="2"
        opacity="1"
        fill="none"
        stroke-linecap="round" />
  <path id="segment-107-108"
        d="M 1445 -1017 A 15 15 0 0 1 1445 -987"
        stroke="#df002b" 
        stroke-width="2"
        opacity="1"
        fill="none"
        stroke-linecap="round" />
  <path id="segment-109-110"
        d="M 1415 -957 A 15 15 0 0 1 1415 -927"
        stroke="#df002b" 
        stroke-width="2"
        opacity="1"
        fill="none"
        stroke-linecap="round" />
  <path id="segment-111-112"
        d="M 1385 -1017 A 15 15 0 0 1 1385 -987"
        stroke="#df002b" 
        stroke-width="2"
        opacity="1"
        fill="none"
        stroke-linecap="round" />
  <path id="segment-113-114"
        d="M 1355 -957 A 15 15 0 0 1 1355 -927"
        stroke="#df002b" 
        stroke-width="2"
        opacity="1"
        fill="none"
        stroke-linecap="round" />
  <path id="segment-115-116"
        d="M 824 -881 L 2131 -881"
        stroke="#777777" 
        stroke-width="2"
        opacity="1"
        fill="none"
        stroke-linecap="round" />
  <path id="segment-117-118"
        d="M 2660 -851 A 283.3238411299225 283.3238411299225 0 0 1 2938 -562"
        stroke="#777777" 
        stroke-width="2"
        opacity="1"
        fill="none"
        stroke-linecap="round" />
  <path id="segment-67-64"
        d="M 3133 -129 A 262.5110349004451 262.5110349004451 0 0 0 3366 -573"
        stroke="#ffffff" 
        stroke-width="2"
        opacity="1"
        fill="none"
        stroke-linecap="round" />
  <path id="segment-71-119"
        d="M 282 1208 A 280.59744775110624 280.59744775110624 0 0 1 -7 1216"
        stroke="#ffffff" 
        stroke-width="2"
        opacity="1"
        fill="none"
        stroke-linecap="round" />
  <path id="segment-69-121"
        d="M 206 1117 A 135.2912523204848 135.2912523204848 0 0 1 66 1114"
        stroke="#df002b" 
        stroke-width="2"
        opacity="1"
        fill="none"
        stroke-linecap="round" />
  <path id="segment-120-59"
        d="M -866.5569257900413 602.7681127949372 A 307.33025316345794 307.33025316345794 0 0 1 -977.2610765410451 414.0582478674186"
        stroke="#ffffff" 
        stroke-width="2"
        opacity="1"
        fill="none"
        stroke-linecap="round" />
  <path id="segment-122-57"
        d="M -798.8828553750974 511.35652544441007 A 171.93795731128412 171.93795731128412 0 0 1 -866.71982893827 395.20451135317603"
        stroke="#df002b" 
        stroke-width="2"
        opacity="1"
        fill="none"
        stroke-linecap="round" />
  <path id="segment-56-60"
        d="M -1092.0299981675228 136.21548634602584 A 41.81781079941608 41.81781079941608 0 0 1 -1008.767627942557 128.96110678566424"
        stroke="#df002b" 
        stroke-width="2"
        opacity="1"
        fill="none"
        stroke-linecap="round" />
  <path id="segment-54-58"
        d="M -1202.2950836955 136.21061999063102 A 153.24395670605978 153.24395670605978 0 0 1 -897.5405736411863 118.3068855525546"
        stroke="#ffffff" 
        stroke-width="2"
        opacity="1"
        fill="none"
        stroke-linecap="round" />
  <path id="segment-126-39"
        d="M -457.8317699453868 755.5696524140562 L -361.3391768006154 716"
        stroke="#ffffff" 
        stroke-width="2"
        opacity="1"
        fill="none"
        stroke-linecap="round" />
  <path id="segment-120-125"
        d="M -866.5569257900413 602.7681127949372 L -581.5057569569933 806.9692771325745"
        stroke="#ffffff" 
        stroke-width="2"
        opacity="1"
        fill="none"
        stroke-linecap="round" />
  <path id="segment-124-121"
        d="M -340 850 L 66 1114"
        stroke="#ffffff" 
        stroke-width="2"
        opacity="1"
        fill="none"
        stroke-linecap="round" />
  <path id="segment-123-119"
        d="M -463.71233513840184 900 L -7 1216"
        stroke="#df002b" 
        stroke-width="2"
        opacity="1"
        fill="none"
        stroke-linecap="round" />
  <path id="segment-122-126"
        d="M -798.8828553750974 511.35652544441007 L -457.8317699453868 755.5696524140562"
        stroke="#ffffff" 
        stroke-width="2"
        opacity="1"
        fill="none"
        stroke-linecap="round" />
  <path id="segment-127-128"
        d="M 2002 -258 A 348.4890078629674 348.4890078629674 0 0 0 1623 60"
        stroke="#777777" 
        stroke-width="2"
        opacity="1"
        fill="none"
        stroke-linecap="round" />
  <path id="segment-128-129"
        d="M 1623 60 A 62.06096171578038 62.06096171578038 0 0 1 1501 54"
        stroke="#777777" 
        stroke-width="2"
        opacity="1"
        fill="none"
        stroke-linecap="round" />
  <path id="segment-130-131"
        d="M -846.8373535024795 388.9843497289363 L -916.9296000835437 -272.3008230887686"
        stroke="#777777" 
        stroke-width="2"
        opacity="1"
        fill="none"
        stroke-linecap="round" />
  <path id="segment-131-132"
        d="M -916.9296000835437 -272.3008230887686 A 171.9419198372169 171.9419198372169 0 0 0 -1257.9202007080603 -236.0282954455256"
        stroke="#777777" 
        stroke-width="2"
        opacity="1"
        fill="none"
        stroke-linecap="round" />
  <path id="segment-132-133"
        d="M -1257.9202007080603 -236.0282954455256 L -1273.0568021383588 420.5292538598675"
        stroke="#777777" 
        stroke-width="2"
        opacity="1"
        fill="none"
        stroke-linecap="round" />
  <path id="segment-133-134"
        d="M -1273.0568021383588 420.5292538598675 A 789.7094725702046 789.7094725702046 0 0 1 -2258.887039248235 939.4756324015625"
        stroke="#777777" 
        stroke-width="2"
        opacity="1"
        fill="none"
        stroke-linecap="round" />
  <path id="segment-134-135"
        d="M -2258.887039248235 939.4756324015625 A 652.959001281017 652.959001281017 0 0 0 -2096.597184745235 1616.1936483221316"
        stroke="#777777" 
        stroke-width="2"
        opacity="1"
        fill="none"
        stroke-linecap="round" />
  <path id="segment-137-138"
        d="M 826 -865 L 2129 -865"
        stroke="#ffffff" 
        stroke-width="2"
        opacity="1"
        fill="none"
        stroke-linecap="round" />
  <path id="segment-136-139"
        d="M 928 -801 L 1968 -801"
        stroke="#ffffff" 
        stroke-width="2"
        opacity="1"
        fill="none"
        stroke-linecap="round" />
  <path id="segment-140-1"
        d="M 2423 -896 L 2664 -896"
        stroke="#ffffff" 
        stroke-width="2"
        opacity="1"
        fill="none"
        stroke-linecap="round" />
  <path id="segment-136-141"
        d="M 928 -801 L 928 -711"
        stroke="#333333" 
        stroke-width="2"
        opacity="1"
        fill="none"
        stroke-linecap="round" />
  <path id="segment-141-142"
        d="M 928 -711 L 1968 -711"
        stroke="#333333" 
        stroke-width="2"
        opacity="1"
        fill="none"
        stroke-linecap="round" />
  <path id="segment-142-139"
        d="M 1968 -711 L 1968 -801"
        stroke="#333333" 
        stroke-width="2"
        opacity="1"
        fill="none"
        stroke-linecap="round" />
  <path id="segment-143-144"
        d="M 922 -1077 L 2867 -1078"
        stroke="#777777" 
        stroke-width="2"
        opacity="1"
        fill="none"
        stroke-linecap="round" />
  <path id="segment-145-146"
        d="M 2116 165 A 129.70943202721173 129.70943202721173 0 0 0 1870 172"
        stroke="#777777" 
        stroke-width="2"
        opacity="1"
        fill="none"
        stroke-linecap="round" />
  <path id="segment-146-147"
        d="M 1870 172 A 379.9271144417848 379.9271144417848 0 0 1 1154 -66"
        stroke="#777777" 
        stroke-width="2"
        opacity="1"
        fill="none"
        stroke-linecap="round" />
  <path id="segment-147-148"
        d="M 1154 -66 A 6859.306998524033 6859.306998524033 0 0 1 1029 -129"
        stroke="#777777" 
        stroke-width="2"
        opacity="1"
        fill="none"
        stroke-linecap="round" />
  <path id="segment-148-149"
        d="M 1029 -129 A 404.2509904098299 404.2509904098299 0 0 0 580 290"
        stroke="#777777" 
        stroke-width="2"
        opacity="1"
        fill="none"
        stroke-linecap="round" />
  <path id="segment-149-150"
        d="M 580 290 A 591.0554513658393 591.0554513658393 0 0 1 -64 1281"
        stroke="#777777" 
        stroke-width="2"
        opacity="1"
        fill="none"
        stroke-linecap="round" />
  <path id="segment-152-153"
        d="M 1032 -711 L 1032 -801"
        stroke="#333333" 
        stroke-width="2"
        opacity="1"
        fill="none"
        stroke-linecap="round" />
  <path id="segment-154-155"
        d="M 1136 -711 L 1136 -801"
        stroke="#333333" 
        stroke-width="2"
        opacity="1"
        fill="none"
        stroke-linecap="round" />
  <path id="segment-156-157"
        d="M 1240 -711 L 1240 -801"
        stroke="#333333" 
        stroke-width="2"
        opacity="1"
        fill="none"
        stroke-linecap="round" />
  <path id="segment-158-159"
        d="M 1344 -711 L 1344 -801"
        stroke="#333333" 
        stroke-width="2"
        opacity="1"
        fill="none"
        stroke-linecap="round" />
  <path id="segment-160-161"
        d="M 1448 -711 L 1448 -801"
        stroke="#333333" 
        stroke-width="2"
        opacity="1"
        fill="none"
        stroke-linecap="round" />
  <path id="segment-162-163"
        d="M 1552 -711 L 1552 -801"
        stroke="#333333" 
        stroke-width="2"
        opacity="1"
        fill="none"
        stroke-linecap="round" />
  <path id="segment-164-165"
        d="M 1656 -711 L 1656 -801"
        stroke="#333333" 
        stroke-width="2"
        opacity="1"
        fill="none"
        stroke-linecap="round" />
  <path id="segment-166-167"
        d="M 1760 -711 L 1760 -801"
        stroke="#333333" 
        stroke-width="2"
        opacity="1"
        fill="none"
        stroke-linecap="round" />
  <path id="segment-168-169"
        d="M 1864 -711 L 1864 -801"
        stroke="#333333" 
        stroke-width="2"
        opacity="1"
        fill="none"
        stroke-linecap="round" />
  <path id="segment-170-1"
        d="M 2661 -1046 L 2664 -896"
        stroke="#ffffff" 
        stroke-width="2"
        opacity="1"
        fill="none"
        stroke-linecap="round" />
  <path id="segment-117-142"
        d="M 2660 -851 A 1490.9769794280624 1490.9769794280624 0 0 0 1968 -711"
        stroke="#777777" 
        stroke-width="2"
        opacity="1"
        fill="none"
        stroke-linecap="round" />
  <path id="segment-2-170"
        d="M 816 -1046 L 2661 -1046"
        stroke="#ffffff" 
        stroke-width="2"
        opacity="1"
        fill="none"
        stroke-linecap="round" />
  <path id="segment-170-63"
        d="M 2661 -1046 A 559.0695730221182 559.0695730221182 0 0 1 3063 -865"
        stroke="#ffffff" 
        stroke-width="2"
        opacity="1"
        fill="none"
        stroke-linecap="round" />
  <path id="segment-74-79"
        d="M 397 312 A 488.7386429395661 488.7386429395661 0 0 1 690 -230"
        stroke="#ffffff" 
        stroke-width="2"
        opacity="1"
        fill="none"
        stroke-linecap="round" />
  <path id="segment-53-171"
        d="M -1200.0877720628168 470.3017088254327 A 516.050655244262 516.050655244262 0 0 1 -1372 849"
        stroke="#df002b" 
        stroke-width="2"
        opacity="1"
        fill="none"
        stroke-linecap="round" />
  <path id="segment-171-172"
        d="M -1372 849 A 1018.2623105892426 1018.2623105892426 0 0 1 -2094.5238646276293 1090.4514676771803"
        stroke="#df002b" 
        stroke-width="2"
        opacity="1"
        fill="none"
        stroke-linecap="round" />
  <path id="segment-172-52"
        d="M -2094.5238646276293 1090.4514676771803 A 638.1907286701545 638.1907286701545 0 0 1 -2331.3710321825642 1015.0397708235512"
        stroke="#df002b" 
        stroke-width="2"
        opacity="1"
        fill="none"
        stroke-linecap="round" />
  <path id="segment-55-173"
        d="M -1088.3750971277584 473.6823315151786 A 585.9842786991754 585.9842786991754 0 0 1 -1258 908"
        stroke="#ffffff" 
        stroke-width="2"
        opacity="1"
        fill="none"
        stroke-linecap="round" />
  <path id="segment-173-174"
        d="M -1258 908 A 1065.4723996011319 1065.4723996011319 0 0 1 -2100.937068512097 1207.9268067150922"
        stroke="#ffffff" 
        stroke-width="2"
        opacity="1"
        fill="none"
        stroke-linecap="round" />
  <path id="segment-174-50"
        d="M -2100.937068512097 1207.9268067150922 A 775.6433466937784 775.6433466937784 0 0 1 -2400.646775227574 1105.733992785876"
        stroke="#ffffff" 
        stroke-width="2"
        opacity="1"
        fill="none"
        stroke-linecap="round" />
  <path id="segment-46-48"
        d="M -3046.9318926991223 1212.9661437198852 A 266.8700258212851 266.8700258212851 0 0 0 -2881.927195249318 1585.3589291177846"
        stroke="#ffffff" 
        stroke-width="2"
        opacity="1"
        fill="none"
        stroke-linecap="round" />
  <path id="segment-43-175"
        d="M -2860.9135582838107 1463.1334603156317 A 1237.4801964366025 1237.4801964366025 0 0 0 -2606 1524"
        stroke="#df002b" 
        stroke-width="2"
        opacity="1"
        fill="none"
        stroke-linecap="round" />
  <path id="segment-175-40"
        d="M -2606 1524 A 1012.7675419073627 1012.7675419073627 0 0 0 -2161.555848327853 1474.3212314380235"
        stroke="#df002b" 
        stroke-width="2"
        opacity="1"
        fill="none"
        stroke-linecap="round" />
  <path id="segment-176-42"
        d="M -2613 1634 A 1281.9993551866535 1281.9993551866535 0 0 0 -2114.4261422453583 1576.8398527467461"
        stroke="#ffffff" 
        stroke-width="2"
        opacity="1"
        fill="none"
        stroke-linecap="round" />
  <path id="segment-48-176"
        d="M -2881.927195249318 1585.3589291177846 A 1425.6796074438248 1425.6796074438248 0 0 0 -2613 1634"
        stroke="#ffffff" 
        stroke-width="2"
        opacity="1"
        fill="none"
        stroke-linecap="round" />
  <path id="segment-39-177"
        d="M -361.3391768006154 716 A 189.22776020482738 189.22776020482738 0 0 0 -261 636"
        stroke="#df002b" 
        stroke-width="2"
        opacity="1"
        fill="none"
        stroke-linecap="round" />
  <path id="segment-177-38"
        d="M -261 636 A 552.1946573232912 552.1946573232912 0 0 0 -174 364"
        stroke="#df002b" 
        stroke-width="2"
        opacity="1"
        fill="none"
        stroke-linecap="round" />
  <path id="segment-41-178"
        d="M -281.61822153652975 824 A 253.82224256674775 253.82224256674775 0 0 0 -147 709"
        stroke="#ffffff" 
        stroke-width="2"
        opacity="1"
        fill="none"
        stroke-linecap="round" />
  <path id="segment-178-36"
        d="M -147 709 A 772.7324839130323 772.7324839130323 0 0 0 -40 369"
        stroke="#ffffff" 
        stroke-width="2"
        opacity="1"
        fill="none"
        stroke-linecap="round" />
  <path id="segment-29-179"
        d="M 191 -681 A 278.7606402078314 278.7606402078314 0 0 1 353 -924"
        stroke="#ffffff" 
        stroke-width="2"
        opacity="1"
        fill="none"
        stroke-linecap="round" />
  <path id="segment-179-2"
        d="M 353 -924 A 1277.4463512904497 1277.4463512904497 0 0 1 816 -1046"
        stroke="#ffffff" 
        stroke-width="2"
        opacity="1"
        fill="none"
        stroke-linecap="round" />
  <path id="segment-138-180"
        d="M 2129 -865 A 176.95909966566796 176.95909966566796 0 0 0 2224 -896"
        stroke="#ffffff" 
        stroke-width="2"
        opacity="1"
        fill="none"
        stroke-linecap="round" />
  <path id="segment-180-181"
        d="M 2224 -896 A 351.00179687757844 351.00179687757844 0 0 1 2437 -970"
        stroke="#ffffff" 
        stroke-width="2"
        opacity="1"
        fill="none"
        stroke-linecap="round" />
  <path id="segment-181-182"
        d="M 2437 -970 L 2663 -970"
        stroke="#ffffff" 
        stroke-width="2"
        opacity="1"
        fill="none"
        stroke-linecap="round" />
  <path id="segment-139-183"
        d="M 1968 -801 L 2132 -801"
        stroke="#ffffff" 
        stroke-width="2"
        opacity="1"
        fill="none"
        stroke-linecap="round" />
  <path id="segment-183-184"
        d="M 2132 -801 A 272.34568212463444 272.34568212463444 0 0 0 2275 -844"
        stroke="#ffffff" 
        stroke-width="2"
        opacity="1"
        fill="none"
        stroke-linecap="round" />
  <path id="segment-184-140"
        d="M 2275 -844 A 266.5340398761627 266.5340398761627 0 0 1 2423 -896"
        stroke="#ffffff" 
        stroke-width="2"
        opacity="1"
        fill="none"
        stroke-linecap="round" />
  <path id="segment-0-180"
        d="M 829 -896 L 2224 -896"
        stroke="#ffffff" 
        stroke-width="2"
        opacity="1"
        fill="none"
        stroke-linecap="round" />
  <path id="segment-27-185"
        d="M 334 -644 A 185.179438374811 185.179438374811 0 0 1 424 -789"
        stroke="#df002b" 
        stroke-width="2"
        opacity="1"
        fill="none"
        stroke-linecap="round" />
  <path id="segment-185-0"
        d="M 424 -789 A 847.8123173766242 847.8123173766242 0 0 1 829 -896"
        stroke="#df002b" 
        stroke-width="2"
        opacity="1"
        fill="none"
        stroke-linecap="round" />
  <path id="segment-137-186"
        d="M 826 -865 A 800.8725010995246 800.8725010995246 0 0 0 439 -767"
        stroke="#ffffff" 
        stroke-width="2"
        opacity="1"
        fill="none"
        stroke-linecap="round" />
  <path id="segment-186-27"
        d="M 439 -767 A 246.29159831623693 246.29159831623693 0 0 0 334 -644"
        stroke="#ffffff" 
        stroke-width="2"
        opacity="1"
        fill="none"
        stroke-linecap="round" />
  <path id="segment-136-187"
        d="M 928 -801 L 827 -801"
        stroke="#ffffff" 
        stroke-width="2"
        opacity="1"
        fill="none"
        stroke-linecap="round" />
  <path id="segment-187-188"
        d="M 827 -801 A 657.0224062789935 657.0224062789935 0 0 0 492 -707"
        stroke="#ffffff" 
        stroke-width="2"
        opacity="1"
        fill="none"
        stroke-linecap="round" />
  <path id="segment-28-188"
        d="M 317 -370 A 443.193530911139 443.193530911139 0 0 1 492 -707"
        stroke="#ffffff" 
        stroke-width="2"
        opacity="1"
        fill="none"
        stroke-linecap="round" />
  <path id="segment-115-189"
        d="M 824 -881 A 781.3911967544819 781.3911967544819 0 0 0 430 -778"
        stroke="#777777" 
        stroke-width="2"
        opacity="1"
        fill="none"
        stroke-linecap="round" />
  <path id="segment-189-190"
        d="M 430 -778 A 168.25984816141045 168.25984816141045 0 0 0 367 -717"
        stroke="#777777" 
        stroke-width="2"
        opacity="1"
        fill="none"
        stroke-linecap="round" />
  <path id="segment-127-118"
        d="M 2002 -258 A 1506.2507936419709 1506.2507936419709 0 0 0 2938 -562"
        stroke="#777777" 
        stroke-width="2"
        opacity="1"
        fill="none"
        stroke-linecap="round" />
  <path id="segment-145-144"
        d="M 2116 165 A 822.5335273205322 822.5335273205322 0 0 0 2867 -1078"
        stroke="#777777" 
        stroke-width="2"
        opacity="1"
        fill="none"
        stroke-linecap="round" />
  <path id="segment-129-191"
        d="M 1501 54 A 613.6686953619053 613.6686953619053 0 0 0 437 -269"
        stroke="#777777" 
        stroke-width="2"
        opacity="1"
        fill="none"
        stroke-linecap="round" />
  <path id="segment-150-123"
        d="M -64 1281 A 2688.3720977700973 2688.3720977700973 0 0 1 -463.71233513840184 900"
        stroke="#777777" 
        stroke-width="2"
        opacity="1"
        fill="none"
        stroke-linecap="round" />
  <path id="segment-124-192"
        d="M -340 850 A 2149.320740690469 2149.320740690469 0 0 1 51 1055"
        stroke="#777777" 
        stroke-width="2"
        opacity="1"
        fill="none"
        stroke-linecap="round" />
  <path id="segment-192-151"
        d="M 51 1055 A 239.26885260909796 239.26885260909796 0 0 0 361 741"
        stroke="#777777" 
        stroke-width="2"
        opacity="1"
        fill="none"
        stroke-linecap="round" />
  <path id="segment-151-191"
        d="M 361 741 A 974.5101925453517 974.5101925453517 0 0 1 437 -269"
        stroke="#777777" 
        stroke-width="2"
        opacity="1"
        fill="none"
        stroke-linecap="round" />
  <path id="segment-130-193"
        d="M -846.8373535024795 388.9843497289363 A 209.20461217771603 209.20461217771603 0 0 0 -778 500"
        stroke="#777777" 
        stroke-width="2"
        opacity="1"
        fill="none"
        stroke-linecap="round" />
  <path id="segment-194-195"
        d="M -1050 195 L -1005 950"
        stroke="#777777" 
        stroke-width="2"
        opacity="1"
        fill="none"
        stroke-linecap="round" />
  <path id="segment-125-196"
        d="M -581.5057569569933 806.9692771325745 A 893.0598585709305 893.0598585709305 0 0 0 -765 852"
        stroke="#777777" 
        stroke-width="2"
        opacity="1"
        fill="none"
        stroke-linecap="round" />
  <path id="segment-196-197"
        d="M -765 852 L -2174 1432"
        stroke="#777777" 
        stroke-width="2"
        opacity="1"
        fill="none"
        stroke-linecap="round" />
  <path id="segment-197-198"
        d="M -2174 1432 A 804.7533817086769 804.7533817086769 0 0 1 -2583 1471"
        stroke="#777777" 
        stroke-width="2"
        opacity="1"
        fill="none"
        stroke-linecap="round" />
  <path id="segment-198-199"
        d="M -2583 1471 A 262.771995277769 262.771995277769 0 0 1 -2790 1150"
        stroke="#777777" 
        stroke-width="2"
        opacity="1"
        fill="none"
        stroke-linecap="round" />
  <path id="segment-199-200"
        d="M -2790 1150 A 157.59707545367925 157.59707545367925 0 0 1 -2584 1058"
        stroke="#777777" 
        stroke-width="2"
        opacity="1"
        fill="none"
        stroke-linecap="round" />
  <path id="segment-135-201"
        d="M -2096.597184745235 1616.1936483221316 L -503 953"
        stroke="#777777" 
        stroke-width="2"
        opacity="1"
        fill="none"
        stroke-linecap="round" />
  <path id="segment-201-123"
        d="M -503 953 A 62.36540679553812 62.36540679553812 0 0 0 -463.71233513840184 900"
        stroke="#777777" 
        stroke-width="2"
        opacity="1"
        fill="none"
        stroke-linecap="round" />
  <path id="segment-123-124"
        d="M -463.71233513840184 900 L -340 850"
        stroke="#ffffff" 
        stroke-width="2"
        opacity="1"
        fill="none"
        stroke-linecap="round" />
  <path id="segment-124-41"
        d="M -340 850 L -281.61822153652975 824"
        stroke="#ffffff" 
        stroke-width="2"
        opacity="1"
        fill="none"
        stroke-linecap="round" />
  <path id="segment-123-42"
        d="M -463.71233513840184 900 L -2114.4261422453583 1576.8398527467461"
        stroke="#ffffff" 
        stroke-width="2"
        opacity="1"
        fill="none"
        stroke-linecap="round" />
  <path id="segment-40-125"
        d="M -2161.555848327853 1474.3212314380235 L -581.5057569569933 806.9692771325745"
        stroke="#ffffff" 
        stroke-width="2"
        opacity="1"
        fill="none"
        stroke-linecap="round" />
  <path id="segment-125-126"
        d="M -581.5057569569933 806.9692771325745 L -457.8317699453868 755.5696524140562"
        stroke="#ffffff" 
        stroke-width="2"
        opacity="1"
        fill="none"
        stroke-linecap="round" />
  <path id="segment-126-202"
        d="M -457.8317699453868 755.5696524140562 A 736.6176971077048 736.6176971077048 0 0 0 -379 697"
        stroke="#777777" 
        stroke-width="2"
        opacity="1"
        fill="none"
        stroke-linecap="round" />
  <path id="segment-193-202"
        d="M -778 500 A 2428.570085236339 2428.570085236339 0 0 1 -379 697"
        stroke="#777777" 
        stroke-width="2"
        opacity="1"
        fill="none"
        stroke-linecap="round" />
  <path id="segment-202-203"
        d="M -379 697 A 966.8655894376161 966.8655894376161 0 0 1 -238 -704"
        stroke="#777777" 
        stroke-width="2"
        opacity="1"
        fill="none"
        stroke-linecap="round" />
  <path id="segment-203-143"
        d="M -238 -704 A 2059.414314619291 2059.414314619291 0 0 1 922 -1077"
        stroke="#777777" 
        stroke-width="2"
        opacity="1"
        fill="none"
        stroke-linecap="round" />
  <path id="segment-191-204"
        d="M 437 -269 A 98.16651824778027 98.16651824778027 0 0 1 333 -369"
        stroke="#999999" 
        stroke-width="2"
        opacity="1"
        fill="none"
        stroke-linecap="round" />
  <path id="segment-204-205"
        d="M 333 -369 A 437.82954764899904 437.82954764899904 0 0 1 506 -688"
        stroke="#999999" 
        stroke-width="2"
        opacity="1"
        fill="none"
        stroke-linecap="round" />
  <path id="segment-205-141"
        d="M 506 -688 A 381.2901674786295 381.2901674786295 0 0 1 928 -711"
        stroke="#999999" 
        stroke-width="2"
        opacity="1"
        fill="none"
        stroke-linecap="round" />
  <path id="segment-32-206"
        d="M -37 -402 L -36 -461"
        stroke="#333333" 
        stroke-width="2"
        opacity="1"
        fill="none"
        stroke-linecap="round" />
  <path id="segment-206-207"
        d="M -36 -461 A 39.32986441998137 39.32986441998137 0 0 1 5 -501"
        stroke="#333333" 
        stroke-width="2"
        opacity="1"
        fill="none"
        stroke-linecap="round" />
  <path id="segment-207-208"
        d="M 5 -501 A 255.933976105065 255.933976105065 0 0 1 118 -481"
        stroke="#333333" 
        stroke-width="2"
        opacity="1"
        fill="none"
        stroke-linecap="round" />
  <path id="segment-208-209"
        d="M 118 -481 A 52.57607876454797 52.57607876454797 0 0 0 187 -531"
        stroke="#333333" 
        stroke-width="2"
        opacity="1"
        fill="none"
        stroke-linecap="round" />
  <path id="segment-37-210"
        d="M -155 -310 L -156 -471"
        stroke="#333333" 
        stroke-width="2"
        opacity="1"
        fill="none"
        stroke-linecap="round" />
  <path id="segment-210-211"
        d="M -156 -471 A 138.52773767291177 138.52773767291177 0 0 1 9 -594"
        stroke="#333333" 
        stroke-width="2"
        opacity="1"
        fill="none"
        stroke-linecap="round" />
  <path id="segment-211-212"
        d="M 9 -594 L 114 -578"
        stroke="#333333" 
        stroke-width="2"
        opacity="1"
        fill="none"
        stroke-linecap="round" />
  <path id="segment-212-29"
        d="M 114 -578 A 105.13280130127369 105.13280130127369 0 0 0 191 -681"
        stroke="#333333" 
        stroke-width="2"
        opacity="1"
        fill="none"
        stroke-linecap="round" />
  <path id="segment-30-29"
        d="M 184 -398 L 191 -681"
        stroke="#ffffff" 
        stroke-width="2"
        opacity="1"
        fill="none"
        stroke-linecap="round" />
  <path id="segment-37-32"
        d="M -155 -310 A 93.1786193999249 93.1786193999249 0 0 1 -37 -402"
        stroke="#df002b" 
        stroke-width="2"
        opacity="1"
        fill="none"
        stroke-linecap="round" />
  <path id="segment-126-124"
        d="M -457.8317699453868 755.5696524140562 L -340 850"
        stroke="#969696" 
        stroke-width="2"
        opacity="1"
        fill="none"
        stroke-linecap="round" />
  <path id="segment-125-123"
        d="M -581.5057569569933 806.9692771325745 L -463.71233513840184 900"
        stroke="#969696" 
        stroke-width="2"
        opacity="1"
        fill="none"
        stroke-linecap="round" />
  
</svg>